solid OpenSCAD_Model
  facet normal -0.9891765099037807 -0.1467304748665927 0
    outer loop
      vertex 78.95321507006884 15.704770922660828 0
      vertex 80.11237049847841 7.890379793941975 0
      vertex 78.95321507006884 15.704770922660828 6
    endloop
  endfacet
  facet normal -0.9891765099037807 -0.1467304748665927 0
    outer loop
      vertex 78.95321507006884 15.704770922660828 6
      vertex 80.11237049847841 7.890379793941975 0
      vertex 80.11237049847841 7.890379793941975 6
    endloop
  endfacet
  facet normal -0.9700312531748002 -0.24298017998208588 0
    outer loop
      vertex 78.95321507006884 15.704770922660828 0
      vertex 77.03369702398777 23.367916516959667 6
      vertex 77.03369702398777 23.367916516959667 0
    endloop
  endfacet
  facet normal -0.9700312531748002 -0.24298017998208588 0
    outer loop
      vertex 78.95321507006884 15.704770922660828 0
      vertex 78.95321507006884 15.704770922660828 6
      vertex 77.03369702398777 23.367916516959667 6
    endloop
  endfacet
  facet normal -0.9415440653301117 -0.3368898529811283 0
    outer loop
      vertex 77.03369702398777 23.367916516959667 0
      vertex 77.03369702398777 23.367916516959667 6
      vertex 74.37230236828327 30.80601630359888 6
    endloop
  endfacet
  facet normal 0 0 1
    outer loop
      vertex 80.11237049847841 7.890379793941975 6
      vertex 79.8678263097711 10.165644128742397 6
      vertex 79.46604696819581 12.936668011837472 6
    endloop
  endfacet
  facet normal 0 0 1
    outer loop
      vertex 78.95321507006884 15.704770922660828 6
      vertex 80.11237049847841 7.890379793941975 6
      vertex 79.46604696819581 12.936668011837472 6
    endloop
  endfacet
  facet normal 0 0 1
    outer loop
      vertex 78.95321507006884 15.704770922660828 6
      vertex 79.46604696819581 12.936668011837472 6
      vertex 80.84867353341996 13.137139322968794 6
    endloop
  endfacet
  facet normal 0 0 1
    outer loop
      vertex 78.95321507006884 15.704770922660828 6
      vertex 80.42439299076796 15.997406408190727 6
      vertex 77.09467188992312 23.208221952254277 6
    endloop
  endfacet
  facet normal 0 0 1
    outer loop
      vertex 78.95321507006884 15.704770922660828 6
      vertex 77.09467188992312 23.208221952254277 6
      vertex 77.03369702398777 23.367916516959667 6
    endloop
  endfacet
  facet normal 0 0 1
    outer loop
      vertex 80.42439299076796 15.997406408190727 6
      vertex 78.5050884038847 23.659699837842894 6
      vertex 77.09467188992312 23.208221952254277 6
    endloop
  endfacet
  facet normal 0 0 1
    outer loop
      vertex 77.03369702398777 23.367916516959667 6
      vertex 76.24105185264469 25.87493019125546 6
      vertex 74.37230236828327 30.80601630359888 6
    endloop
  endfacet
  facet normal 0 0 1
    outer loop
      vertex 77.03369702398777 23.367916516959667 6
      vertex 77.09467188992312 23.208221952254277 6
      vertex 76.24105185264469 25.87493019125546 6
    endloop
  endfacet
  facet normal -0.8577286099725008 -0.5141027442395554 0
    outer loop
      vertex 66.93330378830433 44.72340375930071 0
      vertex 70.9946617782116 37.947437316179276 0
      vertex 66.93330378830433 44.72340375930071 6
    endloop
  endfacet
  facet normal -0.8577286099725008 -0.5141027442395554 0
    outer loop
      vertex 70.9946617782116 37.947437316179276 0
      vertex 70.9946617782116 37.947437316179276 6
      vertex 66.93330378830433 44.72340375930071 6
    endloop
  endfacet
  facet normal -0.803207531420664 -0.5956993045733083 0
    outer loop
      vertex 66.93330378830433 44.72340375930071 0
      vertex 66.93330378830433 44.72340375930071 6
      vertex 62.22734149545431 51.068659372627735 6
    endloop
  endfacet
  facet normal -0.9039892930593008 -0.4275550935659001 0
    outer loop
      vertex 74.37230236828327 30.80601630359888 0
      vertex 70.9946617782116 37.947437316179276 6
      vertex 70.9946617782116 37.947437316179276 0
    endloop
  endfacet
  facet normal -0.9415440653301117 -0.3368898529811283 0
    outer loop
      vertex 77.03369702398777 23.367916516959667 0
      vertex 74.37230236828327 30.80601630359888 6
      vertex 74.37230236828327 30.80601630359888 0
    endloop
  endfacet
  facet normal -0.9039892930593008 -0.4275550935659001 0
    outer loop
      vertex 74.37230236828327 30.80601630359888 0
      vertex 74.37230236828327 30.80601630359888 6
      vertex 70.9946617782116 37.947437316179276 6
    endloop
  endfacet
  facet normal 0 0 1
    outer loop
      vertex 66.93330378830433 44.72340375930071 6
      vertex 65.33858636242931 47.043375008170564 6
      vertex 62.22734149545431 51.068659372627735 6
    endloop
  endfacet
  facet normal 0 0 1
    outer loop
      vertex 66.93330378830433 44.72340375930071 6
      vertex 70.9946617782116 37.947437316179276 6
      vertex 70.92485640843803 38.10347416499505 6
    endloop
  endfacet
  facet normal 0 0 1
    outer loop
      vertex 66.93330378830433 44.72340375930071 6
      vertex 70.92485640843803 38.10347416499505 6
      vertex 72.2414145636367 38.78154617156236 6
    endloop
  endfacet
  facet normal 0 0 1
    outer loop
      vertex 66.93330378830433 44.72340375930071 6
      vertex 72.2414145636367 38.78154617156236 6
      vertex 68.18050821125507 45.55675910413265 6
    endloop
  endfacet
  facet normal 0 0 1
    outer loop
      vertex 66.93330378830433 44.72340375930071 6
      vertex 68.18050821125507 45.55675910413265 6
      vertex 65.33858636242931 47.043375008170564 6
    endloop
  endfacet
  facet normal 0 0 1
    outer loop
      vertex 68.18050821125507 45.55675910413265 6
      vertex 66.4580056069381 47.879285005393974 6
      vertex 65.33858636242931 47.043375008170564 6
    endloop
  endfacet
  facet normal 0 0 1
    outer loop
      vertex 74.37230236828327 30.80601630359888 6
      vertex 72.20690337076552 35.61422616883499 6
      vertex 70.9946617782116 37.947437316179276 6
    endloop
  endfacet
  facet normal 0 0 1
    outer loop
      vertex 70.9946617782116 37.947437316179276 6
      vertex 72.20690337076552 35.61422616883499 6
      vertex 70.92485640843803 38.10347416499505 6
    endloop
  endfacet
  facet normal 0 0 1
    outer loop
      vertex 74.37230236828327 30.80601630359888 6
      vertex 75.75812166929245 31.38004145026207 6
      vertex 72.20690337076552 35.61422616883499 6
    endloop
  endfacet
  facet normal 0 0 1
    outer loop
      vertex 75.75812166929245 31.38004145026207 6
      vertex 73.45216467230605 36.25557788284932 6
      vertex 72.20690337076552 35.61422616883499 6
    endloop
  endfacet
  facet normal 0 0 1
    outer loop
      vertex 74.37230236828327 30.80601630359888 6
      vertex 76.24105185264469 25.87493019125546 6
      vertex 77.57508870980776 26.30195875594346 6
    endloop
  endfacet
  facet normal 0 0 1
    outer loop
      vertex 74.37230236828327 30.80601630359888 6
      vertex 77.57508870980776 26.30195875594346 6
      vertex 75.75812166929245 31.38004145026207 6
    endloop
  endfacet
  facet normal -0.9987954562861785 -0.04906767267850405 0
    outer loop
      vertex 80.25884409248829 4.908841192722321 0
      vertex 80.11237049847841 7.890379793941975 6
      vertex 80.11237049847841 7.890379793941975 0
    endloop
  endfacet
  facet normal -0.9987954562861785 -0.04906767267850405 0
    outer loop
      vertex 80.25884409248829 4.908841192722321 0
      vertex 80.25884409248829 4.908841192722321 6
      vertex 80.11237049847841 7.890379793941975 6
    endloop
  endfacet
  facet normal 0 0 -1
    outer loop
      vertex 78.95321507006884 15.704770922660828 0
      vertex 136.81954661756754 27.215099923312664 0
      vertex 80.11237049847841 7.890379793941975 0
    endloop
  endfacet
  facet normal 0 0 -1
    outer loop
      vertex 78.95321507006884 15.704770922660828 0
      vertex 77.03369702398777 23.367916516959667 0
      vertex 133.49317683279514 40.494712479412556 0
    endloop
  endfacet
  facet normal 0 0 1
    outer loop
      vertex 80.25884409248829 4.908841192722321 6
      vertex 81.71927109360695 5.714368097484112 6
      vertex 80.11237049847841 7.890379793941975 6
    endloop
  endfacet
  facet normal 0 0 1
    outer loop
      vertex 81.71927109360695 5.714368097484112 6
      vertex 81.60514758527279 8.037405505776405 6
      vertex 80.11237049847841 7.890379793941975 6
    endloop
  endfacet
  facet normal 0 0 1
    outer loop
      vertex 80.11237049847841 7.890379793941975 6
      vertex 81.60514758527279 8.037405505776405 6
      vertex 79.8678263097711 10.165644128742397 6
    endloop
  endfacet
  facet normal 0 0 1
    outer loop
      vertex 81.60514758527279 8.037405505776405 6
      vertex 81.25952106176362 10.367430264380037 6
      vertex 79.8678263097711 10.165644128742397 6
    endloop
  endfacet
  facet normal 0 0 1
    outer loop
      vertex 78.95321507006884 15.704770922660828 6
      vertex 80.84867353341996 13.137139322968794 6
      vertex 80.42439299076796 15.997406408190727 6
    endloop
  endfacet
  facet normal 0 0 -1
    outer loop
      vertex 77.03369702398777 23.367916516959667 0
      vertex 74.37230236828327 30.80601630359888 0
      vertex 133.49317683279514 40.494712479412556 0
    endloop
  endfacet
  facet normal 0 0 -1
    outer loop
      vertex 74.37230236828327 30.80601630359888 0
      vertex 70.9946617782116 37.947437316179276 0
      vertex 128.8811947852373 53.384338818490505 0
    endloop
  endfacet
  facet normal -0.7409511246091106 -0.6715589556699355 0
    outer loop
      vertex 62.22734149545431 51.068659372627735 0
      vertex 60.2226478010416 53.28049801290035 6
      vertex 60.2226478010416 53.28049801290035 0
    endloop
  endfacet
  facet normal -0.803207531420664 -0.5956993045733083 0
    outer loop
      vertex 66.93330378830433 44.72340375930071 0
      vertex 62.22734149545431 51.068659372627735 6
      vertex 62.22734149545431 51.068659372627735 0
    endloop
  endfacet
  facet normal -0.7409511246091106 -0.6715589556699355 0
    outer loop
      vertex 62.22734149545431 51.068659372627735 0
      vertex 62.22734149545431 51.068659372627735 6
      vertex 60.2226478010416 53.28049801290035 6
    endloop
  endfacet
  facet normal 0 0 -1
    outer loop
      vertex 62.22734149545431 51.068659372627735 0
      vertex 60.2226478010416 53.28049801290035 0
      vertex 104.3609859496355 92.33080090582371 0
    endloop
  endfacet
  facet normal -0.662620048190504 0.7489557208113269 0
    outer loop
      vertex 60.2226478010416 53.28049801290035 0
      vertex 60.2226478010416 53.28049801290035 6
      vertex 104.3609859496355 92.33080090582371 6
    endloop
  endfacet
  facet normal 0 0 1
    outer loop
      vertex 62.22734149545431 51.068659372627735 6
      vertex 61.82491917908192 53.74358230084181 6
      vertex 60.2226478010416 53.28049801290035 6
    endloop
  endfacet
  facet normal 0 0 1
    outer loop
      vertex 62.22734149545431 51.068659372627735 6
      vertex 63.38685717433691 52.02024929970503 6
      vertex 61.82491917908192 53.74358230084181 6
    endloop
  endfacet
  facet normal 0 0 1
    outer loop
      vertex 62.22734149545431 51.068659372627735 6
      vertex 65.33858636242931 47.043375008170564 6
      vertex 63.66327748083146 49.28688568370553 6
    endloop
  endfacet
  facet normal 0 0 1
    outer loop
      vertex 62.22734149545431 51.068659372627735 6
      vertex 63.66327748083146 49.28688568370553 6
      vertex 64.79003862249553 50.12827813556851 6
    endloop
  endfacet
  facet normal 0 0 1
    outer loop
      vertex 62.22734149545431 51.068659372627735 6
      vertex 64.79003862249553 50.12827813556851 6
      vertex 63.38685717433691 52.02024929970503 6
    endloop
  endfacet
  facet normal 0 0 1
    outer loop
      vertex 60.2226478010416 53.28049801290035 6
      vertex 61.82491917908192 53.74358230084181 6
      vertex 104.04681520164013 90.44651656597853 6
    endloop
  endfacet
  facet normal 0 0 -1
    outer loop
      vertex 66.93330378830433 44.72340375930071 0
      vertex 62.22734149545431 51.068659372627735 0
      vertex 115.99001091718674 77.502047508955 0
    endloop
  endfacet
  facet normal 0 0 -1
    outer loop
      vertex 66.93330378830433 44.72340375930071 0
      vertex 123.02801637351513 65.75984478741884 0
      vertex 70.9946617782116 37.947437316179276 0
    endloop
  endfacet
  facet normal -0.662620048190504 0.7489557208113269 0
    outer loop
      vertex 60.2226478010416 53.28049801290035 0
      vertex 104.3609859496355 92.33080090582371 6
      vertex 104.3609859496355 92.33080090582371 0
    endloop
  endfacet
  facet normal 0 0 -1
    outer loop
      vertex 62.22734149545431 51.068659372627735 0
      vertex 104.3609859496355 92.33080090582371 0
      vertex 107.83495824038982 88.49786314368248 0
    endloop
  endfacet
  facet normal 0 0 -1
    outer loop
      vertex 62.22734149545431 51.068659372627735 0
      vertex 107.83495824038982 88.49786314368248 0
      vertex 115.99001091718674 77.502047508955 0
    endloop
  endfacet
  facet normal 0 0 1
    outer loop
      vertex 60.2226478010416 53.28049801290035 6
      vertex 104.04681520164013 90.44651656597853 6
      vertex 104.3609859496355 92.33080090582371 6
    endloop
  endfacet
  facet normal 0 0 -1
    outer loop
      vertex 80.25884409248829 4.908841192722321 0
      vertex 80.11237049847841 7.890379793941975 0
      vertex 139.08209628611803 8.506625421345234 0
    endloop
  endfacet
  facet normal 0.06104853951267387 -0.9981347984232237 0
    outer loop
      vertex 80.25884409248829 4.908841192722321 0
      vertex 139.08209628611803 8.506625421345234 0
      vertex 80.25884409248829 4.908841192722321 6
    endloop
  endfacet
  facet normal 0 0 -1
    outer loop
      vertex 80.11237049847841 7.890379793941975 0
      vertex 138.82826936990023 13.673391073942184 0
      vertex 139.08209628611803 8.506625421345234 0
    endloop
  endfacet
  facet normal 0 0 -1
    outer loop
      vertex 80.11237049847841 7.890379793941975 0
      vertex 136.81954661756754 27.215099923312664 0
      vertex 138.82826936990023 13.673391073942184 0
    endloop
  endfacet
  facet normal 0 0 1
    outer loop
      vertex 80.25884409248829 4.908841192722321 6
      vertex 139.08209628611803 8.506625421345234 6
      vertex 81.71927109360695 5.714368097484112 6
    endloop
  endfacet
  facet normal 0 0 -1
    outer loop
      vertex 78.95321507006884 15.704770922660828 0
      vertex 133.49317683279514 40.494712479412556 0
      vertex 136.81954661756754 27.215099923312664 0
    endloop
  endfacet
  facet normal 0 0 -1
    outer loop
      vertex 74.37230236828327 30.80601630359888 0
      vertex 128.8811947852373 53.384338818490505 0
      vertex 133.49317683279514 40.494712479412556 0
    endloop
  endfacet
  facet normal 0.06104853951267387 -0.9981347984232237 0
    outer loop
      vertex 80.25884409248829 4.908841192722321 6
      vertex 139.08209628611803 8.506625421345234 0
      vertex 139.08209628611803 8.506625421345234 6
    endloop
  endfacet
  facet normal 0.9987954562410916 0.04906767359626704 0
    outer loop
      vertex 139.08209628611803 8.506625421345234 0
      vertex 138.82826936990023 13.673391073942184 0
      vertex 139.08209628611803 8.506625421345234 6
    endloop
  endfacet
  facet normal 0.9987954562410916 0.04906767359626704 0
    outer loop
      vertex 138.82826936990023 13.673391073942184 0
      vertex 138.82826936990023 13.673391073942184 6
      vertex 139.08209628611803 8.506625421345234 6
    endloop
  endfacet
  facet normal 0.989176509994419 0.14673047425555905 0
    outer loop
      vertex 138.82826936990023 13.673391073942184 0
      vertex 136.81954661756754 27.215099923312664 0
      vertex 138.82826936990023 13.673391073942184 6
    endloop
  endfacet
  facet normal 0.9891765099944193 0.1467304742555558 -7.559777379846004e-15
    outer loop
      vertex 138.82826936990023 13.673391073942184 6
      vertex 136.81954661756754 27.215099923312664 0
      vertex 138.0962356333334 18.608361675033333 4.5
    endloop
  endfacet
  facet normal 0.989176509994419 0.14673047425555877 -1.6917593597372433e-15
    outer loop
      vertex 136.81954661756754 27.215099923312664 0
      vertex 137.68538810549464 21.378070733695303 4.5
      vertex 138.0962356333334 18.608361675033333 4.5
    endloop
  endfacet
  facet normal 0.9891765099944188 0.14673047425556004 0
    outer loop
      vertex 136.81954661756754 27.215099923312664 0
      vertex 136.81954661756754 27.215099923312664 6
      vertex 137.68538810549464 21.378070733695303 4.5
    endloop
  endfacet
  facet normal 0 0 1
    outer loop
      vertex 81.71927109360695 5.714368097484112 6
      vertex 139.08209628611803 8.506625421345234 6
      vertex 137.5275537967682 9.616863384842873 6
    endloop
  endfacet
  facet normal 0 0 1
    outer loop
      vertex 137.5275537967682 9.616863384842873 6
      vertex 139.08209628611803 8.506625421345234 6
      vertex 138.82826936990023 13.673391073942184 6
    endloop
  endfacet
  facet normal 0 0 1
    outer loop
      vertex 137.5275537967682 9.616863384842873 6
      vertex 138.82826936990023 13.673391073942184 6
      vertex 137.33549228310585 13.526365362107754 6
    endloop
  endfacet
  facet normal 0 0 1
    outer loop
      vertex 137.33549228310585 13.526365362107754 6
      vertex 138.82826936990023 13.673391073942184 6
      vertex 136.61353873322363 18.393380855879776 6
    endloop
  endfacet
  facet normal 0.9891765099944191 0.14673047425555802 0
    outer loop
      vertex 138.82826936990023 13.673391073942184 6
      vertex 138.0962356333334 18.608361675033333 4.5
      vertex 138.0962356333334 18.608361675033333 6
    endloop
  endfacet
  facet normal 0 0 1
    outer loop
      vertex 138.82826936990023 13.673391073942184 6
      vertex 138.0962356333334 18.608361675033333 6
      vertex 136.61353873322363 18.393380855879776 6
    endloop
  endfacet
  facet normal 0.9891765099944188 0.14673047425556004 0
    outer loop
      vertex 136.81954661756754 27.215099923312664 6
      vertex 137.68538810549464 21.378070733695303 6
      vertex 137.68538810549464 21.378070733695303 4.5
    endloop
  endfacet
  facet normal 0 0 1
    outer loop
      vertex 135.34836869686842 26.922464437782764 6
      vertex 136.20269120468637 21.16308991444047 6
      vertex 137.68538810549464 21.378070733695303 6
    endloop
  endfacet
  facet normal 0 0 1
    outer loop
      vertex 135.34836869686842 26.922464437782764 6
      vertex 137.68538810549464 21.378070733695303 6
      vertex 136.81954661756754 27.215099923312664 6
    endloop
  endfacet
  facet normal 0.9700312531415735 0.2429801801147339 0
    outer loop
      vertex 136.81954661756754 27.215099923312664 0
      vertex 133.49317683279514 40.494712479412556 0
      vertex 136.81954661756754 27.215099923312664 6
    endloop
  endfacet
  facet normal 0.9700312531415735 0.2429801801147339 0
    outer loop
      vertex 133.49317683279514 40.494712479412556 0
      vertex 133.49317683279514 40.494712479412556 6
      vertex 136.81954661756754 27.215099923312664 6
    endloop
  endfacet
  facet normal 0.9415440652333149 0.3368898532516573 2.4077117754431697e-15
    outer loop
      vertex 133.49317683279514 40.494712479412556 0
      vertex 128.8811947852373 53.384338818490505 0
      vertex 133.24700216517894 41.1827245850537 4.5
    endloop
  endfacet
  facet normal 0.94154406523331 0.3368898532516713 0
    outer loop
      vertex 133.49317683279514 40.494712479412556 0
      vertex 133.24700216517894 41.1827245850537 4.5
      vertex 133.49317683279514 40.494712479412556 6
    endloop
  endfacet
  facet normal 0.9415440652333148 0.3368898532516577 2.81800206272105e-15
    outer loop
      vertex 128.8811947852373 53.384338818490505 0
      vertex 132.30317098955473 43.82055601100445 4.5
      vertex 133.24700216517894 41.1827245850537 4.5
    endloop
  endfacet
  facet normal 0 0 1
    outer loop
      vertex 135.34836869686842 26.922464437782764 6
      vertex 133.49317683279514 40.494712479412556 6
      vertex 132.0577663332224 40.05928546190262 6
    endloop
  endfacet
  facet normal 0 0 1
    outer loop
      vertex 135.34836869686842 26.922464437782764 6
      vertex 136.81954661756754 27.215099923312664 6
      vertex 133.49317683279514 40.494712479412556 6
    endloop
  endfacet
  facet normal 0.94154406523331 0.3368898532516713 0
    outer loop
      vertex 133.49317683279514 40.494712479412556 6
      vertex 133.24700216517894 41.1827245850537 4.5
      vertex 133.24700216517894 41.1827245850537 6
    endloop
  endfacet
  facet normal 0 0 1
    outer loop
      vertex 132.0577663332224 40.05928546190262 6
      vertex 133.49317683279514 40.494712479412556 6
      vertex 131.81931306491728 40.725717700999574 6
    endloop
  endfacet
  facet normal 0 0 1
    outer loop
      vertex 133.49317683279514 40.494712479412556 6
      vertex 133.24700216517894 41.1827245850537 6
      vertex 131.81931306491728 40.725717700999574 6
    endloop
  endfacet
  facet normal 0.9415440652333154 0.33688985325165627 0
    outer loop
      vertex 128.8811947852373 53.384338818490505 6
      vertex 132.30317098955473 43.82055601100445 6
      vertex 132.30317098955473 43.82055601100445 4.5
    endloop
  endfacet
  facet normal 0 0 1
    outer loop
      vertex 127.49537548422813 52.810313664376736 6
      vertex 130.87548188787247 43.36354912649559 6
      vertex 132.30317098955473 43.82055601100445 6
    endloop
  endfacet
  facet normal 0 0 -1
    outer loop
      vertex 70.9946617782116 37.947437316179276 0
      vertex 123.02801637351513 65.75984478741884 0
      vertex 128.8811947852373 53.384338818490505 0
    endloop
  endfacet
  facet normal 0 0 -1
    outer loop
      vertex 66.93330378830433 44.72340375930071 0
      vertex 115.99001091718674 77.502047508955 0
      vertex 123.02801637351513 65.75984478741884 0
    endloop
  endfacet
  facet normal 0.7409511252577077 0.6715589549543188 0
    outer loop
      vertex 104.3609859496355 92.33080090582371 0
      vertex 107.83495824038982 88.49786314368248 6
      vertex 107.83495824038982 88.49786314368248 0
    endloop
  endfacet
  facet normal 0.8032075313200573 0.5956993047089607 0
    outer loop
      vertex 107.83495824038982 88.49786314368248 0
      vertex 107.83495824038982 88.49786314368248 6
      vertex 110.80688340002615 84.4906859456065 4.5
    endloop
  endfacet
  facet normal 0.7409511252577077 0.6715589549543188 0
    outer loop
      vertex 104.3609859496355 92.33080090582371 0
      vertex 104.3609859496355 92.33080090582371 6
      vertex 107.83495824038982 88.49786314368248 6
    endloop
  endfacet
  facet normal 0.8032075313200574 0.5956993047089604 0
    outer loop
      vertex 107.83495824038982 88.49786314368248 0
      vertex 115.99001091718674 77.502047508955 6
      vertex 115.99001091718674 77.502047508955 0
    endloop
  endfacet
  facet normal 0.857728610179927 0.5141027438934856 0
    outer loop
      vertex 115.99001091718674 77.502047508955 0
      vertex 115.99001091718674 77.502047508955 6
      vertex 123.02801637351513 65.75984478741884 6
    endloop
  endfacet
  facet normal 0.8032075313200568 0.5956993047089613 8.458796798688089e-16
    outer loop
      vertex 107.83495824038982 88.49786314368248 0
      vertex 110.80688340002615 84.4906859456065 4.5
      vertex 112.47485038450296 82.24169281545753 4.5
    endloop
  endfacet
  facet normal 0.8032075313200585 0.5956993047089589 -3.8225464600695645e-15
    outer loop
      vertex 107.83495824038982 88.49786314368248 0
      vertex 112.47485038450296 82.24169281545753 4.5
      vertex 115.99001091718674 77.502047508955 6
    endloop
  endfacet
  facet normal 0 0 1
    outer loop
      vertex 106.67544256150723 87.54627321660519 6
      vertex 109.60644396977182 83.59427530613148 6
      vertex 110.80688340002615 84.4906859456065 6
    endloop
  endfacet
  facet normal 0 0 1
    outer loop
      vertex 106.67544256150723 87.54627321660519 6
      vertex 110.80688340002615 84.4906859456065 6
      vertex 107.83495824038982 88.49786314368248 6
    endloop
  endfacet
  facet normal 0 0 1
    outer loop
      vertex 104.04681520164013 90.44651656597853 6
      vertex 106.67544256150723 87.54627321660519 6
      vertex 107.83495824038982 88.49786314368248 6
    endloop
  endfacet
  facet normal 0 0 1
    outer loop
      vertex 104.04681520164013 90.44651656597853 6
      vertex 107.83495824038982 88.49786314368248 6
      vertex 104.3609859496355 92.33080090582371 6
    endloop
  endfacet
  facet normal 0.803207531320058 0.5956993047089598 0
    outer loop
      vertex 115.99001091718674 77.502047508955 6
      vertex 112.47485038450296 82.24169281545753 4.5
      vertex 112.47485038450296 82.24169281545753 6
    endloop
  endfacet
  facet normal 0 0 1
    outer loop
      vertex 114.74280649423599 76.66869215667248 6
      vertex 115.99001091718674 77.502047508955 6
      vertex 111.27441095331267 81.34528217528359 6
    endloop
  endfacet
  facet normal 0 0 1
    outer loop
      vertex 115.99001091718674 77.502047508955 6
      vertex 112.47485038450296 82.24169281545753 6
      vertex 111.27441095331267 81.34528217528359 6
    endloop
  endfacet
  facet normal 0 0 1
    outer loop
      vertex 114.74280649423599 76.66869215667248 6
      vertex 121.70513448119164 65.05274967849255 6
      vertex 115.99001091718674 77.502047508955 6
    endloop
  endfacet
  facet normal 0.8032075313200573 0.5956993047089607 0
    outer loop
      vertex 107.83495824038982 88.49786314368248 6
      vertex 110.80688340002615 84.4906859456065 6
      vertex 110.80688340002615 84.4906859456065 4.5
    endloop
  endfacet
  facet normal 0.9039892929939586 0.42755509370405426 0
    outer loop
      vertex 128.8811947852373 53.384338818490505 0
      vertex 123.02801637351513 65.75984478741884 0
      vertex 128.8811947852373 53.384338818490505 6
    endloop
  endfacet
  facet normal 0.857728610179927 0.5141027438934856 0
    outer loop
      vertex 115.99001091718674 77.502047508955 0
      vertex 123.02801637351513 65.75984478741884 6
      vertex 123.02801637351513 65.75984478741884 0
    endloop
  endfacet
  facet normal 0.9039892929939587 0.42755509370405437 -3.610565142880074e-16
    outer loop
      vertex 123.02801637351513 65.75984478741884 0
      vertex 123.34044262412594 65.0992749811849 4.5
      vertex 124.53828168884624 62.56665706788608 4.5
    endloop
  endfacet
  facet normal 0.9039892929939577 0.42755509370405637 0
    outer loop
      vertex 123.02801637351513 65.75984478741884 0
      vertex 123.02801637351513 65.75984478741884 6
      vertex 123.34044262412594 65.0992749811849 4.5
    endloop
  endfacet
  facet normal 0.9039892929939588 0.42755509370405403 -7.033250334110828e-16
    outer loop
      vertex 123.02801637351513 65.75984478741884 0
      vertex 124.53828168884624 62.56665706788608 4.5
      vertex 128.8811947852373 53.384338818490505 6
    endloop
  endfacet
  facet normal 0.9415440652333154 0.33688985325165627 0
    outer loop
      vertex 128.8811947852373 53.384338818490505 0
      vertex 128.8811947852373 53.384338818490505 6
      vertex 132.30317098955473 43.82055601100445 4.5
    endloop
  endfacet
  facet normal 0.9039892929939588 0.42755509370405415 0
    outer loop
      vertex 128.8811947852373 53.384338818490505 6
      vertex 124.53828168884624 62.56665706788608 4.5
      vertex 124.53828168884624 62.56665706788608 6
    endloop
  endfacet
  facet normal 0 0 1
    outer loop
      vertex 127.49537548422813 52.810313664376736 6
      vertex 128.8811947852373 53.384338818490505 6
      vertex 123.20560037576685 61.88028108934972 6
    endloop
  endfacet
  facet normal 0 0 1
    outer loop
      vertex 128.8811947852373 53.384338818490505 6
      vertex 124.53828168884624 62.56665706788608 6
      vertex 123.20560037576685 61.88028108934972 6
    endloop
  endfacet
  facet normal 0 0 1
    outer loop
      vertex 121.70513448119164 65.05274967849255 6
      vertex 122.00776131225768 64.41289900327232 6
      vertex 123.34044262412594 65.0992749811849 6
    endloop
  endfacet
  facet normal 0.9039892929939577 0.42755509370405637 0
    outer loop
      vertex 123.02801637351513 65.75984478741884 6
      vertex 123.34044262412594 65.0992749811849 6
      vertex 123.34044262412594 65.0992749811849 4.5
    endloop
  endfacet
  facet normal 0 0 1
    outer loop
      vertex 115.99001091718674 77.502047508955 6
      vertex 121.70513448119164 65.05274967849255 6
      vertex 123.02801637351513 65.75984478741884 6
    endloop
  endfacet
  facet normal 0 0 1
    outer loop
      vertex 121.70513448119164 65.05274967849255 6
      vertex 123.34044262412594 65.0992749811849 6
      vertex 123.02801637351513 65.75984478741884 6
    endloop
  endfacet
  facet normal 0 0 1
    outer loop
      vertex 127.49537548422813 52.810313664376736 6
      vertex 132.30317098955473 43.82055601100445 6
      vertex 128.8811947852373 53.384338818490505 6
    endloop
  endfacet
  facet normal 0.9700312532662808 0.24298017961687496 9.404657099569882e-16
    outer loop
      vertex 78.4691075310111 23.803343534469604 1.5
      vertex 78.5050884038847 23.659699837842894 4.5
      vertex 80.42439299076796 15.997406408190727 1.5
    endloop
  endfacet
  facet normal 0.9700312532662806 0.2429801796168753 0
    outer loop
      vertex 80.42439299076796 15.997406408190727 1.5
      vertex 78.5050884038847 23.659699837842894 6
      vertex 80.42439299076796 15.997406408190727 6
    endloop
  endfacet
  facet normal 0.9700312532662806 0.2429801796168753 0
    outer loop
      vertex 80.42439299076796 15.997406408190727 1.5
      vertex 78.5050884038847 23.659699837842894 4.5
      vertex 78.5050884038847 23.659699837842894 6
    endloop
  endfacet
  facet normal 0.9700312532662854 0.24298017961685647 0
    outer loop
      vertex 78.4691075310111 23.803343534469604 1.5
      vertex 78.4691075310111 23.803343534469604 4.5
      vertex 78.5050884038847 23.659699837842894 4.5
    endloop
  endfacet
  facet normal 0.941544065231257 0.3368898532574087 0
    outer loop
      vertex 78.4691075310111 23.803343534469604 1.5
      vertex 77.57508870980776 26.30195875594346 4.5
      vertex 78.4691075310111 23.803343534469604 4.5
    endloop
  endfacet
  facet normal 0.8032075313291461 0.5956993046967057 1.4716333833710002e-16
    outer loop
      vertex 68.18050821125507 45.55675910413265 1.5
      vertex 63.38685717433691 52.02024929970503 1.5
      vertex 66.4580056069381 47.879285005393974 4.5
    endloop
  endfacet
  facet normal 0.8577286100105702 0.5141027441760403 0
    outer loop
      vertex 68.18050821125507 45.55675910413265 1.5
      vertex 68.18050821125507 45.55675910413265 6
      vertex 72.31754367798567 38.65453241765499 1.5
    endloop
  endfacet
  facet normal 0.803207531329146 0.595699304696706 0
    outer loop
      vertex 68.18050821125507 45.55675910413265 1.5
      vertex 66.4580056069381 47.879285005393974 4.5
      vertex 66.4580056069381 47.879285005393974 6
    endloop
  endfacet
  facet normal 0.803207531329146 0.595699304696706 0
    outer loop
      vertex 68.18050821125507 45.55675910413265 1.5
      vertex 66.4580056069381 47.879285005393974 6
      vertex 68.18050821125507 45.55675910413265 6
    endloop
  endfacet
  facet normal 0.9039892930662701 0.427555093551165 -1.7659600603596498e-15
    outer loop
      vertex 75.75812166929245 31.38004145026207 1.5
      vertex 72.31754367798567 38.65453241765499 1.5
      vertex 73.45216467230605 36.25557788284932 4.5
    endloop
  endfacet
  facet normal 0.9039892930662704 0.42755509355116406 0
    outer loop
      vertex 75.75812166929245 31.38004145026207 1.5
      vertex 73.45216467230605 36.25557788284932 4.5
      vertex 73.45216467230605 36.25557788284932 6
    endloop
  endfacet
  facet normal 0.9039892930662704 0.42755509355116406 0
    outer loop
      vertex 75.75812166929245 31.38004145026207 1.5
      vertex 73.45216467230605 36.25557788284932 6
      vertex 75.75812166929245 31.38004145026207 6
    endloop
  endfacet
  facet normal 0.9415440652312568 0.3368898532574095 0
    outer loop
      vertex 78.4691075310111 23.803343534469604 1.5
      vertex 75.75812166929245 31.38004145026207 1.5
      vertex 75.75812166929245 31.38004145026207 6
    endloop
  endfacet
  facet normal 0.9415440652312564 0.33688985325741017 -1.3832903850373586e-15
    outer loop
      vertex 78.4691075310111 23.803343534469604 1.5
      vertex 75.75812166929245 31.38004145026207 6
      vertex 77.57508870980776 26.30195875594346 4.5
    endloop
  endfacet
  facet normal 0.8577286100105668 0.5141027441760461 0
    outer loop
      vertex 72.31754367798567 38.65453241765499 1.5
      vertex 72.2414145636367 38.78154617156236 4.5
      vertex 72.31754367798567 38.65453241765499 4.5
    endloop
  endfacet
  facet normal 0.9039892930662692 0.4275550935511668 0
    outer loop
      vertex 72.31754367798567 38.65453241765499 1.5
      vertex 72.31754367798567 38.65453241765499 4.5
      vertex 73.45216467230605 36.25557788284932 4.5
    endloop
  endfacet
  facet normal 0.8577286100105703 0.5141027441760402 3.405167188750425e-16
    outer loop
      vertex 72.31754367798567 38.65453241765499 1.5
      vertex 68.18050821125507 45.55675910413265 6
      vertex 72.2414145636367 38.78154617156236 4.5
    endloop
  endfacet
  facet normal 0.9415440652312568 0.3368898532574099 0
    outer loop
      vertex 75.75812166929245 31.38004145026207 6
      vertex 77.57508870980776 26.30195875594346 6
      vertex 77.57508870980776 26.30195875594346 4.5
    endloop
  endfacet
  facet normal 0.8577286100105703 0.5141027441760402 0
    outer loop
      vertex 68.18050821125507 45.55675910413265 6
      vertex 72.2414145636367 38.78154617156236 6
      vertex 72.2414145636367 38.78154617156236 4.5
    endloop
  endfacet
  facet normal 0.9987954562353438 0.0490676737132651 0
    outer loop
      vertex 81.71927109360695 5.714368097484112 1.5
      vertex 81.60514758527279 8.037405505776405 1.5
      vertex 81.60514758527279 8.037405505776405 6
    endloop
  endfacet
  facet normal 0.9987954562353438 0.0490676737132651 0
    outer loop
      vertex 81.71927109360695 5.714368097484112 1.5
      vertex 81.60514758527279 8.037405505776405 6
      vertex 81.71927109360695 5.714368097484112 6
    endloop
  endfacet
  facet normal 0.9891765099676832 0.14673047443579607 0
    outer loop
      vertex 81.60514758527279 8.037405505776405 1.5
      vertex 81.25952106176362 10.367430264380037 4.5
      vertex 81.25952106176362 10.367430264380037 6
    endloop
  endfacet
  facet normal 0.9891765099676832 0.14673047443579607 0
    outer loop
      vertex 81.60514758527279 8.037405505776405 1.5
      vertex 81.25952106176362 10.367430264380037 6
      vertex 81.60514758527279 8.037405505776405 6
    endloop
  endfacet
  facet normal 0.989176509967684 0.14673047443579113 3.912193519390051e-15
    outer loop
      vertex 81.60514758527279 8.037405505776405 1.5
      vertex 80.84867353341996 13.137139322968794 4.5
      vertex 81.25952106176362 10.367430264380037 4.5
    endloop
  endfacet
  facet normal 0.9891765099676836 0.14673047443579357 0
    outer loop
      vertex 81.60514758527279 8.037405505776405 1.5
      vertex 80.42439299076796 15.997406408190727 1.5
      vertex 80.42439299076796 15.997406408190727 6
    endloop
  endfacet
  facet normal 0.9891765099676829 0.1467304744357982 -8.491282823787512e-15
    outer loop
      vertex 81.60514758527279 8.037405505776405 1.5
      vertex 80.42439299076796 15.997406408190727 6
      vertex 80.84867353341996 13.137139322968794 4.5
    endloop
  endfacet
  facet normal 0 0 1
    outer loop
      vertex 81.60514758527279 8.037405505776405 1.5
      vertex 135.34836869686842 26.922464437782764 1.5
      vertex 80.42439299076796 15.997406408190727 1.5
    endloop
  endfacet
  facet normal 0 0 1
    outer loop
      vertex 78.4691075310111 23.803343534469604 1.5
      vertex 80.42439299076796 15.997406408190727 1.5
      vertex 135.34836869686842 26.922464437782764 1.5
    endloop
  endfacet
  facet normal 0.9891765099676836 0.1467304744357939 0
    outer loop
      vertex 80.42439299076796 15.997406408190727 6
      vertex 80.84867353341996 13.137139322968794 6
      vertex 80.84867353341996 13.137139322968794 4.5
    endloop
  endfacet
  facet normal 0 0 1
    outer loop
      vertex 78.4691075310111 23.803343534469604 1.5
      vertex 132.0577663332224 40.05928546190262 1.5
      vertex 75.75812166929245 31.38004145026207 1.5
    endloop
  endfacet
  facet normal 0 0 1
    outer loop
      vertex 75.75812166929245 31.38004145026207 1.5
      vertex 127.49537548422813 52.810313664376736 1.5
      vertex 72.31754367798567 38.65453241765499 1.5
    endloop
  endfacet
  facet normal 0.7409511235584102 0.6715589568292045 0
    outer loop
      vertex 61.82491917908192 53.74358230084181 1.5
      vertex 61.82491917908192 53.74358230084181 6
      vertex 63.38685717433691 52.02024929970503 1.5
    endloop
  endfacet
  facet normal 0.8032075313291459 0.5956993046967061 8.45879679868768e-16
    outer loop
      vertex 63.38685717433691 52.02024929970503 1.5
      vertex 64.79003862249553 50.12827813556851 4.5
      vertex 66.4580056069381 47.879285005393974 4.5
    endloop
  endfacet
  facet normal 0.8032075313291466 0.5956993046967053 0
    outer loop
      vertex 63.38685717433691 52.02024929970503 1.5
      vertex 63.38685717433691 52.02024929970503 6
      vertex 64.79003862249553 50.12827813556851 4.5
    endloop
  endfacet
  facet normal 0.7409511235584102 0.6715589568292045 0
    outer loop
      vertex 63.38685717433691 52.02024929970503 1.5
      vertex 61.82491917908192 53.74358230084181 6
      vertex 63.38685717433691 52.02024929970503 6
    endloop
  endfacet
  facet normal 0 0 1
    outer loop
      vertex 61.82491917908192 53.74358230084181 1.5
      vertex 63.38685717433691 52.02024929970503 1.5
      vertex 104.04681520164013 90.44651656597853 1.5
    endloop
  endfacet
  facet normal 0.6560590290645371 -0.7547095801584189 0
    outer loop
      vertex 61.82491917908192 53.74358230084181 1.5
      vertex 104.04681520164013 90.44651656597853 6
      vertex 61.82491917908192 53.74358230084181 6
    endloop
  endfacet
  facet normal 0.8032075313291465 0.5956993046967052 0
    outer loop
      vertex 63.38685717433691 52.02024929970503 6
      vertex 64.79003862249553 50.12827813556851 6
      vertex 64.79003862249553 50.12827813556851 4.5
    endloop
  endfacet
  facet normal 0 0 1
    outer loop
      vertex 68.18050821125507 45.55675910413265 1.5
      vertex 114.74280649423599 76.66869215667248 1.5
      vertex 63.38685717433691 52.02024929970503 1.5
    endloop
  endfacet
  facet normal 0 0 1
    outer loop
      vertex 68.18050821125507 45.55675910413265 1.5
      vertex 72.31754367798567 38.65453241765499 1.5
      vertex 121.70513448119164 65.05274967849255 1.5
    endloop
  endfacet
  facet normal 0 0 1
    outer loop
      vertex 63.38685717433691 52.02024929970503 1.5
      vertex 106.67544256150723 87.54627321660519 1.5
      vertex 104.04681520164013 90.44651656597853 1.5
    endloop
  endfacet
  facet normal 0 0 1
    outer loop
      vertex 63.38685717433691 52.02024929970503 1.5
      vertex 114.74280649423599 76.66869215667248 1.5
      vertex 106.67544256150723 87.54627321660519 1.5
    endloop
  endfacet
  facet normal 0.6560590290645371 -0.7547095801584189 0
    outer loop
      vertex 61.82491917908192 53.74358230084181 1.5
      vertex 104.04681520164013 90.44651656597853 1.5
      vertex 104.04681520164013 90.44651656597853 6
    endloop
  endfacet
  facet normal 0 0 1
    outer loop
      vertex 81.71927109360695 5.714368097484112 1.5
      vertex 137.5275537967682 9.616863384842873 1.5
      vertex 81.60514758527279 8.037405505776405 1.5
    endloop
  endfacet
  facet normal -0.06975647370649579 0.9975640502624555 0
    outer loop
      vertex 81.71927109360695 5.714368097484112 1.5
      vertex 81.71927109360695 5.714368097484112 6
      vertex 137.5275537967682 9.616863384842873 1.5
    endloop
  endfacet
  facet normal 0 0 1
    outer loop
      vertex 81.60514758527279 8.037405505776405 1.5
      vertex 137.5275537967682 9.616863384842873 1.5
      vertex 137.33549228310585 13.526365362107754 1.5
    endloop
  endfacet
  facet normal -0.06975647370649579 0.9975640502624555 0
    outer loop
      vertex 81.71927109360695 5.714368097484112 6
      vertex 137.5275537967682 9.616863384842873 6
      vertex 137.5275537967682 9.616863384842873 1.5
    endloop
  endfacet
  facet normal 0 0 1
    outer loop
      vertex 81.60514758527279 8.037405505776405 1.5
      vertex 137.33549228310585 13.526365362107754 1.5
      vertex 135.34836869686842 26.922464437782764 1.5
    endloop
  endfacet
  facet normal 0 0 1
    outer loop
      vertex 78.4691075310111 23.803343534469604 1.5
      vertex 135.34836869686842 26.922464437782764 1.5
      vertex 132.0577663332224 40.05928546190262 1.5
    endloop
  endfacet
  facet normal 0 0 1
    outer loop
      vertex 75.75812166929245 31.38004145026207 1.5
      vertex 132.0577663332224 40.05928546190262 1.5
      vertex 127.49537548422813 52.810313664376736 1.5
    endloop
  endfacet
  facet normal -0.9987954562383294 -0.04906767365249044 0
    outer loop
      vertex 137.5275537967682 9.616863384842873 1.5
      vertex 137.5275537967682 9.616863384842873 6
      vertex 137.33549228310585 13.526365362107754 1.5
    endloop
  endfacet
  facet normal -0.9987954562383294 -0.04906767365249044 0
    outer loop
      vertex 137.33549228310585 13.526365362107754 1.5
      vertex 137.5275537967682 9.616863384842873 6
      vertex 137.33549228310585 13.526365362107754 6
    endloop
  endfacet
  facet normal -0.9891765099574328 -0.14673047450489946 0
    outer loop
      vertex 137.33549228310585 13.526365362107754 1.5
      vertex 137.33549228310585 13.526365362107754 6
      vertex 135.34836869686842 26.922464437782764 1.5
    endloop
  endfacet
  facet normal -0.9891765099574318 -0.14673047450490623 -2.0415684791345502e-14
    outer loop
      vertex 137.33549228310585 13.526365362107754 6
      vertex 136.61353873322363 18.393380855879776 4.5
      vertex 135.34836869686842 26.922464437782764 1.5
    endloop
  endfacet
  facet normal -0.989176509957433 -0.14673047450489782 3.806458559405658e-15
    outer loop
      vertex 135.34836869686842 26.922464437782764 1.5
      vertex 136.61353873322363 18.393380855879776 4.5
      vertex 136.20269120468637 21.16308991444047 4.5
    endloop
  endfacet
  facet normal -0.9891765099574328 -0.14673047450489976 0
    outer loop
      vertex 135.34836869686842 26.922464437782764 1.5
      vertex 136.20269120468637 21.16308991444047 4.5
      vertex 136.20269120468637 21.16308991444047 6
    endloop
  endfacet
  facet normal -0.9891765099574328 -0.14673047450489976 0
    outer loop
      vertex 135.34836869686842 26.922464437782764 1.5
      vertex 136.20269120468637 21.16308991444047 6
      vertex 135.34836869686842 26.922464437782764 6
    endloop
  endfacet
  facet normal -0.9891765099574327 -0.1467304745049 0
    outer loop
      vertex 137.33549228310585 13.526365362107754 6
      vertex 136.61353873322363 18.393380855879776 6
      vertex 136.61353873322363 18.393380855879776 4.5
    endloop
  endfacet
  facet normal -0.9700312532165252 -0.24298017981551032 0
    outer loop
      vertex 132.0577663332224 40.05928546190262 1.5
      vertex 135.34836869686842 26.922464437782764 6
      vertex 132.0577663332224 40.05928546190262 6
    endloop
  endfacet
  facet normal -0.9700312532165252 -0.24298017981551032 0
    outer loop
      vertex 135.34836869686842 26.922464437782764 1.5
      vertex 135.34836869686842 26.922464437782764 6
      vertex 132.0577663332224 40.05928546190262 1.5
    endloop
  endfacet
  facet normal -0.9415440650540531 -0.3368898537526606 5.257335098169312e-15
    outer loop
      vertex 132.0577663332224 40.05928546190262 1.5
      vertex 131.81931306491728 40.725717700999574 4.5
      vertex 130.87548188787247 43.36354912649559 4.5
    endloop
  endfacet
  facet normal -0.9415440650540605 -0.3368898537526397 0
    outer loop
      vertex 132.0577663332224 40.05928546190262 1.5
      vertex 132.0577663332224 40.05928546190262 6
      vertex 131.81931306491728 40.725717700999574 4.5
    endloop
  endfacet
  facet normal -0.9415440650540554 -0.3368898537526542 -2.798236231929427e-15
    outer loop
      vertex 132.0577663332224 40.05928546190262 1.5
      vertex 130.87548188787247 43.36354912649559 4.5
      vertex 127.49537548422813 52.810313664376736 1.5
    endloop
  endfacet
  facet normal -0.9415440650540556 -0.3368898537526534 0
    outer loop
      vertex 127.49537548422813 52.810313664376736 1.5
      vertex 130.87548188787247 43.36354912649559 4.5
      vertex 130.87548188787247 43.36354912649559 6
    endloop
  endfacet
  facet normal -0.9415440650540605 -0.3368898537526397 0
    outer loop
      vertex 132.0577663332224 40.05928546190262 6
      vertex 131.81931306491728 40.725717700999574 6
      vertex 131.81931306491728 40.725717700999574 4.5
    endloop
  endfacet
  facet normal 0 0 1
    outer loop
      vertex 72.31754367798567 38.65453241765499 1.5
      vertex 127.49537548422813 52.810313664376736 1.5
      vertex 121.70513448119164 65.05274967849255 1.5
    endloop
  endfacet
  facet normal 0 0 1
    outer loop
      vertex 68.18050821125507 45.55675910413265 1.5
      vertex 121.70513448119164 65.05274967849255 1.5
      vertex 114.74280649423599 76.66869215667248 1.5
    endloop
  endfacet
  facet normal -0.8032075315685709 -0.5956993043738789 -8.458796798676523e-16
    outer loop
      vertex 106.67544256150723 87.54627321660519 1.5
      vertex 111.27441095331267 81.34528217528359 4.5
      vertex 109.60644396977182 83.59427530613148 4.5
    endloop
  endfacet
  facet normal -0.8032075315685712 -0.5956993043738785 0
    outer loop
      vertex 106.67544256150723 87.54627321660519 1.5
      vertex 109.60644396977182 83.59427530613148 4.5
      vertex 109.60644396977182 83.59427530613148 6
    endloop
  endfacet
  facet normal -0.8032075315685713 -0.5956993043738785 0
    outer loop
      vertex 106.67544256150723 87.54627321660519 1.5
      vertex 109.60644396977182 83.59427530613148 6
      vertex 106.67544256150723 87.54627321660519 6
    endloop
  endfacet
  facet normal -0.740951123995242 -0.6715589563472352 0
    outer loop
      vertex 104.04681520164013 90.44651656597853 1.5
      vertex 106.67544256150723 87.54627321660519 1.5
      vertex 106.67544256150723 87.54627321660519 6
    endloop
  endfacet
  facet normal -0.740951123995242 -0.6715589563472352 0
    outer loop
      vertex 104.04681520164013 90.44651656597853 1.5
      vertex 106.67544256150723 87.54627321660519 6
      vertex 104.04681520164013 90.44651656597853 6
    endloop
  endfacet
  facet normal -0.8032075315685709 -0.5956993043738786 0
    outer loop
      vertex 106.67544256150723 87.54627321660519 1.5
      vertex 114.74280649423599 76.66869215667248 1.5
      vertex 114.74280649423599 76.66869215667248 6
    endloop
  endfacet
  facet normal -0.8577286099169636 -0.5141027443322135 0
    outer loop
      vertex 114.74280649423599 76.66869215667248 1.5
      vertex 121.70513448119164 65.05274967849255 6
      vertex 114.74280649423599 76.66869215667248 6
    endloop
  endfacet
  facet normal -0.8032075315685706 -0.5956993043738792 -1.2070200054756763e-15
    outer loop
      vertex 106.67544256150723 87.54627321660519 1.5
      vertex 114.74280649423599 76.66869215667248 6
      vertex 111.27441095331267 81.34528217528359 4.5
    endloop
  endfacet
  facet normal -0.803207531568571 -0.5956993043738789 0
    outer loop
      vertex 114.74280649423599 76.66869215667248 6
      vertex 111.27441095331267 81.34528217528359 6
      vertex 111.27441095331267 81.34528217528359 4.5
    endloop
  endfacet
  facet normal -0.9415440650540556 -0.33688985375265335 0
    outer loop
      vertex 127.49537548422813 52.810313664376736 1.5
      vertex 130.87548188787247 43.36354912649559 6
      vertex 127.49537548422813 52.810313664376736 6
    endloop
  endfacet
  facet normal -0.9039892932017454 -0.42755509326472635 0
    outer loop
      vertex 127.49537548422813 52.810313664376736 1.5
      vertex 127.49537548422813 52.810313664376736 6
      vertex 121.70513448119164 65.05274967849255 1.5
    endloop
  endfacet
  facet normal -0.9039892932017455 -0.42755509326472607 -4.491190787411149e-16
    outer loop
      vertex 121.70513448119164 65.05274967849255 1.5
      vertex 123.20560037576685 61.88028108934972 4.5
      vertex 122.00776131225768 64.41289900327232 4.5
    endloop
  endfacet
  facet normal -0.9039892932017463 -0.42755509326472435 0
    outer loop
      vertex 121.70513448119164 65.05274967849255 1.5
      vertex 122.00776131225768 64.41289900327232 6
      vertex 121.70513448119164 65.05274967849255 6
    endloop
  endfacet
  facet normal -0.9039892932017451 -0.42755509326472674 -1.430487107385982e-15
    outer loop
      vertex 121.70513448119164 65.05274967849255 1.5
      vertex 127.49537548422813 52.810313664376736 6
      vertex 123.20560037576685 61.88028108934972 4.5
    endloop
  endfacet
  facet normal -0.9039892932017464 -0.42755509326472435 0
    outer loop
      vertex 121.70513448119164 65.05274967849255 1.5
      vertex 122.00776131225768 64.41289900327232 4.5
      vertex 122.00776131225768 64.41289900327232 6
    endloop
  endfacet
  facet normal -0.8577286099169636 -0.5141027443322135 0
    outer loop
      vertex 114.74280649423599 76.66869215667248 1.5
      vertex 121.70513448119164 65.05274967849255 1.5
      vertex 121.70513448119164 65.05274967849255 6
    endloop
  endfacet
  facet normal -0.9039892932017453 -0.42755509326472657 0
    outer loop
      vertex 127.49537548422813 52.810313664376736 6
      vertex 123.20560037576685 61.88028108934972 6
      vertex 123.20560037576685 61.88028108934972 4.5
    endloop
  endfacet
  facet normal -0.9238795325112861 -0.3826834323650914 0
    outer loop
      vertex 95.92495871339271 37.56863446858168 5.9
      vertex 95.92495871339271 37.56863446858168 6.9
      vertex 94.39422498393235 41.26415259862682 5.9
    endloop
  endfacet
  facet normal -0.9238795325112861 -0.3826834323650914 0
    outer loop
      vertex 95.92495871339271 37.56863446858168 6.9
      vertex 94.39422498393235 41.26415259862682 6.9
      vertex 94.39422498393235 41.26415259862682 5.9
    endloop
  endfacet
  facet normal -0.38268343236508934 0.923879532511287 0
    outer loop
      vertex 94.39422498393235 41.26415259862682 5.9
      vertex 94.39422498393235 41.26415259862682 6.9
      vertex 107.32853843909037 46.62172065173807 6.9
    endloop
  endfacet
  facet normal -0.9206935140037499 -0.38136374028929826 0.08297680919379385
    outer loop
      vertex 95.92495871339271 37.56863446858168 6.9
      vertex 95.50944623262619 41.18489626473627 18.91
      vertex 94.39422498393235 41.26415259862682 6.9
    endloop
  endfacet
  facet normal -0.38235222532427793 0.9230799279814068 0.0415959414776665
    outer loop
      vertex 94.39422498393235 41.26415259862682 6.9
      vertex 95.50944623262619 41.18489626473627 18.91
      vertex 107.32853843909037 46.62172065173807 6.9
    endloop
  endfacet
  facet normal -0.9206935140037512 -0.3813637402892954 0.08297680919379295
    outer loop
      vertex 95.92495871339271 37.56863446858168 6.9
      vertex 96.65749652972146 38.4132576672024 18.91
      vertex 95.50944623262619 41.18489626473627 18.91
    endloop
  endfacet
  facet normal 0 0 -1
    outer loop
      vertex 95.92495871339271 37.56863446858168 5.9
      vertex 94.39422498393235 41.26415259862682 5.9
      vertex 108.85927216855073 42.92620252169293 5.9
    endloop
  endfacet
  facet normal 0.38268343236508934 -0.923879532511287 0
    outer loop
      vertex 95.92495871339271 37.56863446858168 5.9
      vertex 108.85927216855073 42.92620252169293 6.9
      vertex 95.92495871339271 37.56863446858168 6.9
    endloop
  endfacet
  facet normal 0.38268343236508934 -0.923879532511287 0
    outer loop
      vertex 95.92495871339271 37.56863446858168 5.9
      vertex 108.85927216855073 42.92620252169293 5.9
      vertex 108.85927216855073 42.92620252169293 6.9
    endloop
  endfacet
  facet normal 0 0 -1
    outer loop
      vertex 94.39422498393235 41.26415259862682 5.9
      vertex 107.32853843909037 46.62172065173807 5.9
      vertex 108.85927216855073 42.92620252169293 5.9
    endloop
  endfacet
  facet normal -0.38268343236508934 0.923879532511287 0
    outer loop
      vertex 94.39422498393235 41.26415259862682 5.9
      vertex 107.32853843909037 46.62172065173807 6.9
      vertex 107.32853843909037 46.62172065173807 5.9
    endloop
  endfacet
  facet normal 0.9238795325112861 0.3826834323650914 0
    outer loop
      vertex 108.85927216855073 42.92620252169293 5.9
      vertex 107.32853843909037 46.62172065173807 5.9
      vertex 107.32853843909037 46.62172065173807 6.9
    endloop
  endfacet
  facet normal 0.9238795325112861 0.3826834323650914 0
    outer loop
      vertex 108.85927216855073 42.92620252169293 5.9
      vertex 107.32853843909037 46.62172065173807 6.9
      vertex 108.85927216855073 42.92620252169293 6.9
    endloop
  endfacet
  facet normal 0.38235222532427793 -0.9230799279814068 0.041595941477666494
    outer loop
      vertex 95.92495871339271 37.56863446858168 6.9
      vertex 108.85927216855073 42.92620252169293 6.9
      vertex 107.74405091985689 43.005458855583484 18.91
    endloop
  endfacet
  facet normal 0.9206935140037499 0.38136374028929826 0.08297680919379385
    outer loop
      vertex 108.85927216855073 42.92620252169293 6.9
      vertex 107.32853843909037 46.62172065173807 6.9
      vertex 107.74405091985689 43.005458855583484 18.91
    endloop
  endfacet
  facet normal 0.382352225324279 -0.9230799279814063 0.04159594147766523
    outer loop
      vertex 95.92495871339271 37.56863446858168 6.9
      vertex 107.74405091985689 43.005458855583484 18.91
      vertex 96.65749652972146 38.4132576672024 18.91
    endloop
  endfacet
  facet normal -0.382352225324279 0.9230799279814063 0.04159594147766521
    outer loop
      vertex 95.50944623262619 41.18489626473627 18.91
      vertex 106.59600062276162 45.77709745311735 18.91
      vertex 107.32853843909037 46.62172065173807 6.9
    endloop
  endfacet
  facet normal 0.9206935140037512 0.3813637402892954 0.08297680919379295
    outer loop
      vertex 107.32853843909037 46.62172065173807 6.9
      vertex 106.59600062276162 45.77709745311735 18.91
      vertex 107.74405091985689 43.005458855583484 18.91
    endloop
  endfacet
  facet normal 0 0 1
    outer loop
      vertex 96.65749652972146 38.4132576672024 18.91
      vertex 107.74405091985689 43.005458855583484 18.91
      vertex 95.50944623262619 41.18489626473627 18.91
    endloop
  endfacet
  facet normal 0 0 1
    outer loop
      vertex 95.50944623262619 41.18489626473627 18.91
      vertex 107.74405091985689 43.005458855583484 18.91
      vertex 106.59600062276162 45.77709745311735 18.91
    endloop
  endfacet
  facet normal 0.9896513868196707 0.1434926219911758 0
    outer loop
      vertex 79.8678263097711 10.165644128742397 4.5
      vertex 79.46604696819581 12.936668011837472 4.5
      vertex 79.46604696819581 12.936668011837472 6
    endloop
  endfacet
  facet normal 0.9896513868196707 0.1434926219911758 0
    outer loop
      vertex 79.8678263097711 10.165644128742397 4.5
      vertex 79.46604696819581 12.936668011837472 6
      vertex 79.8678263097711 10.165644128742397 6
    endloop
  endfacet
  facet normal 0.1434926219911791 -0.9896513868196702 0
    outer loop
      vertex 79.46604696819581 12.936668011837472 4.5
      vertex 80.84867353341996 13.137139322968794 6
      vertex 79.46604696819581 12.936668011837472 6
    endloop
  endfacet
  facet normal 0 0 1
    outer loop
      vertex 79.8678263097711 10.165644128742397 4.5
      vertex 81.25952106176362 10.367430264380037 4.5
      vertex 79.46604696819581 12.936668011837472 4.5
    endloop
  endfacet
  facet normal 0 0 1
    outer loop
      vertex 79.46604696819581 12.936668011837472 4.5
      vertex 81.25952106176362 10.367430264380037 4.5
      vertex 80.84867353341996 13.137139322968794 4.5
    endloop
  endfacet
  facet normal -0.14349262199118085 0.9896513868196699 0
    outer loop
      vertex 79.8678263097711 10.165644128742397 4.5
      vertex 81.25952106176362 10.367430264380037 6
      vertex 81.25952106176362 10.367430264380037 4.5
    endloop
  endfacet
  facet normal -0.14349262199118085 0.9896513868196699 0
    outer loop
      vertex 79.8678263097711 10.165644128742397 4.5
      vertex 79.8678263097711 10.165644128742397 6
      vertex 81.25952106176362 10.367430264380037 6
    endloop
  endfacet
  facet normal 0.1434926219911791 -0.9896513868196702 0
    outer loop
      vertex 79.46604696819581 12.936668011837472 4.5
      vertex 80.84867353341996 13.137139322968794 4.5
      vertex 80.84867353341996 13.137139322968794 6
    endloop
  endfacet
  facet normal 0 0 1
    outer loop
      vertex 136.20269120468637 21.16308991444047 4.5
      vertex 136.61353873322363 18.393380855879776 4.5
      vertex 138.0962356333334 18.608361675033333 4.5
    endloop
  endfacet
  facet normal 0 0 1
    outer loop
      vertex 136.20269120468637 21.16308991444047 4.5
      vertex 138.0962356333334 18.608361675033333 4.5
      vertex 137.68538810549464 21.378070733695303 4.5
    endloop
  endfacet
  facet normal -0.14349262199117982 0.9896513868196701 0
    outer loop
      vertex 136.61353873322363 18.393380855879776 6
      vertex 138.0962356333334 18.608361675033333 4.5
      vertex 136.61353873322363 18.393380855879776 4.5
    endloop
  endfacet
  facet normal -0.14349262199117982 0.9896513868196701 0
    outer loop
      vertex 138.0962356333334 18.608361675033333 6
      vertex 138.0962356333334 18.608361675033333 4.5
      vertex 136.61353873322363 18.393380855879776 6
    endloop
  endfacet
  facet normal 0.14349262199118026 -0.98965138681967 0
    outer loop
      vertex 136.20269120468637 21.16308991444047 4.5
      vertex 137.68538810549464 21.378070733695303 4.5
      vertex 136.20269120468637 21.16308991444047 6
    endloop
  endfacet
  facet normal 0.14349262199118026 -0.98965138681967 0
    outer loop
      vertex 137.68538810549464 21.378070733695303 6
      vertex 136.20269120468637 21.16308991444047 6
      vertex 137.68538810549464 21.378070733695303 4.5
    endloop
  endfacet
  facet normal 0 0 1
    outer loop
      vertex 77.09467188992312 23.208221952254277 4.5
      vertex 78.4691075310111 23.803343534469604 4.5
      vertex 76.24105185264469 25.87493019125546 4.5
    endloop
  endfacet
  facet normal 0 0 1
    outer loop
      vertex 76.24105185264469 25.87493019125546 4.5
      vertex 78.4691075310111 23.803343534469604 4.5
      vertex 77.57508870980776 26.30195875594346 4.5
    endloop
  endfacet
  facet normal 0 0 1
    outer loop
      vertex 77.09467188992312 23.208221952254277 4.5
      vertex 78.5050884038847 23.659699837842894 4.5
      vertex 78.4691075310111 23.803343534469604 4.5
    endloop
  endfacet
  facet normal 0.9523957996432783 0.3048642990280112 0
    outer loop
      vertex 77.09467188992312 23.208221952254277 4.5
      vertex 76.24105185264469 25.87493019125546 4.5
      vertex 76.24105185264469 25.87493019125546 6
    endloop
  endfacet
  facet normal 0.304864299028011 -0.9523957996432783 0
    outer loop
      vertex 76.24105185264469 25.87493019125546 4.5
      vertex 77.57508870980776 26.30195875594346 4.5
      vertex 77.57508870980776 26.30195875594346 6
    endloop
  endfacet
  facet normal 0.9523957996432783 0.3048642990280112 0
    outer loop
      vertex 77.09467188992312 23.208221952254277 4.5
      vertex 76.24105185264469 25.87493019125546 6
      vertex 77.09467188992312 23.208221952254277 6
    endloop
  endfacet
  facet normal 0.304864299028011 -0.9523957996432783 0
    outer loop
      vertex 76.24105185264469 25.87493019125546 4.5
      vertex 77.57508870980776 26.30195875594346 6
      vertex 76.24105185264469 25.87493019125546 6
    endloop
  endfacet
  facet normal -0.3048642990280105 0.9523957996432785 0
    outer loop
      vertex 77.09467188992312 23.208221952254277 4.5
      vertex 78.5050884038847 23.659699837842894 6
      vertex 78.5050884038847 23.659699837842894 4.5
    endloop
  endfacet
  facet normal -0.3048642990280105 0.9523957996432785 0
    outer loop
      vertex 77.09467188992312 23.208221952254277 4.5
      vertex 77.09467188992312 23.208221952254277 6
      vertex 78.5050884038847 23.659699837842894 6
    endloop
  endfacet
  facet normal 0 0 1
    outer loop
      vertex 133.24700216517894 41.1827245850537 4.5
      vertex 130.87548188787247 43.36354912649559 4.5
      vertex 131.81931306491728 40.725717700999574 4.5
    endloop
  endfacet
  facet normal 0 0 1
    outer loop
      vertex 132.30317098955473 43.82055601100445 4.5
      vertex 130.87548188787247 43.36354912649559 4.5
      vertex 133.24700216517894 41.1827245850537 4.5
    endloop
  endfacet
  facet normal -0.30486429902801593 0.9523957996432767 0
    outer loop
      vertex 133.24700216517894 41.1827245850537 6
      vertex 133.24700216517894 41.1827245850537 4.5
      vertex 131.81931306491728 40.725717700999574 4.5
    endloop
  endfacet
  facet normal -0.30486429902801593 0.9523957996432767 0
    outer loop
      vertex 131.81931306491728 40.725717700999574 4.5
      vertex 131.81931306491728 40.725717700999574 6
      vertex 133.24700216517894 41.1827245850537 6
    endloop
  endfacet
  facet normal 0.3048642990280128 -0.9523957996432777 0
    outer loop
      vertex 130.87548188787247 43.36354912649559 4.5
      vertex 132.30317098955473 43.82055601100445 4.5
      vertex 130.87548188787247 43.36354912649559 6
    endloop
  endfacet
  facet normal 0.3048642990280128 -0.9523957996432777 0
    outer loop
      vertex 130.87548188787247 43.36354912649559 6
      vertex 132.30317098955473 43.82055601100445 4.5
      vertex 132.30317098955473 43.82055601100445 6
    endloop
  endfacet
  facet normal 0 0 1
    outer loop
      vertex 72.20690337076552 35.61422616883499 4.5
      vertex 73.45216467230605 36.25557788284932 4.5
      vertex 70.92485640843803 38.10347416499505 4.5
    endloop
  endfacet
  facet normal 0 0 1
    outer loop
      vertex 70.92485640843803 38.10347416499505 4.5
      vertex 73.45216467230605 36.25557788284932 4.5
      vertex 72.31754367798567 38.65453241765499 4.5
    endloop
  endfacet
  facet normal 0 0 1
    outer loop
      vertex 70.92485640843803 38.10347416499505 4.5
      vertex 72.31754367798567 38.65453241765499 4.5
      vertex 72.2414145636367 38.78154617156236 4.5
    endloop
  endfacet
  facet normal 0.8890171414857355 0.4578739151169587 0
    outer loop
      vertex 72.20690337076552 35.61422616883499 4.5
      vertex 70.92485640843803 38.10347416499505 4.5
      vertex 70.92485640843803 38.10347416499505 6
    endloop
  endfacet
  facet normal 0.8890171414857355 0.4578739151169587 0
    outer loop
      vertex 72.20690337076552 35.61422616883499 4.5
      vertex 70.92485640843803 38.10347416499505 6
      vertex 72.20690337076552 35.61422616883499 6
    endloop
  endfacet
  facet normal -0.4578739151169553 0.8890171414857373 0
    outer loop
      vertex 72.20690337076552 35.61422616883499 4.5
      vertex 73.45216467230605 36.25557788284932 6
      vertex 73.45216467230605 36.25557788284932 4.5
    endloop
  endfacet
  facet normal -0.4578739151169553 0.8890171414857373 0
    outer loop
      vertex 72.20690337076552 35.61422616883499 4.5
      vertex 72.20690337076552 35.61422616883499 6
      vertex 73.45216467230605 36.25557788284932 6
    endloop
  endfacet
  facet normal 0.45787391511695646 -0.8890171414857366 0
    outer loop
      vertex 70.92485640843803 38.10347416499505 4.5
      vertex 72.2414145636367 38.78154617156236 4.5
      vertex 72.2414145636367 38.78154617156236 6
    endloop
  endfacet
  facet normal 0.45787391511695646 -0.8890171414857366 0
    outer loop
      vertex 70.92485640843803 38.10347416499505 4.5
      vertex 72.2414145636367 38.78154617156236 6
      vertex 70.92485640843803 38.10347416499505 6
    endloop
  endfacet
  facet normal 0 0 1
    outer loop
      vertex 122.00776131225768 64.41289900327232 4.5
      vertex 123.20560037576685 61.88028108934972 4.5
      vertex 124.53828168884624 62.56665706788608 4.5
    endloop
  endfacet
  facet normal 0 0 1
    outer loop
      vertex 122.00776131225768 64.41289900327232 4.5
      vertex 124.53828168884624 62.56665706788608 4.5
      vertex 123.34044262412594 65.0992749811849 4.5
    endloop
  endfacet
  facet normal -0.4578739151169551 0.8890171414857372 0
    outer loop
      vertex 123.20560037576685 61.88028108934972 6
      vertex 124.53828168884624 62.56665706788608 4.5
      vertex 123.20560037576685 61.88028108934972 4.5
    endloop
  endfacet
  facet normal 0.45787391511696096 -0.8890171414857344 0
    outer loop
      vertex 122.00776131225768 64.41289900327232 4.5
      vertex 123.34044262412594 65.0992749811849 4.5
      vertex 122.00776131225768 64.41289900327232 6
    endloop
  endfacet
  facet normal 0.45787391511696096 -0.8890171414857344 0
    outer loop
      vertex 123.34044262412594 65.0992749811849 6
      vertex 122.00776131225768 64.41289900327232 6
      vertex 123.34044262412594 65.0992749811849 4.5
    endloop
  endfacet
  facet normal -0.4578739151169551 0.8890171414857372 0
    outer loop
      vertex 124.53828168884624 62.56665706788608 6
      vertex 124.53828168884624 62.56665706788608 4.5
      vertex 123.20560037576685 61.88028108934972 6
    endloop
  endfacet
  facet normal 0 0 1
    outer loop
      vertex 65.33858636242931 47.043375008170564 4.5
      vertex 66.4580056069381 47.879285005393974 4.5
      vertex 63.66327748083146 49.28688568370553 4.5
    endloop
  endfacet
  facet normal 0.8012538126910591 0.5983246005706612 0
    outer loop
      vertex 65.33858636242931 47.043375008170564 4.5
      vertex 63.66327748083146 49.28688568370553 4.5
      vertex 63.66327748083146 49.28688568370553 6
    endloop
  endfacet
  facet normal 0.8012538126910591 0.5983246005706612 0
    outer loop
      vertex 65.33858636242931 47.043375008170564 4.5
      vertex 63.66327748083146 49.28688568370553 6
      vertex 65.33858636242931 47.043375008170564 6
    endloop
  endfacet
  facet normal -0.5983246005706594 0.8012538126910604 0
    outer loop
      vertex 65.33858636242931 47.043375008170564 4.5
      vertex 66.4580056069381 47.879285005393974 6
      vertex 66.4580056069381 47.879285005393974 4.5
    endloop
  endfacet
  facet normal -0.5983246005706594 0.8012538126910604 0
    outer loop
      vertex 65.33858636242931 47.043375008170564 4.5
      vertex 65.33858636242931 47.043375008170564 6
      vertex 66.4580056069381 47.879285005393974 6
    endloop
  endfacet
  facet normal 0 0 1
    outer loop
      vertex 63.66327748083146 49.28688568370553 4.5
      vertex 66.4580056069381 47.879285005393974 4.5
      vertex 64.79003862249553 50.12827813556851 4.5
    endloop
  endfacet
  facet normal 0.5983246005706582 -0.8012538126910613 0
    outer loop
      vertex 63.66327748083146 49.28688568370553 4.5
      vertex 64.79003862249553 50.12827813556851 4.5
      vertex 64.79003862249553 50.12827813556851 6
    endloop
  endfacet
  facet normal 0.5983246005706582 -0.8012538126910613 0
    outer loop
      vertex 63.66327748083146 49.28688568370553 4.5
      vertex 64.79003862249553 50.12827813556851 6
      vertex 63.66327748083146 49.28688568370553 6
    endloop
  endfacet
  facet normal 0 0 1
    outer loop
      vertex 109.60644396977182 83.59427530613148 4.5
      vertex 111.27441095331267 81.34528217528359 4.5
      vertex 112.47485038450296 82.24169281545753 4.5
    endloop
  endfacet
  facet normal 0 0 1
    outer loop
      vertex 109.60644396977182 83.59427530613148 4.5
      vertex 112.47485038450296 82.24169281545753 4.5
      vertex 110.80688340002615 84.4906859456065 4.5
    endloop
  endfacet
  facet normal 0.5983246005706584 -0.8012538126910612 0
    outer loop
      vertex 109.60644396977182 83.59427530613148 4.5
      vertex 110.80688340002615 84.4906859456065 4.5
      vertex 109.60644396977182 83.59427530613148 6
    endloop
  endfacet
  facet normal -0.5983246005706615 0.8012538126910589 0
    outer loop
      vertex 111.27441095331267 81.34528217528359 6
      vertex 112.47485038450296 82.24169281545753 4.5
      vertex 111.27441095331267 81.34528217528359 4.5
    endloop
  endfacet
  facet normal 0.5983246005706584 -0.8012538126910612 0
    outer loop
      vertex 110.80688340002615 84.4906859456065 6
      vertex 109.60644396977182 83.59427530613148 6
      vertex 110.80688340002615 84.4906859456065 4.5
    endloop
  endfacet
  facet normal -0.5983246005706615 0.8012538126910589 0
    outer loop
      vertex 112.47485038450296 82.24169281545753 6
      vertex 112.47485038450296 82.24169281545753 4.5
      vertex 111.27441095331267 81.34528217528359 6
    endloop
  endfacet
endsolid OpenSCAD_Model
