solid OpenSCAD_Model
  facet normal -0.9573194975320675 -0.2890317969444709 0
    outer loop
      vertex 77.62943151142639 28.660623915273685 2.5
      vertex 80.5197494808711 19.08742893995301 2.5
      vertex 80.5197494808711 19.08742893995301 3.5999999999999996
    endloop
  endfacet
  facet normal -0.9573194975320675 -0.2890317969444709 0
    outer loop
      vertex 77.62943151142639 28.660623915273685 2.5
      vertex 80.5197494808711 19.08742893995301 3.5999999999999996
      vertex 77.62943151142639 28.660623915273685 3.5999999999999996
    endloop
  endfacet
  facet normal -0.28903179694447106 0.9573194975320674 0
    outer loop
      vertex 77.62943151142639 28.660623915273685 2.5
      vertex 77.62943151142639 28.660623915273685 3.5999999999999996
      vertex 80.9002731279943 29.64814922150063 2.5
    endloop
  endfacet
  facet normal 0.28903179694447106 -0.9573194975320675 1.440714456185682e-15
    outer loop
      vertex 80.5197494808711 19.08742893995301 2.5
      vertex 83.790591097439 20.074954246179956 2.5
      vertex 89.08704831599 21.674048959349147 5.747821835582809
    endloop
  endfacet
  facet normal 0.22341247760125243 0.06745220381217956 -0.9723873019805175
    outer loop
      vertex 83.790591097439 20.074954246179956 2.5
      vertex 80.9002731279943 29.64814922150063 2.5
      vertex 89.08704831599 21.674048959349147 3.8278218355828066
    endloop
  endfacet
  facet normal 0.28903179694447156 -0.9573194975320671 0
    outer loop
      vertex 80.5197494808711 19.08742893995301 2.5
      vertex 89.08704831599 21.674048959349147 5.747821835582809
      vertex 80.5197494808711 19.08742893995301 3.5999999999999996
    endloop
  endfacet
  facet normal -0.22341247760125227 -0.06745220381217952 0.9723873019805174
    outer loop
      vertex 77.62943151142639 28.660623915273685 3.5999999999999996
      vertex 80.5197494808711 19.08742893995301 3.5999999999999996
      vertex 85.24119845677058 30.95875184832737 5.508269988851251
    endloop
  endfacet
  facet normal 0.28903179694447195 -0.9573194975320672 0
    outer loop
      vertex 83.790591097439 20.074954246179956 2.5
      vertex 89.08704831599 21.674048959349147 3.8278218355828066
      vertex 89.08704831599 21.674048959349147 5.747821835582809
    endloop
  endfacet
  facet normal 0.22341247760125213 0.06745220381217928 -0.9723873019805175
    outer loop
      vertex 89.08704831599 21.674048959349147 3.8278218355828066
      vertex 80.9002731279943 29.64814922150063 2.5
      vertex 85.24119845677058 30.958751848327367 3.5882699888512484
    endloop
  endfacet
  facet normal -0.28903179694447145 0.9573194975320675 -1.0472320248186082e-15
    outer loop
      vertex 77.62943151142639 28.660623915273685 3.5999999999999996
      vertex 85.24119845677058 30.95875184832737 5.508269988851251
      vertex 80.9002731279943 29.64814922150063 2.5
    endloop
  endfacet
  facet normal -0.28903179694447095 0.9573194975320674 -1.734293108509804e-15
    outer loop
      vertex 80.9002731279943 29.64814922150063 2.5
      vertex 85.24119845677058 30.95875184832737 5.508269988851251
      vertex 85.24119845677058 30.958751848327367 3.5882699888512484
    endloop
  endfacet
  facet normal -0.22341247760125252 -0.06745220381217942 0.9723873019805175
    outer loop
      vertex 80.5197494808711 19.08742893995301 3.5999999999999996
      vertex 89.08704831599 21.674048959349147 5.747821835582809
      vertex 85.24119845677058 30.95875184832737 5.508269988851251
    endloop
  endfacet
  facet normal 0.28903179694447173 -0.9573194975320671 -4.854142956485204e-16
    outer loop
      vertex 91.81791651981627 22.49854668054383 4.5124504998980335
      vertex 104.45273691917278 26.3132238635648 9.6
      vertex 89.85574684821056 21.90613272934344 5.940534559191317
    endloop
  endfacet
  facet normal 0.22341247760125243 0.06745220381217976 -0.9723873019805175
    outer loop
      vertex 91.81791651981627 22.49854668054383 4.5124504998980335
      vertex 88.21687987332277 31.857163036209332 4.334273326100323
      vertex 107.32469541176899 27.180319254398217 8.4
    endloop
  endfacet
  facet normal -0.2234124776012524 -0.06745220381217959 0.9723873019805175
    outer loop
      vertex 89.85574684821056 21.90613272934344 5.940534559191317
      vertex 101.56241894972807 35.886418838885476 9.6
      vertex 86.25471020171706 31.26474908500895 5.762357385393606
    endloop
  endfacet
  facet normal -0.2890317969444709 0.9573194975320675 -2.835122165861829e-15
    outer loop
      vertex 88.21687987332277 31.857163036209332 4.334273326100323
      vertex 86.25471020171706 31.26474908500895 5.762357385393606
      vertex 101.56241894972807 35.886418838885476 9.6
    endloop
  endfacet
  facet normal -0.22341247760125246 -0.06745220381217959 0.9723873019805175
    outer loop
      vertex 89.85574684821056 21.90613272934344 5.940534559191317
      vertex 104.45273691917278 26.3132238635648 9.6
      vertex 101.56241894972807 35.886418838885476 9.6
    endloop
  endfacet
  facet normal -0.2890317969444711 0.9573194975320675 -1.747640195100909e-15
    outer loop
      vertex 88.21687987332277 31.857163036209332 4.334273326100323
      vertex 101.56241894972807 35.886418838885476 9.6
      vertex 104.43437744232428 36.75351422971889 8.4
    endloop
  endfacet
  facet normal 0.2890317969444716 -0.9573194975320672 0
    outer loop
      vertex 91.81791651981627 22.49854668054383 4.5124504998980335
      vertex 107.32469541176899 27.180319254398217 8.4
      vertex 107.32469541176899 27.180319254398217 9.6
    endloop
  endfacet
  facet normal 0.2890317969444716 -0.9573194975320674 0
    outer loop
      vertex 91.81791651981627 22.49854668054383 4.5124504998980335
      vertex 107.32469541176899 27.180319254398217 9.6
      vertex 104.45273691917278 26.3132238635648 9.6
    endloop
  endfacet
  facet normal 0.2234124776012524 0.06745220381217958 -0.9723873019805175
    outer loop
      vertex 88.21687987332277 31.857163036209332 4.334273326100323
      vertex 104.43437744232428 36.75351422971889 8.4
      vertex 107.32469541176899 27.180319254398217 8.4
    endloop
  endfacet
  facet normal 0 0 1
    outer loop
      vertex 104.45273691917278 26.3132238635648 9.6
      vertex 107.32469541176899 27.180319254398217 9.6
      vertex 101.56241894972807 35.886418838885476 9.6
    endloop
  endfacet
  facet normal 0 0 1
    outer loop
      vertex 101.56241894972807 35.886418838885476 9.6
      vertex 107.32469541176899 27.180319254398217 9.6
      vertex 104.43437744232428 36.75351422971889 9.6
    endloop
  endfacet
  facet normal -0.2890317969444705 0.9573194975320676 0
    outer loop
      vertex 104.43437744232428 36.75351422971889 8.4
      vertex 101.56241894972807 35.886418838885476 9.6
      vertex 104.43437744232428 36.75351422971889 9.6
    endloop
  endfacet
  facet normal 0.9573194975320674 0.28903179694447095 0
    outer loop
      vertex 104.43437744232428 36.75351422971889 8.4
      vertex 107.32469541176899 27.180319254398217 9.6
      vertex 107.32469541176899 27.180319254398217 8.4
    endloop
  endfacet
  facet normal 0.9573194975320674 0.28903179694447095 0
    outer loop
      vertex 104.43437744232428 36.75351422971889 8.4
      vertex 104.43437744232428 36.75351422971889 9.6
      vertex 107.32469541176899 27.180319254398217 9.6
    endloop
  endfacet
  facet normal -0.8813034520649917 -0.472550764869055 0
    outer loop
      vertex 75.15841896491364 34.626175917858895 2.5
      vertex 75.15841896491364 34.626175917858895 3.5999999999999996
      vertex 70.43291131622308 43.439210438508816 2.5
    endloop
  endfacet
  facet normal 0.4725507648690519 -0.8813034520649933 6.567413892195479e-15
    outer loop
      vertex 75.15841896491364 34.626175917858895 2.5
      vertex 78.16953909280237 36.240724364494824 2.5
      vertex 82.16577283427459 38.38348609622689 5.508269988851247
    endloop
  endfacet
  facet normal 0.47255076486905406 -0.8813034520649922 0
    outer loop
      vertex 75.15841896491364 34.626175917858895 2.5
      vertex 82.16577283427459 38.38348609622689 5.508269988851247
      vertex 75.15841896491364 34.626175917858895 3.5999999999999996
    endloop
  endfacet
  facet normal -0.8813034520649917 -0.472550764869055 0
    outer loop
      vertex 75.15841896491364 34.626175917858895 3.5999999999999996
      vertex 70.43291131622308 43.439210438508816 3.5999999999999996
      vertex 70.43291131622308 43.439210438508816 2.5
    endloop
  endfacet
  facet normal -0.47255076486905195 0.8813034520649934 0
    outer loop
      vertex 70.43291131622308 43.439210438508816 2.5
      vertex 70.43291131622308 43.439210438508816 3.5999999999999996
      vertex 73.44403144411181 45.053758885144745 2.5
    endloop
  endfacet
  facet normal 0.20567238863510245 0.11028056719196407 -0.9723873019805175
    outer loop
      vertex 78.16953909280237 36.240724364494824 2.5
      vertex 73.44403144411181 45.053758885144745 2.5
      vertex 82.16577283427459 38.38348609622688 3.5882699888512466
    endloop
  endfacet
  facet normal 0.2056723886351027 0.11028056719196441 -0.9723873019805174
    outer loop
      vertex 73.44403144411181 45.053758885144745 2.5
      vertex 78.31992297505515 47.668188985205106 3.8278218355828075
      vertex 82.16577283427459 38.38348609622688 3.5882699888512466
    endloop
  endfacet
  facet normal -0.20567238863510248 -0.1102805671919641 0.9723873019805174
    outer loop
      vertex 75.15841896491364 34.626175917858895 3.5999999999999996
      vertex 78.31992297505515 47.66818898520511 5.7478218355828075
      vertex 70.43291131622308 43.439210438508816 3.5999999999999996
    endloop
  endfacet
  facet normal -0.47255076486905306 0.8813034520649926 -4.497086375703934e-15
    outer loop
      vertex 73.44403144411181 45.053758885144745 2.5
      vertex 70.43291131622308 43.439210438508816 3.5999999999999996
      vertex 78.31992297505515 47.66818898520511 5.7478218355828075
    endloop
  endfacet
  facet normal -0.4725507648690538 0.8813034520649923 -3.344493952045486e-15
    outer loop
      vertex 73.44403144411181 45.053758885144745 2.5
      vertex 78.31992297505515 47.66818898520511 5.7478218355828075
      vertex 78.31992297505515 47.668188985205106 3.8278218355828075
    endloop
  endfacet
  facet normal 0.4725507648690539 -0.8813034520649925 3.2645517336655276e-15
    outer loop
      vertex 78.16953909280237 36.240724364494824 2.5
      vertex 82.16577283427459 38.38348609622688 3.5882699888512466
      vertex 82.16577283427459 38.38348609622689 5.508269988851247
    endloop
  endfacet
  facet normal -0.20567238863510234 -0.11028056719196416 0.9723873019805174
    outer loop
      vertex 75.15841896491364 34.626175917858895 3.5999999999999996
      vertex 82.16577283427459 38.38348609622689 5.508269988851247
      vertex 78.31992297505515 47.66818898520511 5.7478218355828075
    endloop
  endfacet
  facet normal 0.20567238863510254 0.11028056719196415 -0.9723873019805175
    outer loop
      vertex 84.90516998581465 39.85233796127654 4.3342733261003215
      vertex 80.83394633023705 49.01619648092777 4.512450499898034
      vertex 99.83491562273342 47.857597334192405 8.4
    endloop
  endfacet
  facet normal -0.20567238863510232 -0.11028056719196426 0.9723873019805175
    outer loop
      vertex 79.02758292744275 48.04763292246011 5.940534559191316
      vertex 83.09880658302036 38.883774402808875 5.762357385393603
      vertex 92.46549761784789 55.25297956023516 9.6
    endloop
  endfacet
  facet normal 0.47255076486905356 -0.8813034520649924 1.3307716288739194e-15
    outer loop
      vertex 84.90516998581465 39.85233796127654 4.3342733261003215
      vertex 97.19100526653844 46.43994503958524 9.6
      vertex 83.09880658302036 38.883774402808875 5.762357385393603
    endloop
  endfacet
  facet normal -0.20567238863510262 -0.11028056719196415 0.9723873019805175
    outer loop
      vertex 83.09880658302036 38.883774402808875 5.762357385393603
      vertex 97.19100526653844 46.43994503958524 9.6
      vertex 92.46549761784789 55.25297956023516 9.6
    endloop
  endfacet
  facet normal 0.4725507648690545 -0.8813034520649919 -8.995817415312058e-16
    outer loop
      vertex 84.90516998581465 39.85233796127654 4.3342733261003215
      vertex 99.83491562273342 47.857597334192405 9.6
      vertex 97.19100526653844 46.43994503958524 9.6
    endloop
  endfacet
  facet normal 0.472550764869054 -0.8813034520649923 0
    outer loop
      vertex 84.90516998581465 39.85233796127654 4.3342733261003215
      vertex 99.83491562273342 47.857597334192405 8.4
      vertex 99.83491562273342 47.857597334192405 9.6
    endloop
  endfacet
  facet normal -0.47255076486905195 0.8813034520649933 -7.827305517332385e-15
    outer loop
      vertex 79.02758292744275 48.04763292246011 5.940534559191316
      vertex 92.46549761784789 55.25297956023516 9.6
      vertex 80.83394633023705 49.01619648092777 4.512450499898034
    endloop
  endfacet
  facet normal 0.20567238863510254 0.11028056719196412 -0.9723873019805175
    outer loop
      vertex 80.83394633023705 49.01619648092777 4.512450499898034
      vertex 95.10940797404287 56.67063185484233 8.4
      vertex 99.83491562273342 47.857597334192405 8.4
    endloop
  endfacet
  facet normal -0.47255076486905456 0.8813034520649919 0
    outer loop
      vertex 80.83394633023705 49.01619648092777 4.512450499898034
      vertex 92.46549761784789 55.25297956023516 9.6
      vertex 95.10940797404287 56.67063185484233 8.4
    endloop
  endfacet
  facet normal -0.47255076486905456 0.8813034520649918 0
    outer loop
      vertex 92.46549761784789 55.25297956023516 9.6
      vertex 95.10940797404287 56.67063185484233 9.6
      vertex 95.10940797404287 56.67063185484233 8.4
    endloop
  endfacet
  facet normal 0.8813034520649917 0.472550764869055 0
    outer loop
      vertex 95.10940797404287 56.67063185484233 8.4
      vertex 99.83491562273342 47.857597334192405 9.6
      vertex 99.83491562273342 47.857597334192405 8.4
    endloop
  endfacet
  facet normal 0 0 1
    outer loop
      vertex 97.19100526653844 46.43994503958524 9.6
      vertex 99.83491562273342 47.857597334192405 9.6
      vertex 92.46549761784789 55.25297956023516 9.6
    endloop
  endfacet
  facet normal 0.8813034520649917 0.472550764869055 0
    outer loop
      vertex 95.10940797404287 56.67063185484233 8.4
      vertex 95.10940797404287 56.67063185484233 9.6
      vertex 99.83491562273342 47.857597334192405 9.6
    endloop
  endfacet
  facet normal 0 0 1
    outer loop
      vertex 92.46549761784789 55.25297956023516 9.6
      vertex 99.83491562273342 47.857597334192405 9.6
      vertex 95.10940797404287 56.67063185484233 9.6
    endloop
  endfacet
  facet normal 0 0 -1
    outer loop
      vertex 79.05129360407591 15.724279955029488 0
      vertex 79.87606547314915 12.870018591554336 0
      vertex 80.21188896894455 7.900181509554386 0
    endloop
  endfacet
  facet normal -0.9891765100498906 -0.14673047388159874 0
    outer loop
      vertex 79.05129360407591 15.724279955029488 0
      vertex 80.21188896894455 7.900181509554386 0
      vertex 79.05129360407591 15.724279955029488 2.5
    endloop
  endfacet
  facet normal -0.9891765100498906 -0.14673047388159874 0
    outer loop
      vertex 79.05129360407591 15.724279955029488 2.5
      vertex 80.21188896894455 7.900181509554386 0
      vertex 80.21188896894455 7.900181509554386 2.5
    endloop
  endfacet
  facet normal 0 0 -1
    outer loop
      vertex 79.05129360407591 15.724279955029488 0
      vertex 77.12939105927944 23.396944984793663 0
      vertex 79.87606547314915 12.870018591554336 0
    endloop
  endfacet
  facet normal 0 0 -1
    outer loop
      vertex 77.12939105927944 23.396944984793663 0
      vertex 78.6384776014798 17.782544659201733 0
      vertex 79.87606547314915 12.870018591554336 0
    endloop
  endfacet
  facet normal 0 0 -1
    outer loop
      vertex 77.12939105927944 23.396944984793663 0
      vertex 82.12940373438265 18.661996041948925 0
      vertex 78.6384776014798 17.782544659201733 0
    endloop
  endfacet
  facet normal -0.9700312530477945 -0.2429801804891204 0
    outer loop
      vertex 79.05129360407591 15.724279955029488 0
      vertex 77.12939105927944 23.396944984793663 2.5
      vertex 77.12939105927944 23.396944984793663 0
    endloop
  endfacet
  facet normal -0.9700312530477945 -0.2429801804891204 0
    outer loop
      vertex 79.05129360407591 15.724279955029488 0
      vertex 79.05129360407591 15.724279955029488 2.5
      vertex 77.12939105927944 23.396944984793663 2.5
    endloop
  endfacet
  facet normal -0.941544065196766 -0.3368898533538047 0
    outer loop
      vertex 77.12939105927944 23.396944984793663 0
      vertex 77.12939105927944 23.396944984793663 2.5
      vertex 74.46469032019377 30.844284646213055 2.5
    endloop
  endfacet
  facet normal 0 0 1
    outer loop
      vertex 79.05129360407591 15.724279955029488 2.5
      vertex 80.5197494808711 19.08742893995301 2.5
      vertex 77.12939105927944 23.396944984793663 2.5
    endloop
  endfacet
  facet normal 0 0 1
    outer loop
      vertex 77.12939105927944 23.396944984793663 2.5
      vertex 80.5197494808711 19.08742893995301 2.5
      vertex 77.62943151142639 28.660623915273685 2.5
    endloop
  endfacet
  facet normal 0 0 -1
    outer loop
      vertex 67.01645075529814 44.77896077930927 0
      vertex 70.1978637324807 39.654621186326 0
      vertex 71.08285390585661 37.9945769906044 0
    endloop
  endfacet
  facet normal -0.8577286100915229 -0.5141027440409789 0
    outer loop
      vertex 67.01645075529814 44.77896077930927 0
      vertex 71.08285390585661 37.9945769906044 0
      vertex 67.01645075529814 44.77896077930927 2.5
    endloop
  endfacet
  facet normal -0.8577286100915229 -0.5141027440409789 0
    outer loop
      vertex 71.08285390585661 37.9945769906044 0
      vertex 71.08285390585661 37.9945769906044 2.5
      vertex 67.01645075529814 44.77896077930927 2.5
    endloop
  endfacet
  facet normal -0.8032075315238697 -0.5956993044341515 0
    outer loop
      vertex 67.01645075529814 44.77896077930927 0
      vertex 67.01645075529814 44.77896077930927 2.5
      vertex 62.30464254319668 51.13209870457649 2.5
    endloop
  endfacet
  facet normal 0 0 -1
    outer loop
      vertex 71.08285390585661 37.9945769906044 0
      vertex 70.1978637324807 39.654621186326 0
      vertex 72.79643745129823 35.30583391476522 0
    endloop
  endfacet
  facet normal 0 0 -1
    outer loop
      vertex 74.46469032019377 30.844284646213055 0
      vertex 71.08285390585661 37.9945769906044 0
      vertex 72.79643745129823 35.30583391476522 0
    endloop
  endfacet
  facet normal 0 0 -1
    outer loop
      vertex 74.46469032019377 30.844284646213055 0
      vertex 72.79643745129823 35.30583391476522 0
      vertex 75.88676102895958 37.15242541949773 0
    endloop
  endfacet
  facet normal -0.9039892932155685 -0.4275550932354995 0
    outer loop
      vertex 74.46469032019377 30.844284646213055 0
      vertex 71.08285390585661 37.9945769906044 2.5
      vertex 71.08285390585661 37.9945769906044 0
    endloop
  endfacet
  facet normal -0.941544065196766 -0.3368898533538047 0
    outer loop
      vertex 77.12939105927944 23.396944984793663 0
      vertex 74.46469032019377 30.844284646213055 2.5
      vertex 74.46469032019377 30.844284646213055 0
    endloop
  endfacet
  facet normal -0.9039892932155685 -0.4275550932354995 0
    outer loop
      vertex 74.46469032019377 30.844284646213055 0
      vertex 74.46469032019377 30.844284646213055 2.5
      vertex 71.08285390585661 37.9945769906044 2.5
    endloop
  endfacet
  facet normal 0 0 -1
    outer loop
      vertex 67.01645075529814 44.77896077930927 0
      vertex 73.28818731014205 41.501212691058505 0
      vertex 70.1978637324807 39.654621186326 0
    endloop
  endfacet
  facet normal 0 0 1
    outer loop
      vertex 67.01645075529814 44.77896077930927 2.5
      vertex 71.08285390585661 37.9945769906044 2.5
      vertex 70.43291131622308 43.439210438508816 2.5
    endloop
  endfacet
  facet normal 0 0 1
    outer loop
      vertex 74.46469032019377 30.844284646213055 2.5
      vertex 75.15841896491364 34.626175917858895 2.5
      vertex 71.08285390585661 37.9945769906044 2.5
    endloop
  endfacet
  facet normal 0 0 1
    outer loop
      vertex 77.12939105927944 23.396944984793663 2.5
      vertex 77.62943151142639 28.660623915273685 2.5
      vertex 74.46469032019377 30.844284646213055 2.5
    endloop
  endfacet
  facet normal 0 0 1
    outer loop
      vertex 74.46469032019377 30.844284646213055 2.5
      vertex 77.62943151142639 28.660623915273685 2.5
      vertex 80.9002731279943 29.64814922150063 2.5
    endloop
  endfacet
  facet normal 0 0 1
    outer loop
      vertex 74.46469032019377 30.844284646213055 2.5
      vertex 82.45367579050014 37.68842687465984 2.5
      vertex 75.15841896491364 34.626175917858895 2.5
    endloop
  endfacet
  facet normal 0 0 1
    outer loop
      vertex 74.46469032019377 30.844284646213055 2.5
      vertex 80.9002731279943 29.64814922150063 2.5
      vertex 82.45367579050014 37.68842687465984 2.5
    endloop
  endfacet
  facet normal 0 0 1
    outer loop
      vertex 75.15841896491364 34.626175917858895 2.5
      vertex 82.45367579050014 37.68842687465984 2.5
      vertex 78.16953909280237 36.240724364494824 2.5
    endloop
  endfacet
  facet normal 0 0 1
    outer loop
      vertex 75.15841896491364 34.626175917858895 2.5
      vertex 70.43291131622308 43.439210438508816 2.5
      vertex 71.08285390585661 37.9945769906044 2.5
    endloop
  endfacet
  facet normal 0 0 1
    outer loop
      vertex 67.01645075529814 44.77896077930927 2.5
      vertex 70.43291131622308 43.439210438508816 2.5
      vertex 73.44403144411181 45.053758885144745 2.5
    endloop
  endfacet
  facet normal 0 0 1
    outer loop
      vertex 67.01645075529814 44.77896077930927 2.5
      vertex 73.44403144411181 45.053758885144745 2.5
      vertex 76.27942705763984 52.594381902996105 2.5
    endloop
  endfacet
  facet normal 0 0 1
    outer loop
      vertex 78.16953909280237 36.240724364494824 2.5
      vertex 82.45367579050014 37.68842687465984 2.5
      vertex 76.27942705763984 52.594381902996105 2.5
    endloop
  endfacet
  facet normal 0 0 1
    outer loop
      vertex 78.16953909280237 36.240724364494824 2.5
      vertex 76.27942705763984 52.594381902996105 2.5
      vertex 73.44403144411181 45.053758885144745 2.5
    endloop
  endfacet
  facet normal -0.9987954562366814 -0.04906767368603752 0
    outer loop
      vertex 80.35854452103376 4.9149391278624535 0
      vertex 80.21188896894455 7.900181509554386 2.5
      vertex 80.21188896894455 7.900181509554386 0
    endloop
  endfacet
  facet normal 0 0 -1
    outer loop
      vertex 80.21188896894455 7.900181509554386 0
      vertex 79.87606547314915 12.870018591554336 0
      vertex 83.366991606052 13.749469974301528 0
    endloop
  endfacet
  facet normal -0.9987954562366814 -0.04906767368603752 0
    outer loop
      vertex 80.35854452103376 4.9149391278624535 0
      vertex 80.35854452103376 4.9149391278624535 2.5
      vertex 80.21188896894455 7.900181509554386 2.5
    endloop
  endfacet
  facet normal 0 0 -1
    outer loop
      vertex 77.12939105927944 23.396944984793663 0
      vertex 136.72146809101105 27.195590890944004 0
      vertex 82.12940373438265 18.661996041948925 0
    endloop
  endfacet
  facet normal 0 0 1
    outer loop
      vertex 79.05129360407591 15.724279955029488 2.5
      vertex 91.12754423340532 16.747856041558165 2.5
      vertex 80.5197494808711 19.08742893995301 2.5
    endloop
  endfacet
  facet normal 0 0 1
    outer loop
      vertex 80.5197494808711 19.08742893995301 2.5
      vertex 91.12754423340532 16.747856041558165 2.5
      vertex 83.790591097439 20.074954246179956 2.5
    endloop
  endfacet
  facet normal 0 0 1
    outer loop
      vertex 83.790591097439 20.074954246179956 2.5
      vertex 91.12754423340532 16.747856041558165 2.5
      vertex 82.45367579050014 37.68842687465984 2.5
    endloop
  endfacet
  facet normal 0 0 1
    outer loop
      vertex 79.05129360407591 15.724279955029488 2.5
      vertex 80.21188896894455 7.900181509554386 2.5
      vertex 138.7287508994341 13.663589358329773 2.5
    endloop
  endfacet
  facet normal 0 0 -1
    outer loop
      vertex 77.12939105927944 23.396944984793663 0
      vertex 74.46469032019377 30.844284646213055 0
      vertex 133.39748279750347 40.46568401157856 0
    endloop
  endfacet
  facet normal 0 0 -1
    outer loop
      vertex 74.46469032019377 30.844284646213055 0
      vertex 75.88676102895958 37.15242541949773 0
      vertex 126.16208266523296 47.92847689600547 0
    endloop
  endfacet
  facet normal 0 0 -1
    outer loop
      vertex 126.16208266523296 47.92847689600547 0
      vertex 75.88676102895958 37.15242541949773 0
      vertex 73.28818731014205 41.501212691058505 0
    endloop
  endfacet
  facet normal 0 0 1
    outer loop
      vertex 83.790591097439 20.074954246179956 2.5
      vertex 82.45367579050014 37.68842687465984 2.5
      vertex 80.9002731279943 29.64814922150063 2.5
    endloop
  endfacet
  facet normal -0.7409511231248386 -0.6715589573075772 0
    outer loop
      vertex 62.30464254319668 51.13209870457649 0
      vertex 60.29745854437351 53.34668496251106 2.5
      vertex 60.29745854437351 53.34668496251106 0
    endloop
  endfacet
  facet normal -0.8032075315238697 -0.5956993044341515 0
    outer loop
      vertex 67.01645075529814 44.77896077930927 0
      vertex 62.30464254319668 51.13209870457649 2.5
      vertex 62.30464254319668 51.13209870457649 0
    endloop
  endfacet
  facet normal -0.7409511231248386 -0.6715589573075772 0
    outer loop
      vertex 62.30464254319668 51.13209870457649 0
      vertex 62.30464254319668 51.13209870457649 2.5
      vertex 60.29745854437351 53.34668496251106 2.5
    endloop
  endfacet
  facet normal 0 0 -1
    outer loop
      vertex 62.30464254319668 51.13209870457649 0
      vertex 60.29745854437351 53.34668496251106 0
      vertex 104.2861752063036 92.26461394876242 0
    endloop
  endfacet
  facet normal -0.6626200482162036 0.7489557207885897 0
    outer loop
      vertex 60.29745854437351 53.34668496251106 0
      vertex 60.29745854437351 53.34668496251106 2.5
      vertex 104.2861752063036 92.26461394876242 2.5
    endloop
  endfacet
  facet normal 0 0 1
    outer loop
      vertex 67.01645075529814 44.77896077930927 2.5
      vertex 76.27942705763984 52.594381902996105 2.5
      vertex 62.30464254319668 51.13209870457649 2.5
    endloop
  endfacet
  facet normal 0 0 1
    outer loop
      vertex 62.30464254319668 51.13209870457649 2.5
      vertex 104.2861752063036 92.26461394876242 2.5
      vertex 60.29745854437351 53.34668496251106 2.5
    endloop
  endfacet
  facet normal 0 0 -1
    outer loop
      vertex 67.01645075529814 44.77896077930927 0
      vertex 62.30464254319668 51.13209870457649 0
      vertex 115.90686395764351 77.44649048149586 0
    endloop
  endfacet
  facet normal 0 0 -1
    outer loop
      vertex 67.01645075529814 44.77896077930927 0
      vertex 122.9398242533207 65.71270511299372 0
      vertex 73.28818731014205 41.501212691058505 0
    endloop
  endfacet
  facet normal 0 0 1
    outer loop
      vertex 62.30464254319668 51.13209870457649 2.5
      vertex 76.27942705763984 52.594381902996105 2.5
      vertex 115.90686395764351 77.44649048149586 2.5
    endloop
  endfacet
  facet normal 0 0 1
    outer loop
      vertex 76.27942705763984 52.594381902996105 2.5
      vertex 81.5571739099714 54.78049622800375 2.5
      vertex 115.90686395764351 77.44649048149586 2.5
    endloop
  endfacet
  facet normal -0.6626200482162036 0.7489557207885897 0
    outer loop
      vertex 60.29745854437351 53.34668496251106 0
      vertex 104.2861752063036 92.26461394876242 2.5
      vertex 104.2861752063036 92.26461394876242 0
    endloop
  endfacet
  facet normal 0 0 -1
    outer loop
      vertex 62.30464254319668 51.13209870457649 0
      vertex 104.2861752063036 92.26461394876242 0
      vertex 107.75765720009804 88.43442381173372 0
    endloop
  endfacet
  facet normal 0 0 -1
    outer loop
      vertex 62.30464254319668 51.13209870457649 0
      vertex 107.75765720009804 88.43442381173372 0
      vertex 115.90686395764351 77.44649048149586 0
    endloop
  endfacet
  facet normal 0 0 1
    outer loop
      vertex 62.30464254319668 51.13209870457649 2.5
      vertex 107.75765720009804 88.43442381173372 2.5
      vertex 104.2861752063036 92.26461394876242 2.5
    endloop
  endfacet
  facet normal 0 0 1
    outer loop
      vertex 62.30464254319668 51.13209870457649 2.5
      vertex 115.90686395764351 77.44649048149586 2.5
      vertex 107.75765720009804 88.43442381173372 2.5
    endloop
  endfacet
  facet normal 0 0 -1
    outer loop
      vertex 80.35854452103376 4.9149391278624535 0
      vertex 80.21188896894455 7.900181509554386 0
      vertex 138.98239585757256 8.500527486205101 0
    endloop
  endfacet
  facet normal 0.061048539658471436 -0.9981347984143063 0
    outer loop
      vertex 80.35854452103376 4.9149391278624535 0
      vertex 138.98239585757256 8.500527486205101 0
      vertex 80.35854452103376 4.9149391278624535 2.5
    endloop
  endfacet
  facet normal 0 0 -1
    outer loop
      vertex 80.21188896894455 7.900181509554386 0
      vertex 83.366991606052 13.749469974301528 0
      vertex 138.7287508994341 13.663589358329773 0
    endloop
  endfacet
  facet normal 0 0 -1
    outer loop
      vertex 138.7287508994341 13.663589358329773 0
      vertex 83.366991606052 13.749469974301528 0
      vertex 82.12940373438265 18.661996041948925 0
    endloop
  endfacet
  facet normal 0 0 -1
    outer loop
      vertex 80.21188896894455 7.900181509554386 0
      vertex 138.7287508994341 13.663589358329773 0
      vertex 138.98239585757256 8.500527486205101 0
    endloop
  endfacet
  facet normal 0 0 -1
    outer loop
      vertex 138.7287508994341 13.663589358329773 0
      vertex 82.12940373438265 18.661996041948925 0
      vertex 136.72146809101105 27.195590890944004 0
    endloop
  endfacet
  facet normal 0 0 1
    outer loop
      vertex 80.35854452103376 4.9149391278624535 2.5
      vertex 138.98239585757256 8.500527486205101 2.5
      vertex 80.21188896894455 7.900181509554386 2.5
    endloop
  endfacet
  facet normal 0 0 1
    outer loop
      vertex 79.05129360407591 15.724279955029488 2.5
      vertex 138.7287508994341 13.663589358329773 2.5
      vertex 91.12754423340532 16.747856041558165 2.5
    endloop
  endfacet
  facet normal 0 0 1
    outer loop
      vertex 91.12754423340532 16.747856041558165 2.5
      vertex 138.7287508994341 13.663589358329773 2.5
      vertex 96.40529108573688 18.93397036656581 2.5
    endloop
  endfacet
  facet normal 0 0 1
    outer loop
      vertex 80.21188896894455 7.900181509554386 2.5
      vertex 138.98239585757256 8.500527486205101 2.5
      vertex 138.7287508994341 13.663589358329773 2.5
    endloop
  endfacet
  facet normal 0 0 -1
    outer loop
      vertex 73.28818731014205 41.501212691058505 0
      vertex 123.10061520631223 55.31951315609576 0
      vertex 126.16208266523296 47.92847689600547 0
    endloop
  endfacet
  facet normal 0 0 -1
    outer loop
      vertex 77.12939105927944 23.396944984793663 0
      vertex 133.39748279750347 40.46568401157856 0
      vertex 136.72146809101105 27.195590890944004 0
    endloop
  endfacet
  facet normal 0 0 -1
    outer loop
      vertex 74.46469032019377 30.844284646213055 0
      vertex 126.16208266523296 47.92847689600547 0
      vertex 133.39748279750347 40.46568401157856 0
    endloop
  endfacet
  facet normal 0 0 1
    outer loop
      vertex 96.40529108573688 18.93397036656581 2.5
      vertex 122.9398242533207 65.71270511299372 2.5
      vertex 81.5571739099714 54.78049622800375 2.5
    endloop
  endfacet
  facet normal 0 0 1
    outer loop
      vertex 96.40529108573688 18.93397036656581 2.5
      vertex 133.39748279750347 40.46568401157856 2.5
      vertex 126.16208266523296 47.92847689600547 2.5
    endloop
  endfacet
  facet normal 0 0 1
    outer loop
      vertex 96.40529108573688 18.93397036656581 2.5
      vertex 123.10061520631223 55.31951315609576 2.5
      vertex 122.9398242533207 65.71270511299372 2.5
    endloop
  endfacet
  facet normal 0 0 1
    outer loop
      vertex 96.40529108573688 18.93397036656581 2.5
      vertex 126.16208266523296 47.92847689600547 2.5
      vertex 123.10061520631223 55.31951315609576 2.5
    endloop
  endfacet
  facet normal 0.061048539658471436 -0.9981347984143063 0
    outer loop
      vertex 80.35854452103376 4.9149391278624535 2.5
      vertex 138.98239585757256 8.500527486205101 0
      vertex 138.98239585757256 8.500527486205101 2.5
    endloop
  endfacet
  facet normal 0.9987954562696779 0.04906767301437735 0
    outer loop
      vertex 138.98239585757256 8.500527486205101 0
      vertex 138.7287508994341 13.663589358329773 0
      vertex 138.98239585757256 8.500527486205101 2.5
    endloop
  endfacet
  facet normal 0.9987954562696779 0.04906767301437735 0
    outer loop
      vertex 138.7287508994341 13.663589358329773 0
      vertex 138.7287508994341 13.663589358329773 2.5
      vertex 138.98239585757256 8.500527486205101 2.5
    endloop
  endfacet
  facet normal 0.9891765099890533 0.146730474291732 0
    outer loop
      vertex 138.7287508994341 13.663589358329773 0
      vertex 136.72146809101105 27.195590890944004 0
      vertex 138.7287508994341 13.663589358329773 2.5
    endloop
  endfacet
  facet normal 0.9891765099890533 0.146730474291732 0
    outer loop
      vertex 138.7287508994341 13.663589358329773 2.5
      vertex 136.72146809101105 27.195590890944004 0
      vertex 136.72146809101105 27.195590890944004 2.5
    endloop
  endfacet
  facet normal 0 0 1
    outer loop
      vertex 96.40529108573688 18.93397036656581 2.5
      vertex 138.7287508994341 13.663589358329773 2.5
      vertex 136.72146809101105 27.195590890944004 2.5
    endloop
  endfacet
  facet normal 0.9700312530866149 0.24298018033414137 0
    outer loop
      vertex 136.72146809101105 27.195590890944004 0
      vertex 133.39748279750347 40.46568401157856 0
      vertex 136.72146809101105 27.195590890944004 2.5
    endloop
  endfacet
  facet normal 0.9700312530866149 0.24298018033414137 0
    outer loop
      vertex 133.39748279750347 40.46568401157856 0
      vertex 133.39748279750347 40.46568401157856 2.5
      vertex 136.72146809101105 27.195590890944004 2.5
    endloop
  endfacet
  facet normal 0 0 -1
    outer loop
      vertex 133.39748279750347 40.46568401157856 0
      vertex 126.16208266523296 47.92847689600547 0
      vertex 130.13799139689164 49.57535221541611 0
    endloop
  endfacet
  facet normal 0.941544065248532 0.3368898532091287 0
    outer loop
      vertex 133.39748279750347 40.46568401157856 0
      vertex 130.13799139689164 49.57535221541611 0
      vertex 130.13799139689164 49.57535221541611 2.5
    endloop
  endfacet
  facet normal 0.941544065248532 0.3368898532091287 0
    outer loop
      vertex 133.39748279750347 40.46568401157856 0
      vertex 130.13799139689164 49.57535221541611 2.5
      vertex 133.39748279750347 40.46568401157856 2.5
    endloop
  endfacet
  facet normal 0 0 1
    outer loop
      vertex 96.40529108573688 18.93397036656581 2.5
      vertex 136.72146809101105 27.195590890944004 2.5
      vertex 133.39748279750347 40.46568401157856 2.5
    endloop
  endfacet
  facet normal 0 0 1
    outer loop
      vertex 133.39748279750347 40.46568401157856 2.5
      vertex 130.13799139689164 49.57535221541611 2.5
      vertex 126.16208266523296 47.92847689600547 2.5
    endloop
  endfacet
  facet normal 0 0 -1
    outer loop
      vertex 122.9398242533207 65.71270511299372 0
      vertex 123.10061520631223 55.31951315609576 0
      vertex 73.28818731014205 41.501212691058505 0
    endloop
  endfacet
  facet normal 0 0 -1
    outer loop
      vertex 67.01645075529814 44.77896077930927 0
      vertex 115.90686395764351 77.44649048149586 0
      vertex 122.9398242533207 65.71270511299372 0
    endloop
  endfacet
  facet normal 0 0 1
    outer loop
      vertex 81.5571739099714 54.78049622800375 2.5
      vertex 122.9398242533207 65.71270511299372 2.5
      vertex 115.90686395764351 77.44649048149586 2.5
    endloop
  endfacet
  facet normal 0.7409511247491581 0.6715589555154169 0
    outer loop
      vertex 104.2861752063036 92.26461394876242 0
      vertex 107.75765720009804 88.43442381173372 2.5
      vertex 107.75765720009804 88.43442381173372 0
    endloop
  endfacet
  facet normal 0.7409511247491581 0.6715589555154169 0
    outer loop
      vertex 104.2861752063036 92.26461394876242 0
      vertex 104.2861752063036 92.26461394876242 2.5
      vertex 107.75765720009804 88.43442381173372 2.5
    endloop
  endfacet
  facet normal 0.8032075314535788 0.5956993045289277 0
    outer loop
      vertex 107.75765720009804 88.43442381173372 0
      vertex 115.90686395764351 77.44649048149586 2.5
      vertex 115.90686395764351 77.44649048149586 0
    endloop
  endfacet
  facet normal 0.8577286099673114 0.5141027442482133 0
    outer loop
      vertex 115.90686395764351 77.44649048149586 0
      vertex 115.90686395764351 77.44649048149586 2.5
      vertex 122.9398242533207 65.71270511299372 2.5
    endloop
  endfacet
  facet normal 0.8032075314535788 0.5956993045289277 0
    outer loop
      vertex 107.75765720009804 88.43442381173372 0
      vertex 107.75765720009804 88.43442381173372 2.5
      vertex 115.90686395764351 77.44649048149586 2.5
    endloop
  endfacet
  facet normal 0 0 -1
    outer loop
      vertex 122.9398242533207 65.71270511299372 0
      vertex 127.07652393915502 56.96638847599687 0
      vertex 123.10061520631223 55.31951315609576 0
    endloop
  endfacet
  facet normal 0.8577286099673114 0.5141027442482133 0
    outer loop
      vertex 115.90686395764351 77.44649048149586 0
      vertex 122.9398242533207 65.71270511299372 2.5
      vertex 122.9398242533207 65.71270511299372 0
    endloop
  endfacet
  facet normal 0.9039892932136219 0.42755509323961566 0
    outer loop
      vertex 122.9398242533207 65.71270511299372 0
      vertex 122.9398242533207 65.71270511299372 2.5
      vertex 127.07652393915502 56.96638847599687 0
    endloop
  endfacet
  facet normal 0.9039892932136219 0.42755509323961566 0
    outer loop
      vertex 122.9398242533207 65.71270511299372 2.5
      vertex 127.07652393915502 56.96638847599687 2.5
      vertex 127.07652393915502 56.96638847599687 0
    endloop
  endfacet
  facet normal 0 0 1
    outer loop
      vertex 122.9398242533207 65.71270511299372 2.5
      vertex 123.10061520631223 55.31951315609576 2.5
      vertex 127.07652393915502 56.96638847599687 2.5
    endloop
  endfacet
  facet normal -0.9238795325112866 -0.38268343236508995 -6.317444837222596e-15
    outer loop
      vertex 78.31992297505515 47.668188985205106 3.8278218355828075
      vertex 76.27942705763984 52.594381902996105 2.5
      vertex 82.16577283427459 38.38348609622688 3.5882699888512466
    endloop
  endfacet
  facet normal -0.9238795325112868 -0.3826834323650898 0
    outer loop
      vertex 89.08704831599 21.674048959349147 3.8278218355828066
      vertex 82.45367579050014 37.68842687465984 2.5
      vertex 91.12754423340532 16.747856041558165 2.5
    endloop
  endfacet
  facet normal 0.3826834323650896 -0.9238795325112868 0
    outer loop
      vertex 91.12754423340532 16.747856041558165 2.5
      vertex 96.40529108573688 18.93397036656581 2.5
      vertex 91.12754423340532 16.747856041558165 6.5
    endloop
  endfacet
  facet normal -0.9238795325112868 -0.3826834323650897 0
    outer loop
      vertex 89.08704831599 21.674048959349147 3.8278218355828066
      vertex 91.12754423340532 16.747856041558165 2.5
      vertex 91.12754423340532 16.747856041558165 6.5
    endloop
  endfacet
  facet normal 0.5299155298062186 0.21949819935786022 0.8191520443414957
    outer loop
      vertex 96.40529108573688 18.93397036656581 2.5
      vertex 91.81791651981627 22.49854668054383 4.5124504998980335
      vertex 91.12754423340532 16.747856041558165 6.5
    endloop
  endfacet
  facet normal 0.5299155298062184 0.2194981993578598 0.819152044341496
    outer loop
      vertex 96.40529108573688 18.93397036656581 2.5
      vertex 88.21687987332277 31.857163036209332 4.334273326100323
      vertex 91.81791651981627 22.49854668054383 4.5124504998980335
    endloop
  endfacet
  facet normal -0.9238795325112872 -0.3826834323650887 1.3914256922991979e-14
    outer loop
      vertex 89.08704831599 21.674048959349147 3.8278218355828066
      vertex 85.24119845677058 30.958751848327367 3.5882699888512484
      vertex 82.45367579050014 37.68842687465984 2.5
    endloop
  endfacet
  facet normal -0.9238795325112865 -0.3826834323650904 2.1880725733274405e-15
    outer loop
      vertex 85.24119845677058 30.958751848327367 3.5882699888512484
      vertex 82.16577283427459 38.38348609622689 5.508269988851247
      vertex 82.45367579050014 37.68842687465984 2.5
    endloop
  endfacet
  facet normal 0.5299155298062198 0.21949819935786008 0.819152044341495
    outer loop
      vertex 96.40529108573688 18.93397036656581 2.5
      vertex 80.83394633023705 49.01619648092777 4.512450499898034
      vertex 84.90516998581465 39.85233796127654 4.3342733261003215
    endloop
  endfacet
  facet normal -0.923879532511287 -0.38268343236508945 3.136250855398165e-15
    outer loop
      vertex 82.45367579050014 37.68842687465984 2.5
      vertex 82.16577283427459 38.38348609622688 3.5882699888512466
      vertex 76.27942705763984 52.594381902996105 2.5
    endloop
  endfacet
  facet normal 0.5299155298062191 0.21949819935785997 0.8191520443414955
    outer loop
      vertex 96.40529108573688 18.93397036656581 2.5
      vertex 81.5571739099714 54.78049622800375 2.5
      vertex 80.83394633023705 49.01619648092777 4.512450499898034
    endloop
  endfacet
  facet normal -0.9238795325112878 -0.38268343236508706 1.4219170630553121e-15
    outer loop
      vertex 82.45367579050014 37.68842687465984 2.5
      vertex 82.16577283427459 38.38348609622689 5.508269988851247
      vertex 82.16577283427459 38.38348609622688 3.5882699888512466
    endloop
  endfacet
  facet normal 0.5299155298062156 0.21949819935785775 0.8191520443414981
    outer loop
      vertex 96.40529108573688 18.93397036656581 2.5
      vertex 84.90516998581465 39.85233796127654 4.3342733261003215
      vertex 88.21687987332277 31.857163036209332 4.334273326100323
    endloop
  endfacet
  facet normal 0.5299155298062245 0.21949819935786302 0.8191520443414911
    outer loop
      vertex 79.02758292744275 48.04763292246011 5.940534559191316
      vertex 76.27942705763984 52.594381902996105 6.5
      vertex 83.09880658302036 38.883774402808875 5.762357385393603
    endloop
  endfacet
  facet normal -0.9238795325112867 -0.38268343236508967 0
    outer loop
      vertex 89.08704831599 21.674048959349147 3.8278218355828066
      vertex 91.12754423340532 16.747856041558165 6.5
      vertex 89.08704831599 21.674048959349147 5.747821835582809
    endloop
  endfacet
  facet normal -0.9238795325112872 -0.3826834323650887 7.352178356983125e-15
    outer loop
      vertex 89.08704831599 21.674048959349147 5.747821835582809
      vertex 91.12754423340532 16.747856041558165 6.5
      vertex 85.24119845677058 30.95875184832737 5.508269988851251
    endloop
  endfacet
  facet normal 0.5299155298062193 0.21949819935786 0.8191520443414954
    outer loop
      vertex 91.81791651981627 22.49854668054383 4.5124504998980335
      vertex 89.85574684821056 21.90613272934344 5.940534559191317
      vertex 91.12754423340532 16.747856041558165 6.5
    endloop
  endfacet
  facet normal -0.9238795325112866 -0.38268343236509006 7.081065962571771e-16
    outer loop
      vertex 85.24119845677058 30.958751848327367 3.5882699888512484
      vertex 85.24119845677058 30.95875184832737 5.508269988851251
      vertex 82.16577283427459 38.38348609622689 5.508269988851247
    endloop
  endfacet
  facet normal 0.5299155298062188 0.2194981993578594 0.8191520443414957
    outer loop
      vertex 84.90516998581465 39.85233796127654 4.3342733261003215
      vertex 83.09880658302036 38.883774402808875 5.762357385393603
      vertex 86.25471020171706 31.26474908500895 5.762357385393606
    endloop
  endfacet
  facet normal -0.9238795325112866 -0.38268343236508995 -1.1830700642029578e-14
    outer loop
      vertex 78.31992297505515 47.66818898520511 5.7478218355828075
      vertex 85.24119845677058 30.95875184832737 5.508269988851251
      vertex 91.12754423340532 16.747856041558165 6.5
    endloop
  endfacet
  facet normal 0.5299155298062282 0.21949819935786333 0.8191520443414886
    outer loop
      vertex 89.85574684821056 21.90613272934344 5.940534559191317
      vertex 86.25471020171706 31.26474908500895 5.762357385393606
      vertex 83.09880658302036 38.883774402808875 5.762357385393603
    endloop
  endfacet
  facet normal 0.5299155298062198 0.21949819935785947 0.8191520443414951
    outer loop
      vertex 88.21687987332277 31.857163036209332 4.334273326100323
      vertex 84.90516998581465 39.85233796127654 4.3342733261003215
      vertex 86.25471020171706 31.26474908500895 5.762357385393606
    endloop
  endfacet
  facet normal 0.5299155298062191 0.21949819935785997 0.8191520443414955
    outer loop
      vertex 89.85574684821056 21.90613272934344 5.940534559191317
      vertex 76.27942705763984 52.594381902996105 6.5
      vertex 91.12754423340532 16.747856041558165 6.5
    endloop
  endfacet
  facet normal -0.9238795325112866 -0.38268343236509 -7.381678200748277e-15
    outer loop
      vertex 78.31992297505515 47.66818898520511 5.7478218355828075
      vertex 82.16577283427459 38.38348609622689 5.508269988851247
      vertex 85.24119845677058 30.95875184832737 5.508269988851251
    endloop
  endfacet
  facet normal -0.9238795325112868 -0.3826834323650896 4.6258479905058164e-15
    outer loop
      vertex 78.31992297505515 47.66818898520511 5.7478218355828075
      vertex 91.12754423340532 16.747856041558165 6.5
      vertex 76.27942705763984 52.594381902996105 6.5
    endloop
  endfacet
  facet normal 0.529915529806217 0.219498199357859 0.819152044341497
    outer loop
      vertex 89.85574684821056 21.90613272934344 5.940534559191317
      vertex 83.09880658302036 38.883774402808875 5.762357385393603
      vertex 76.27942705763984 52.594381902996105 6.5
    endloop
  endfacet
  facet normal -0.3826834323650896 0.9238795325112868 0
    outer loop
      vertex 76.27942705763984 52.594381902996105 2.5
      vertex 76.27942705763984 52.594381902996105 6.5
      vertex 81.5571739099714 54.78049622800375 2.5
    endloop
  endfacet
  facet normal -0.9238795325112873 -0.38268343236508856 0
    outer loop
      vertex 78.31992297505515 47.668188985205106 3.8278218355828075
      vertex 76.27942705763984 52.594381902996105 6.5
      vertex 76.27942705763984 52.594381902996105 2.5
    endloop
  endfacet
  facet normal 0.5299155298062185 0.2194981993578602 0.8191520443414957
    outer loop
      vertex 81.5571739099714 54.78049622800375 2.5
      vertex 76.27942705763984 52.594381902996105 6.5
      vertex 80.83394633023705 49.01619648092777 4.512450499898034
    endloop
  endfacet
  facet normal -0.9238795325112868 -0.38268343236508917 1.4162131925143527e-15
    outer loop
      vertex 78.31992297505515 47.668188985205106 3.8278218355828075
      vertex 78.31992297505515 47.66818898520511 5.7478218355828075
      vertex 76.27942705763984 52.594381902996105 6.5
    endloop
  endfacet
  facet normal 0.5299155298062174 0.21949819935785797 0.819152044341497
    outer loop
      vertex 79.02758292744275 48.04763292246011 5.940534559191316
      vertex 80.83394633023705 49.01619648092777 4.512450499898034
      vertex 76.27942705763984 52.594381902996105 6.5
    endloop
  endfacet
  facet normal 0.9697017035842055 0.24429205076279067 3.01370169085876e-13
    outer loop
      vertex 79.86156052583705 12.927595054132649 0.08005850932366565
      vertex 79.87606547314915 12.870018591554336 0
      vertex 79.81004134750508 13.132097144314091 0.3127416997969523
    endloop
  endfacet
  facet normal 0.9697017035841069 0.2442920507631818 -4.707282857861367e-14
    outer loop
      vertex 79.81004134750508 13.132097144314091 0.3127416997969523
      vertex 79.87606547314915 12.870018591554336 0
      vertex 79.75319869372625 13.357730430511426 0.5236334507607583
    endloop
  endfacet
  facet normal 0.9697017035841684 0.24429205076293734 1.9506329520477302e-13
    outer loop
      vertex 79.75319869372625 13.357730430511426 0.5236334507607583
      vertex 79.87606547314915 12.870018591554336 0
      vertex 79.69157999032983 13.602321940834873 0.7107027593681448
    endloop
  endfacet
  facet normal 0.9697017035841156 0.2442920507631472 -3.5038588897147416e-14
    outer loop
      vertex 79.69157999032983 13.602321940834873 0.7107027593681448
      vertex 79.87606547314915 12.870018591554336 0
      vertex 79.6257786591137 13.863516125332698 0.8721480459147362
    endloop
  endfacet
  facet normal 0.9697017035841261 0.24429205076310545 4.105521563215732e-14
    outer loop
      vertex 78.7613443809027 17.294832820244643 0.5236334507607583
      vertex 78.82296308429912 17.050241309921194 0.7107027593681448
      vertex 79.87606547314915 12.870018591554336 0
    endloop
  endfacet
  facet normal 0.9697017035841237 0.24429205076311525 -2.0080206217277577e-14
    outer loop
      vertex 78.82296308429912 17.050241309921194 0.7107027593681448
      vertex 78.88876441551524 16.78904712542337 0.8721480459147362
      vertex 79.87606547314915 12.870018591554336 0
    endloop
  endfacet
  facet normal 0.9697017035841272 0.244292050763101 2.093782493350642e-14
    outer loop
      vertex 79.6257786591137 13.863516125332698 0.8721480459147362
      vertex 79.87606547314915 12.870018591554336 0
      vertex 79.55642840286818 14.138797541224921 1.0064145040361177
    endloop
  endfacet
  facet normal 0.9697017035841365 0.24429205076306446 7.002170759545294e-14
    outer loop
      vertex 79.55642840286818 14.138797541224921 1.0064145040361177
      vertex 79.87606547314915 12.870018591554336 0
      vertex 79.4841971024716 14.42551507799237 1.1122090743430681
    endloop
  endfacet
  facet normal 0.9697017035841273 0.24429205076310015 1.693003770220382e-14
    outer loop
      vertex 79.4841971024716 14.42551507799237 1.1122090743430681
      vertex 79.87606547314915 12.870018591554336 0
      vertex 79.40978038483242 14.720907489020227 1.1885128972903374
    endloop
  endfacet
  facet normal 0.9697017035841179 0.24429205076313804 -4.5791785206490344e-14
    outer loop
      vertex 79.40978038483242 14.720907489020227 1.1885128972903374
      vertex 79.87606547314915 12.870018591554336 0
      vertex 79.33389492362181 15.022129983912372 1.23459112535103
    endloop
  endfacet
  facet normal 0.9697017035841318 0.24429205076308275 5.6684505578032156e-14
    outer loop
      vertex 79.33389492362181 15.022129983912372 1.23459112535103
      vertex 79.87606547314915 12.870018591554336 0
      vertex 79.25727153731448 15.326281625378034 1.25
    endloop
  endfacet
  facet normal 0.9697017035841246 0.24429205076311183 -3.863611602624544e-15
    outer loop
      vertex 78.88876441551524 16.78904712542337 0.8721480459147362
      vertex 78.95811467176077 16.51376570953115 1.0064145040361177
      vertex 79.87606547314915 12.870018591554336 0
    endloop
  endfacet
  facet normal 0.9697017035841273 0.24429205076310082 3.873209741556419e-14
    outer loop
      vertex 79.03034597215735 16.2270481727637 1.1122090743430681
      vertex 79.87606547314915 12.870018591554336 0
      vertex 78.95811467176077 16.51376570953115 1.0064145040361177
    endloop
  endfacet
  facet normal 0.969701703584119 0.24429205076313346 -6.614816219889343e-14
    outer loop
      vertex 79.03034597215735 16.2270481727637 1.1122090743430681
      vertex 79.10476268979654 15.931655761735843 1.1885128972903374
      vertex 79.87606547314915 12.870018591554336 0
    endloop
  endfacet
  facet normal 0.9697017035841294 0.2442920507630924 4.6432274534449324e-14
    outer loop
      vertex 79.18064815100713 15.630433266843696 1.23459112535103
      vertex 79.87606547314915 12.870018591554336 0
      vertex 79.10476268979654 15.931655761735843 1.1885128972903374
    endloop
  endfacet
  facet normal 0.9697017035841208 0.24429205076312638 -3.450941777595793e-14
    outer loop
      vertex 79.25727153731448 15.326281625378034 1.25
      vertex 79.87606547314915 12.870018591554336 0
      vertex 79.18064815100713 15.630433266843696 1.23459112535103
    endloop
  endfacet
  facet normal 0.969701703584125 0.24429205076310978 1.2017123968443972e-13
    outer loop
      vertex 78.6529825487919 17.72496819662342 0.08005850932366565
      vertex 79.87606547314915 12.870018591554336 0
      vertex 78.6384776014798 17.782544659201733 0
    endloop
  endfacet
  facet normal 0.9697017035841244 0.24429205076311172 -5.119719168350675e-15
    outer loop
      vertex 78.6529825487919 17.72496819662342 0.08005850932366565
      vertex 78.70450172712387 17.52046610644198 0.3127416997969523
      vertex 79.87606547314915 12.870018591554336 0
    endloop
  endfacet
  facet normal 0.9697017035841241 0.24429205076311322 -2.8826881476223876e-14
    outer loop
      vertex 78.70450172712387 17.52046610644198 0.3127416997969523
      vertex 78.7613443809027 17.294832820244643 0.5236334507607583
      vertex 79.87606547314915 12.870018591554336 0
    endloop
  endfacet
  facet normal 0.1962172150537825 -0.7788717116083854 -0.5956993044924275
    outer loop
      vertex 78.6529825487919 17.72496819662342 0.08005850932366565
      vertex 78.6384776014798 17.782544659201733 0
      vertex 82.14390868169474 18.60441957937061 0.08005850932366565
    endloop
  endfacet
  facet normal 0.18100846992819777 -0.7185015685292828 -0.6715589548470136
    outer loop
      vertex 78.6529825487919 17.72496819662342 0.08005850932366565
      vertex 82.14390868169474 18.60441957937061 0.08005850932366565
      vertex 78.70450172712387 17.52046610644198 0.3127416997969523
    endloop
  endfacet
  facet normal 0.16405651428790732 -0.6512118625723238 -0.7409511253549632
    outer loop
      vertex 78.70450172712387 17.52046610644198 0.3127416997969523
      vertex 82.19542786002671 18.39991748918917 0.3127416997969523
      vertex 78.7613443809027 17.294832820244643 0.5236334507607583
    endloop
  endfacet
  facet normal 0.14552460473261472 -0.5776506303901922 -0.8032075314806442
    outer loop
      vertex 78.7613443809027 17.294832820244643 0.5236334507607583
      vertex 82.25227051380554 18.174284202991835 0.5236334507607583
      vertex 78.82296308429912 17.050241309921194 0.7107027593681448
    endloop
  endfacet
  facet normal -0.19621721505378045 0.7788717116083772 -0.5956993044924388
    outer loop
      vertex 79.86156052583705 12.927595054132649 0.08005850932366565
      vertex 83.366991606052 13.749469974301528 0
      vertex 79.87606547314915 12.870018591554336 0
    endloop
  endfacet
  facet normal -0.1810084699281964 0.7185015685292775 -0.6715589548470196
    outer loop
      vertex 79.86156052583705 12.927595054132649 0.08005850932366565
      vertex 79.81004134750508 13.132097144314091 0.3127416997969523
      vertex 83.30096748040792 14.011548527061283 0.3127416997969523
    endloop
  endfacet
  facet normal -0.19621721505378037 0.7788717116083769 -0.5956993044924395
    outer loop
      vertex 79.86156052583705 12.927595054132649 0.08005850932366565
      vertex 83.35248665873989 13.80704643687984 0.08005850932366565
      vertex 83.366991606052 13.749469974301528 0
    endloop
  endfacet
  facet normal -0.1810084699281964 0.7185015685292775 -0.6715589548470196
    outer loop
      vertex 79.86156052583705 12.927595054132649 0.08005850932366565
      vertex 83.30096748040792 14.011548527061283 0.3127416997969523
      vertex 83.35248665873989 13.80704643687984 0.08005850932366565
    endloop
  endfacet
  facet normal -0.16405651428790802 0.6512118625723264 -0.7409511253549608
    outer loop
      vertex 79.81004134750508 13.132097144314091 0.3127416997969523
      vertex 79.75319869372625 13.357730430511426 0.5236334507607583
      vertex 83.24412482662909 14.237181813258617 0.5236334507607583
    endloop
  endfacet
  facet normal -0.164056514287908 0.6512118625723263 -0.7409511253549608
    outer loop
      vertex 79.81004134750508 13.132097144314091 0.3127416997969523
      vertex 83.24412482662909 14.237181813258617 0.5236334507607583
      vertex 83.30096748040792 14.011548527061283 0.3127416997969523
    endloop
  endfacet
  facet normal -0.14552460473261536 0.5776506303901946 -0.8032075314806421
    outer loop
      vertex 79.75319869372625 13.357730430511426 0.5236334507607583
      vertex 83.18250612323267 14.481773323582065 0.7107027593681448
      vertex 83.24412482662909 14.237181813258617 0.5236334507607583
    endloop
  endfacet
  facet normal -0.969701703584125 -0.2442920507631098 -5.738245129578742e-14
    outer loop
      vertex 83.35248665873989 13.80704643687984 0.08005850932366565
      vertex 82.12940373438265 18.661996041948925 0
      vertex 83.366991606052 13.749469974301528 0
    endloop
  endfacet
  facet normal -0.9697017035841252 -0.2442920507631089 -3.9454716526739145e-15
    outer loop
      vertex 83.35248665873989 13.80704643687984 0.08005850932366565
      vertex 83.30096748040792 14.011548527061283 0.3127416997969523
      vertex 82.12940373438265 18.661996041948925 0
    endloop
  endfacet
  facet normal -0.9697017035841247 -0.24429205076311086 -3.3639895434954025e-14
    outer loop
      vertex 83.30096748040792 14.011548527061283 0.3127416997969523
      vertex 83.24412482662909 14.237181813258617 0.5236334507607583
      vertex 82.12940373438265 18.661996041948925 0
    endloop
  endfacet
  facet normal -0.9697017035841267 -0.24429205076310317 3.5536133146627313e-14
    outer loop
      vertex 83.24412482662909 14.237181813258617 0.5236334507607583
      vertex 83.18250612323267 14.481773323582065 0.7107027593681448
      vertex 82.12940373438265 18.661996041948925 0
    endloop
  endfacet
  facet normal -0.14552460473261536 0.5776506303901946 -0.8032075314806422
    outer loop
      vertex 79.75319869372625 13.357730430511426 0.5236334507607583
      vertex 79.69157999032983 13.602321940834873 0.7107027593681448
      vertex 83.18250612323267 14.481773323582065 0.7107027593681448
    endloop
  endfacet
  facet normal -0.12559121368190398 0.4985263068614393 -0.857728610000273
    outer loop
      vertex 79.69157999032983 13.602321940834873 0.7107027593681448
      vertex 79.6257786591137 13.863516125332698 0.8721480459147362
      vertex 83.11670479201655 14.74296750807989 0.8721480459147362
    endloop
  endfacet
  facet normal -0.12559121368190398 0.4985263068614393 -0.857728610000273
    outer loop
      vertex 79.69157999032983 13.602321940834873 0.7107027593681448
      vertex 83.11670479201655 14.74296750807989 0.8721480459147362
      vertex 83.18250612323267 14.481773323582065 0.7107027593681448
    endloop
  endfacet
  facet normal -0.10444831058829608 0.41460090247541287 -0.9039892931234439
    outer loop
      vertex 79.6257786591137 13.863516125332698 0.8721480459147362
      vertex 79.55642840286818 14.138797541224921 1.0064145040361177
      vertex 83.04735453577102 15.018248923972113 1.0064145040361177
    endloop
  endfacet
  facet normal -0.08229951316646876 0.32668266475464214 -0.9415440651830207
    outer loop
      vertex 79.55642840286818 14.138797541224921 1.0064145040361177
      vertex 79.4841971024716 14.42551507799237 1.1122090743430681
      vertex 82.97512323537444 15.304966460739562 1.1122090743430681
    endloop
  endfacet
  facet normal -0.05935812644335761 0.23561829438937232 -0.9700312531945439
    outer loop
      vertex 79.4841971024716 14.42551507799237 1.1122090743430681
      vertex 79.40978038483242 14.720907489020227 1.1885128972903374
      vertex 82.90070651773526 15.600358871767419 1.1885128972903374
    endloop
  endfacet
  facet normal -0.10444831058829614 0.41460090247541315 -0.903989293123444
    outer loop
      vertex 79.6257786591137 13.863516125332698 0.8721480459147362
      vertex 83.04735453577102 15.018248923972113 1.0064145040361177
      vertex 83.11670479201655 14.74296750807989 0.8721480459147362
    endloop
  endfacet
  facet normal -0.08229951316646872 0.326682664754642 -0.9415440651830207
    outer loop
      vertex 79.55642840286818 14.138797541224921 1.0064145040361177
      vertex 82.97512323537444 15.304966460739562 1.1122090743430681
      vertex 83.04735453577102 15.018248923972113 1.0064145040361177
    endloop
  endfacet
  facet normal -0.05935812644335761 0.23561829438937232 -0.9700312531945439
    outer loop
      vertex 79.4841971024716 14.42551507799237 1.1122090743430681
      vertex 82.90070651773526 15.600358871767419 1.1885128972903374
      vertex 82.97512323537444 15.304966460739562 1.1122090743430681
    endloop
  endfacet
  facet normal -0.035845088514144495 0.14228479104707178 -0.9891765099647808
    outer loop
      vertex 79.40978038483242 14.720907489020227 1.1885128972903374
      vertex 79.33389492362181 15.022129983912372 1.23459112535103
      vertex 82.82482105652466 15.901581366659563 1.23459112535103
    endloop
  endfacet
  facet normal 0.011986842787621268 -0.04758100738620809 -0.9987954562051724
    outer loop
      vertex 79.25727153731448 15.326281625378034 1.25
      vertex 79.18064815100713 15.630433266843696 1.23459112535103
      vertex 82.67157428390998 16.509884649590887 1.23459112535103
    endloop
  endfacet
  facet normal -0.0119868427876214 0.04758100738620861 -0.9987954562051724
    outer loop
      vertex 79.33389492362181 15.022129983912372 1.23459112535103
      vertex 79.25727153731448 15.326281625378034 1.25
      vertex 82.74819767021732 16.205733008125225 1.25
    endloop
  endfacet
  facet normal -0.035845088514144495 0.14228479104707178 -0.9891765099647808
    outer loop
      vertex 79.40978038483242 14.720907489020227 1.1885128972903374
      vertex 82.82482105652466 15.901581366659563 1.23459112535103
      vertex 82.90070651773526 15.600358871767419 1.1885128972903374
    endloop
  endfacet
  facet normal -0.011986842787621405 0.04758100738620863 -0.9987954562051724
    outer loop
      vertex 79.33389492362181 15.022129983912372 1.23459112535103
      vertex 82.74819767021732 16.205733008125225 1.25
      vertex 82.82482105652466 15.901581366659563 1.23459112535103
    endloop
  endfacet
  facet normal 0.1962172150537825 -0.7788717116083854 -0.5956993044924275
    outer loop
      vertex 82.14390868169474 18.60441957937061 0.08005850932366565
      vertex 78.6384776014798 17.782544659201733 0
      vertex 82.12940373438265 18.661996041948925 0
    endloop
  endfacet
  facet normal 0.18100846992819777 -0.7185015685292828 -0.6715589548470136
    outer loop
      vertex 78.70450172712387 17.52046610644198 0.3127416997969523
      vertex 82.14390868169474 18.60441957937061 0.08005850932366565
      vertex 82.19542786002671 18.39991748918917 0.3127416997969523
    endloop
  endfacet
  facet normal -0.9697017035839364 -0.244292050763858 -6.925011530730033e-13
    outer loop
      vertex 82.14390868169474 18.60441957937061 0.08005850932366565
      vertex 82.12940373438265 18.661996041948925 0
      vertex 82.19542786002671 18.39991748918917 0.3127416997969523
    endloop
  endfacet
  facet normal -0.9697017035840654 -0.24429205076334642 -2.364639753364694e-13
    outer loop
      vertex 82.19542786002671 18.39991748918917 0.3127416997969523
      vertex 82.12940373438265 18.661996041948925 0
      vertex 82.25227051380554 18.174284202991835 0.5236334507607583
    endloop
  endfacet
  facet normal 0.16405651428790732 -0.6512118625723238 -0.7409511253549634
    outer loop
      vertex 78.7613443809027 17.294832820244643 0.5236334507607583
      vertex 82.19542786002671 18.39991748918917 0.3127416997969523
      vertex 82.25227051380554 18.174284202991835 0.5236334507607583
    endloop
  endfacet
  facet normal -0.9697017035841533 -0.24429205076299743 1.0931215559929957e-13
    outer loop
      vertex 82.25227051380554 18.174284202991835 0.5236334507607583
      vertex 82.12940373438265 18.661996041948925 0
      vertex 82.31388921720196 17.929692692668386 0.7107027593681448
    endloop
  endfacet
  facet normal -0.9697017035841075 -0.24429205076317922 -9.004218571289699e-14
    outer loop
      vertex 82.37969054841808 17.66849850817056 0.8721480459147362
      vertex 82.31388921720196 17.929692692668386 0.7107027593681448
      vertex 82.12940373438265 18.661996041948925 0
    endloop
  endfacet
  facet normal -0.9697017035841242 -0.24429205076311272 -2.439651222659893e-14
    outer loop
      vertex 83.18250612323267 14.481773323582065 0.7107027593681448
      vertex 83.11670479201655 14.74296750807989 0.8721480459147362
      vertex 82.12940373438265 18.661996041948925 0
    endloop
  endfacet
  facet normal 0.14552460473261472 -0.5776506303901922 -0.8032075314806442
    outer loop
      vertex 78.82296308429912 17.050241309921194 0.7107027593681448
      vertex 82.25227051380554 18.174284202991835 0.5236334507607583
      vertex 82.31388921720196 17.929692692668386 0.7107027593681448
    endloop
  endfacet
  facet normal 0.12559121368190398 -0.4985263068614393 -0.857728610000273
    outer loop
      vertex 78.82296308429912 17.050241309921194 0.7107027593681448
      vertex 82.31388921720196 17.929692692668386 0.7107027593681448
      vertex 78.88876441551524 16.78904712542337 0.8721480459147362
    endloop
  endfacet
  facet normal 0.12559121368190398 -0.4985263068614393 -0.857728610000273
    outer loop
      vertex 78.88876441551524 16.78904712542337 0.8721480459147362
      vertex 82.31388921720196 17.929692692668386 0.7107027593681448
      vertex 82.37969054841808 17.66849850817056 0.8721480459147362
    endloop
  endfacet
  facet normal -0.9697017035841349 -0.24429205076307034 4.8744874901441614e-14
    outer loop
      vertex 82.52127210506019 17.10649955551089 1.1122090743430681
      vertex 82.44904080466361 17.39321709227834 1.0064145040361177
      vertex 82.12940373438265 18.661996041948925 0
    endloop
  endfacet
  facet normal -0.9697017035841213 -0.2442920507631245 -2.371271739457413e-14
    outer loop
      vertex 82.37969054841808 17.66849850817056 0.8721480459147362
      vertex 82.12940373438265 18.661996041948925 0
      vertex 82.44904080466361 17.39321709227834 1.0064145040361177
    endloop
  endfacet
  facet normal -0.9697017035841085 -0.24429205076317578 -1.0786486142085812e-13
    outer loop
      vertex 82.52127210506019 17.10649955551089 1.1122090743430681
      vertex 82.12940373438265 18.661996041948925 0
      vertex 82.59568882269939 16.811107144483035 1.1885128972903374
    endloop
  endfacet
  facet normal 0.10444831058829715 -0.41460090247541714 -0.9039892931234421
    outer loop
      vertex 78.88876441551524 16.78904712542337 0.8721480459147362
      vertex 82.37969054841808 17.66849850817056 0.8721480459147362
      vertex 78.95811467176077 16.51376570953115 1.0064145040361177
    endloop
  endfacet
  facet normal 0.08229951316646832 -0.3266826647546405 -0.9415440651830214
    outer loop
      vertex 79.03034597215735 16.2270481727637 1.1122090743430681
      vertex 78.95811467176077 16.51376570953115 1.0064145040361177
      vertex 82.44904080466361 17.39321709227834 1.0064145040361177
    endloop
  endfacet
  facet normal 0.05935812644335729 -0.23561829438937107 -0.9700312531945442
    outer loop
      vertex 79.03034597215735 16.2270481727637 1.1122090743430681
      vertex 82.52127210506019 17.10649955551089 1.1122090743430681
      vertex 79.10476268979654 15.931655761735843 1.1885128972903374
    endloop
  endfacet
  facet normal 0.10444831058829716 -0.4146009024754172 -0.9039892931234419
    outer loop
      vertex 78.95811467176077 16.51376570953115 1.0064145040361177
      vertex 82.37969054841808 17.66849850817056 0.8721480459147362
      vertex 82.44904080466361 17.39321709227834 1.0064145040361177
    endloop
  endfacet
  facet normal 0.0822995131664683 -0.32668266475464036 -0.9415440651830214
    outer loop
      vertex 79.03034597215735 16.2270481727637 1.1122090743430681
      vertex 82.44904080466361 17.39321709227834 1.0064145040361177
      vertex 82.52127210506019 17.10649955551089 1.1122090743430681
    endloop
  endfacet
  facet normal 0.05935812644335729 -0.23561829438937107 -0.9700312531945442
    outer loop
      vertex 79.10476268979654 15.931655761735843 1.1885128972903374
      vertex 82.52127210506019 17.10649955551089 1.1122090743430681
      vertex 82.59568882269939 16.811107144483035 1.1885128972903374
    endloop
  endfacet
  facet normal -0.9697017035841252 -0.24429205076310856 -4.4958389557812716e-15
    outer loop
      vertex 83.04735453577102 15.018248923972113 1.0064145040361177
      vertex 82.12940373438265 18.661996041948925 0
      vertex 83.11670479201655 14.74296750807989 0.8721480459147362
    endloop
  endfacet
  facet normal -0.9697017035841276 -0.2442920507630994 3.0746097948437657e-14
    outer loop
      vertex 83.04735453577102 15.018248923972113 1.0064145040361177
      vertex 82.97512323537444 15.304966460739562 1.1122090743430681
      vertex 82.12940373438265 18.661996041948925 0
    endloop
  endfacet
  facet normal -0.9697017035841259 -0.24429205076310634 8.515942941402457e-15
    outer loop
      vertex 82.97512323537444 15.304966460739562 1.1122090743430681
      vertex 82.90070651773526 15.600358871767419 1.1885128972903374
      vertex 82.12940373438265 18.661996041948925 0
    endloop
  endfacet
  facet normal -0.9697017035841211 -0.24429205076312524 -4.31965759606201e-14
    outer loop
      vertex 82.90070651773526 15.600358871767419 1.1885128972903374
      vertex 82.82482105652466 15.901581366659563 1.23459112535103
      vertex 82.12940373438265 18.661996041948925 0
    endloop
  endfacet
  facet normal -0.9697017035841307 -0.24429205076308766 4.609840135743681e-14
    outer loop
      vertex 82.82482105652466 15.901581366659563 1.23459112535103
      vertex 82.74819767021732 16.205733008125225 1.25
      vertex 82.12940373438265 18.661996041948925 0
    endloop
  endfacet
  facet normal -0.9697017035841198 -0.24429205076313007 -4.253303400515259e-14
    outer loop
      vertex 82.74819767021732 16.205733008125225 1.25
      vertex 82.67157428390998 16.509884649590887 1.23459112535103
      vertex 82.12940373438265 18.661996041948925 0
    endloop
  endfacet
  facet normal -0.9697017035841329 -0.2442920507630779 5.4081677355941155e-14
    outer loop
      vertex 82.59568882269939 16.811107144483035 1.1885128972903374
      vertex 82.12940373438265 18.661996041948925 0
      vertex 82.67157428390998 16.509884649590887 1.23459112535103
    endloop
  endfacet
  facet normal 0.035845088514144495 -0.14228479104707178 -0.9891765099647808
    outer loop
      vertex 79.18064815100713 15.630433266843696 1.23459112535103
      vertex 79.10476268979654 15.931655761735843 1.1885128972903374
      vertex 82.59568882269939 16.811107144483035 1.1885128972903374
    endloop
  endfacet
  facet normal 0.035845088514144495 -0.14228479104707178 -0.9891765099647808
    outer loop
      vertex 79.18064815100713 15.630433266843696 1.23459112535103
      vertex 82.59568882269939 16.811107144483035 1.1885128972903374
      vertex 82.67157428390998 16.509884649590887 1.23459112535103
    endloop
  endfacet
  facet normal 0.011986842787621273 -0.0475810073862081 -0.9987954562051724
    outer loop
      vertex 79.25727153731448 15.326281625378034 1.25
      vertex 82.67157428390998 16.509884649590887 1.23459112535103
      vertex 82.74819767021732 16.205733008125225 1.25
    endloop
  endfacet
  facet normal 0.858423216017031 0.5129420846479431 -3.378905394464362e-14
    outer loop
      vertex 72.5384530356192 35.73757819626922 0.5236334507607583
      vertex 72.79643745129823 35.30583391476522 0
      vertex 72.40907172306837 35.954101514859126 0.7107027593681448
    endloop
  endfacet
  facet normal 0.8584232160170601 0.5129420846478948 2.595451029418384e-14
    outer loop
      vertex 72.40907172306837 35.954101514859126 0.7107027593681448
      vertex 72.79643745129823 35.30583391476522 0
      vertex 72.27090811151749 36.185322261438046 0.8721480459147362
    endloop
  endfacet
  facet normal -0.41199894560260003 0.6894919923027398 -0.5956993044924127
    outer loop
      vertex 72.76598129077752 35.35680316849622 0.08005850932366565
      vertex 75.88676102895958 37.15242541949773 0
      vertex 72.79643745129823 35.30583391476522 0
    endloop
  endfacet
  facet normal 0.8584232160169519 0.5129420846480758 -1.820851348609715e-13
    outer loop
      vertex 72.76598129077752 35.35680316849622 0.08005850932366565
      vertex 72.79643745129823 35.30583391476522 0
      vertex 72.5384530356192 35.73757819626922 0.5236334507607583
    endloop
  endfacet
  facet normal -0.38006501486179356 0.6360496479386492 -0.6715589548470225
    outer loop
      vertex 72.76598129077752 35.35680316849622 0.08005850932366565
      vertex 72.65780603640309 35.53783754359004 0.3127416997969523
      vertex 75.74812961406444 37.384429048322545 0.3127416997969523
    endloop
  endfacet
  facet normal -0.41199894560260014 0.68949199230274 -0.5956993044924126
    outer loop
      vertex 72.76598129077752 35.35680316849622 0.08005850932366565
      vertex 75.85630486843887 37.20339467322873 0.08005850932366565
      vertex 75.88676102895958 37.15242541949773 0
    endloop
  endfacet
  facet normal -0.38006501486179345 0.636049647938649 -0.6715589548470227
    outer loop
      vertex 72.76598129077752 35.35680316849622 0.08005850932366565
      vertex 75.74812961406444 37.384429048322545 0.3127416997969523
      vertex 75.85630486843887 37.20339467322873 0.08005850932366565
    endloop
  endfacet
  facet normal 0.8584232160171611 0.5129420846477254 2.261246340531945e-13
    outer loop
      vertex 72.76598129077752 35.35680316849622 0.08005850932366565
      vertex 72.5384530356192 35.73757819626922 0.5236334507607583
      vertex 72.65780603640309 35.53783754359004 0.3127416997969523
    endloop
  endfacet
  facet normal -0.34447085026321356 0.5764817977648317 -0.7409511253549498
    outer loop
      vertex 72.65780603640309 35.53783754359004 0.3127416997969523
      vertex 72.5384530356192 35.73757819626922 0.5236334507607583
      vertex 75.62877661328055 37.58416970100173 0.5236334507607583
    endloop
  endfacet
  facet normal -0.34447085026321356 0.5764817977648315 -0.7409511253549498
    outer loop
      vertex 72.65780603640309 35.53783754359004 0.3127416997969523
      vertex 75.62877661328055 37.58416970100173 0.5236334507607583
      vertex 75.74812961406444 37.384429048322545 0.3127416997969523
    endloop
  endfacet
  facet normal -0.305559243069664 0.5113621127415093 -0.8032075314806465
    outer loop
      vertex 72.5384530356192 35.73757819626922 0.5236334507607583
      vertex 75.49939530072972 37.800693019591634 0.7107027593681448
      vertex 75.62877661328055 37.58416970100173 0.5236334507607583
    endloop
  endfacet
  facet normal 0.8584232160170305 0.512942084647944 -4.137112396499935e-14
    outer loop
      vertex 72.27090811151749 36.185322261438046 0.8721480459147362
      vertex 72.79643745129823 35.30583391476522 0
      vertex 72.1252927920737 36.42901365381831 1.0064145040361177
    endloop
  endfacet
  facet normal 0.8584232160170331 0.5129420846479397 -3.4880053596736995e-14
    outer loop
      vertex 72.1252927920737 36.42901365381831 1.0064145040361177
      vertex 72.79643745129823 35.30583391476522 0
      vertex 71.97362811986467 36.68282881067603 1.1122090743430681
    endloop
  endfacet
  facet normal 0.8584232160170512 0.5129420846479094 4.692531910096732e-14
    outer loop
      vertex 70.72339307226146 38.775132839653175 0.8721480459147362
      vertex 70.86900839170524 38.53144144727291 1.0064145040361177
      vertex 72.79643745129823 35.30583391476522 0
    endloop
  endfacet
  facet normal 0.8584232160170399 0.5129420846479285 -3.609671759141248e-14
    outer loop
      vertex 71.02067306391426 38.2776262904152 1.1122090743430681
      vertex 72.79643745129823 35.30583391476522 0
      vertex 70.86900839170524 38.53144144727291 1.0064145040361177
    endloop
  endfacet
  facet normal 0.8584232160170409 0.5129420846479267 -1.9057439667320443e-14
    outer loop
      vertex 71.49715059188946 37.480227550545614 1.25
      vertex 72.79643745129823 35.30583391476522 0
      vertex 71.33626381975547 37.74947615479039 1.23459112535103
    endloop
  endfacet
  facet normal 0.8584232160170453 0.5129420846479195 -3.4984414245761508e-15
    outer loop
      vertex 71.02067306391426 38.2776262904152 1.1122090743430681
      vertex 71.17692647518679 38.01613174779005 1.1885128972903374
      vertex 72.79643745129823 35.30583391476522 0
    endloop
  endfacet
  facet normal 0.8584232160170508 0.51294208464791 2.5885588590633472e-14
    outer loop
      vertex 71.17692647518679 38.01613174779005 1.1885128972903374
      vertex 71.33626381975547 37.74947615479039 1.23459112535103
      vertex 72.79643745129823 35.30583391476522 0
    endloop
  endfacet
  facet normal 0.8584232160170443 0.5129420846479209 -3.3347043958886462e-15
    outer loop
      vertex 71.97362811986467 36.68282881067603 1.1122090743430681
      vertex 72.79643745129823 35.30583391476522 0
      vertex 71.81737470859214 36.94432335330118 1.1885128972903374
    endloop
  endfacet
  facet normal 0.8584232160170472 0.5129420846479161 5.723973150811318e-15
    outer loop
      vertex 71.65803736402346 37.21097894630083 1.23459112535103
      vertex 71.81737470859214 36.94432335330118 1.1885128972903374
      vertex 72.79643745129823 35.30583391476522 0
    endloop
  endfacet
  facet normal 0.8584232160170464 0.5129420846479174 3.1447714606397585e-15
    outer loop
      vertex 71.65803736402346 37.21097894630083 1.23459112535103
      vertex 72.79643745129823 35.30583391476522 0
      vertex 71.49715059188946 37.480227550545614 1.25
    endloop
  endfacet
  facet normal -0.3055592430696641 0.5113621127415096 -0.8032075314806464
    outer loop
      vertex 72.5384530356192 35.73757819626922 0.5236334507607583
      vertex 72.40907172306837 35.954101514859126 0.7107027593681448
      vertex 75.49939530072972 37.800693019591634 0.7107027593681448
    endloop
  endfacet
  facet normal -0.26370493332968953 0.4413177310335364 -0.8577286100002701
    outer loop
      vertex 72.40907172306837 35.954101514859126 0.7107027593681448
      vertex 72.27090811151749 36.185322261438046 0.8721480459147362
      vertex 75.36123168917884 38.031913766170554 0.8721480459147362
    endloop
  endfacet
  facet normal -0.26370493332968953 0.4413177310335364 -0.8577286100002701
    outer loop
      vertex 72.40907172306837 35.954101514859126 0.7107027593681448
      vertex 75.36123168917884 38.031913766170554 0.8721480459147362
      vertex 75.49939530072972 37.800693019591634 0.7107027593681448
    endloop
  endfacet
  facet normal -0.21931100092596312 0.36702321832688706 -0.9039892931234454
    outer loop
      vertex 72.27090811151749 36.185322261438046 0.8721480459147362
      vertex 72.1252927920737 36.42901365381831 1.0064145040361177
      vertex 75.21561636973505 38.27560515855082 1.0064145040361177
    endloop
  endfacet
  facet normal -0.17280498369573372 0.28919407139245473 -0.9415440651830231
    outer loop
      vertex 72.1252927920737 36.42901365381831 1.0064145040361177
      vertex 71.97362811986467 36.68282881067603 1.1122090743430681
      vertex 75.06395169752602 38.52942031540853 1.1122090743430681
    endloop
  endfacet
  facet normal -0.1246347600077073 0.2085798274609605 -0.9700312531945438
    outer loop
      vertex 71.97362811986467 36.68282881067603 1.1122090743430681
      vertex 71.81737470859214 36.94432335330118 1.1885128972903374
      vertex 74.90769828625349 38.79091485803369 1.1885128972903374
    endloop
  endfacet
  facet normal -0.21931100092596306 0.36702321832688695 -0.9039892931234454
    outer loop
      vertex 72.27090811151749 36.185322261438046 0.8721480459147362
      vertex 75.21561636973505 38.27560515855082 1.0064145040361177
      vertex 75.36123168917884 38.031913766170554 0.8721480459147362
    endloop
  endfacet
  facet normal -0.8584232160171611 -0.5129420846477254 -2.261246340531945e-13
    outer loop
      vertex 75.85630486843887 37.20339467322873 0.08005850932366565
      vertex 75.74812961406444 37.384429048322545 0.3127416997969523
      vertex 75.62877661328055 37.58416970100173 0.5236334507607583
    endloop
  endfacet
  facet normal 0.8584232160170453 0.5129420846479193 4.7014602313901037e-14
    outer loop
      vertex 70.22831989300141 39.603651932595 0.08005850932366565
      vertex 72.79643745129823 35.30583391476522 0
      vertex 70.1978637324807 39.654621186326 0
    endloop
  endfacet
  facet normal 0.8584232160170446 0.5129420846479202 -2.0244027170267364e-14
    outer loop
      vertex 70.22831989300141 39.603651932595 0.08005850932366565
      vertex 70.33649514737584 39.422617557501184 0.3127416997969523
      vertex 72.79643745129823 35.30583391476522 0
    endloop
  endfacet
  facet normal 0.8584232160170462 0.5129420846479179 2.150495598581543e-14
    outer loop
      vertex 70.33649514737584 39.422617557501184 0.3127416997969523
      vertex 70.45584814815973 39.222876904822 0.5236334507607583
      vertex 72.79643745129823 35.30583391476522 0
    endloop
  endfacet
  facet normal 0.41199894560260003 -0.6894919923027398 -0.5956993044924127
    outer loop
      vertex 70.22831989300141 39.603651932595 0.08005850932366565
      vertex 70.1978637324807 39.654621186326 0
      vertex 73.31864347066276 41.45024343732751 0.08005850932366565
    endloop
  endfacet
  facet normal 0.38006501486179356 -0.6360496479386492 -0.6715589548470224
    outer loop
      vertex 70.22831989300141 39.603651932595 0.08005850932366565
      vertex 73.31864347066276 41.45024343732751 0.08005850932366565
      vertex 70.33649514737584 39.422617557501184 0.3127416997969523
    endloop
  endfacet
  facet normal 0.8584232160170447 0.5129420846479202 -2.140052392348391e-15
    outer loop
      vertex 70.45584814815973 39.222876904822 0.5236334507607583
      vertex 70.58522946071056 39.006353586232095 0.7107027593681448
      vertex 72.79643745129823 35.30583391476522 0
    endloop
  endfacet
  facet normal 0.8584232160170415 0.5129420846479258 -4.134896046610731e-14
    outer loop
      vertex 70.72339307226146 38.775132839653175 0.8721480459147362
      vertex 72.79643745129823 35.30583391476522 0
      vertex 70.58522946071056 39.006353586232095 0.7107027593681448
    endloop
  endfacet
  facet normal 0.34447085026321356 -0.5764817977648315 -0.7409511253549498
    outer loop
      vertex 70.33649514737584 39.422617557501184 0.3127416997969523
      vertex 73.4268187250372 41.26920906223369 0.3127416997969523
      vertex 70.45584814815973 39.222876904822 0.5236334507607583
    endloop
  endfacet
  facet normal 0.3055592430696641 -0.5113621127415096 -0.8032075314806464
    outer loop
      vertex 70.45584814815973 39.222876904822 0.5236334507607583
      vertex 73.54617172582108 41.06946840955451 0.5236334507607583
      vertex 70.58522946071056 39.006353586232095 0.7107027593681448
    endloop
  endfacet
  facet normal 0.41199894560260003 -0.6894919923027398 -0.5956993044924127
    outer loop
      vertex 73.31864347066276 41.45024343732751 0.08005850932366565
      vertex 70.1978637324807 39.654621186326 0
      vertex 73.28818731014205 41.501212691058505 0
    endloop
  endfacet
  facet normal 0.38006501486179345 -0.636049647938649 -0.6715589548470227
    outer loop
      vertex 70.33649514737584 39.422617557501184 0.3127416997969523
      vertex 73.31864347066276 41.45024343732751 0.08005850932366565
      vertex 73.4268187250372 41.26920906223369 0.3127416997969523
    endloop
  endfacet
  facet normal 0.34447085026321356 -0.5764817977648315 -0.7409511253549498
    outer loop
      vertex 70.45584814815973 39.222876904822 0.5236334507607583
      vertex 73.4268187250372 41.26920906223369 0.3127416997969523
      vertex 73.54617172582108 41.06946840955451 0.5236334507607583
    endloop
  endfacet
  facet normal -0.8584232160170453 -0.5129420846479193 4.7014602313901037e-14
    outer loop
      vertex 75.85630486843887 37.20339467322873 0.08005850932366565
      vertex 73.28818731014205 41.501212691058505 0
      vertex 75.88676102895958 37.15242541949773 0
    endloop
  endfacet
  facet normal -0.858423216017045 -0.5129420846479199 7.380712484499393e-16
    outer loop
      vertex 75.85630486843887 37.20339467322873 0.08005850932366565
      vertex 75.62877661328055 37.58416970100173 0.5236334507607583
      vertex 73.28818731014205 41.501212691058505 0
    endloop
  endfacet
  facet normal -0.8584232160170447 -0.5129420846479202 -2.140052392348391e-15
    outer loop
      vertex 75.62877661328055 37.58416970100173 0.5236334507607583
      vertex 75.49939530072972 37.800693019591634 0.7107027593681448
      vertex 73.28818731014205 41.501212691058505 0
    endloop
  endfacet
  facet normal -0.8584232160170464 -0.5129420846479174 1.7890775632839272e-14
    outer loop
      vertex 75.49939530072972 37.800693019591634 0.7107027593681448
      vertex 75.36123168917884 38.031913766170554 0.8721480459147362
      vertex 73.28818731014205 41.501212691058505 0
    endloop
  endfacet
  facet normal -0.8584232160168329 -0.5129420846482746 -3.545198799564321e-13
    outer loop
      vertex 73.31864347066276 41.45024343732751 0.08005850932366565
      vertex 73.28818731014205 41.501212691058505 0
      vertex 73.4268187250372 41.26920906223369 0.3127416997969523
    endloop
  endfacet
  facet normal -0.8584232160171034 -0.512942084647822 1.0162451777253334e-13
    outer loop
      vertex 73.4268187250372 41.26920906223369 0.3127416997969523
      vertex 73.28818731014205 41.501212691058505 0
      vertex 73.54617172582108 41.06946840955451 0.5236334507607583
    endloop
  endfacet
  facet normal -0.858423216017031 -0.5129420846479431 -3.378905394464362e-14
    outer loop
      vertex 73.54617172582108 41.06946840955451 0.5236334507607583
      vertex 73.28818731014205 41.501212691058505 0
      vertex 73.67555303837192 40.8529450909646 0.7107027593681448
    endloop
  endfacet
  facet normal -0.8584232160169959 -0.5129420846480018 -1.064134922061458e-13
    outer loop
      vertex 73.67555303837192 40.8529450909646 0.7107027593681448
      vertex 73.28818731014205 41.501212691058505 0
      vertex 73.81371664992281 40.62172434438568 0.8721480459147362
    endloop
  endfacet
  facet normal 0.26370493332968425 -0.44131773103352745 -0.8577286100002761
    outer loop
      vertex 70.72339307226146 38.775132839653175 0.8721480459147362
      vertex 70.58522946071056 39.006353586232095 0.7107027593681448
      vertex 73.67555303837192 40.8529450909646 0.7107027593681448
    endloop
  endfacet
  facet normal 0.12463476000770732 -0.2085798274609605 -0.9700312531945438
    outer loop
      vertex 71.02067306391426 38.2776262904152 1.1122090743430681
      vertex 74.11099664157561 40.12421779514771 1.1122090743430681
      vertex 71.17692647518679 38.01613174779005 1.1885128972903374
    endloop
  endfacet
  facet normal 0.21931100092596767 -0.36702321832689466 -0.9039892931234411
    outer loop
      vertex 70.72339307226146 38.775132839653175 0.8721480459147362
      vertex 73.81371664992281 40.62172434438568 0.8721480459147362
      vertex 70.86900839170524 38.53144144727291 1.0064145040361177
    endloop
  endfacet
  facet normal 0.17280498369573735 -0.28919407139245973 -0.9415440651830209
    outer loop
      vertex 71.02067306391426 38.2776262904152 1.1122090743430681
      vertex 70.86900839170524 38.53144144727291 1.0064145040361177
      vertex 73.95933196936659 40.37803295200542 1.0064145040361177
    endloop
  endfacet
  facet normal 0.305559243069664 -0.5113621127415093 -0.8032075314806465
    outer loop
      vertex 70.58522946071056 39.006353586232095 0.7107027593681448
      vertex 73.54617172582108 41.06946840955451 0.5236334507607583
      vertex 73.67555303837192 40.8529450909646 0.7107027593681448
    endloop
  endfacet
  facet normal 0.26370493332968414 -0.44131773103352734 -0.8577286100002762
    outer loop
      vertex 70.72339307226146 38.775132839653175 0.8721480459147362
      vertex 73.67555303837192 40.8529450909646 0.7107027593681448
      vertex 73.81371664992281 40.62172434438568 0.8721480459147362
    endloop
  endfacet
  facet normal -0.8584232160170433 -0.5129420846479228 -1.095860745471682e-14
    outer loop
      vertex 75.36123168917884 38.031913766170554 0.8721480459147362
      vertex 75.21561636973505 38.27560515855082 1.0064145040361177
      vertex 73.28818731014205 41.501212691058505 0
    endloop
  endfacet
  facet normal -0.8584232160170399 -0.5129420846479285 -3.609671759141248e-14
    outer loop
      vertex 75.21561636973505 38.27560515855082 1.0064145040361177
      vertex 75.06395169752602 38.52942031540853 1.1122090743430681
      vertex 73.28818731014205 41.501212691058505 0
    endloop
  endfacet
  facet normal -0.8584232160170487 -0.5129420846479138 1.749220712288056e-14
    outer loop
      vertex 75.06395169752602 38.52942031540853 1.1122090743430681
      vertex 74.90769828625349 38.79091485803369 1.1885128972903374
      vertex 73.28818731014205 41.501212691058505 0
    endloop
  endfacet
  facet normal -0.8584232160170554 -0.5129420846479024 3.454121728937772e-14
    outer loop
      vertex 74.26725005284814 39.86272325252256 1.1885128972903374
      vertex 73.28818731014205 41.501212691058505 0
      vertex 74.42658739741682 39.5960676595229 1.23459112535103
    endloop
  endfacet
  facet normal -0.8584232160170464 -0.5129420846479176 5.716400813764975e-15
    outer loop
      vertex 74.90769828625349 38.79091485803369 1.1885128972903374
      vertex 74.74836094168481 39.057570451033335 1.23459112535103
      vertex 73.28818731014205 41.501212691058505 0
    endloop
  endfacet
  facet normal -0.85842321601704 -0.5129420846479283 -1.98120602020309e-14
    outer loop
      vertex 74.42658739741682 39.5960676595229 1.23459112535103
      vertex 73.28818731014205 41.501212691058505 0
      vertex 74.58747416955082 39.32681905527812 1.25
    endloop
  endfacet
  facet normal -0.8584232160170462 -0.5129420846479178 5.150659369545976e-15
    outer loop
      vertex 74.74836094168481 39.057570451033335 1.23459112535103
      vertex 74.58747416955082 39.32681905527812 1.25
      vertex 73.28818731014205 41.501212691058505 0
    endloop
  endfacet
  facet normal 0.21931100092596773 -0.3670232183268948 -0.903989293123441
    outer loop
      vertex 70.86900839170524 38.53144144727291 1.0064145040361177
      vertex 73.81371664992281 40.62172434438568 0.8721480459147362
      vertex 73.95933196936659 40.37803295200542 1.0064145040361177
    endloop
  endfacet
  facet normal 0.1728049836957373 -0.28919407139245956 -0.941544065183021
    outer loop
      vertex 71.02067306391426 38.2776262904152 1.1122090743430681
      vertex 73.95933196936659 40.37803295200542 1.0064145040361177
      vertex 74.11099664157561 40.12421779514771 1.1122090743430681
    endloop
  endfacet
  facet normal 0.1246347600077074 -0.2085798274609606 -0.9700312531945438
    outer loop
      vertex 71.17692647518679 38.01613174779005 1.1885128972903374
      vertex 74.11099664157561 40.12421779514771 1.1122090743430681
      vertex 74.26725005284814 39.86272325252256 1.1885128972903374
    endloop
  endfacet
  facet normal -0.1728049836957373 0.28919407139245956 -0.941544065183021
    outer loop
      vertex 72.1252927920737 36.42901365381831 1.0064145040361177
      vertex 75.06395169752602 38.52942031540853 1.1122090743430681
      vertex 75.21561636973505 38.27560515855082 1.0064145040361177
    endloop
  endfacet
  facet normal -0.12463476000770463 0.2085798274609568 -0.9700312531945449
    outer loop
      vertex 71.97362811986467 36.68282881067603 1.1122090743430681
      vertex 74.90769828625349 38.79091485803369 1.1885128972903374
      vertex 75.06395169752602 38.52942031540853 1.1122090743430681
    endloop
  endfacet
  facet normal -0.8584232160170877 -0.5129420846478483 1.0393233581451748e-13
    outer loop
      vertex 73.81371664992281 40.62172434438568 0.8721480459147362
      vertex 73.28818731014205 41.501212691058505 0
      vertex 73.95933196936659 40.37803295200542 1.0064145040361177
    endloop
  endfacet
  facet normal -0.8584232160170212 -0.5129420846479595 -6.487689968993332e-14
    outer loop
      vertex 74.11099664157561 40.12421779514771 1.1122090743430681
      vertex 73.95933196936659 40.37803295200542 1.0064145040361177
      vertex 73.28818731014205 41.501212691058505 0
    endloop
  endfacet
  facet normal -0.858423216017045 -0.5129420846479198 1.795610059324652e-15
    outer loop
      vertex 74.11099664157561 40.12421779514771 1.1122090743430681
      vertex 73.28818731014205 41.501212691058505 0
      vertex 74.26725005284814 39.86272325252256 1.1885128972903374
    endloop
  endfacet
  facet normal -0.02516887515833102 0.04212083079861909 -0.9987954562051724
    outer loop
      vertex 71.65803736402346 37.21097894630083 1.23459112535103
      vertex 71.49715059188946 37.480227550545614 1.25
      vertex 74.58747416955082 39.32681905527812 1.25
    endloop
  endfacet
  facet normal 0.025168875158331504 -0.04212083079861991 -0.9987954562051724
    outer loop
      vertex 71.49715059188946 37.480227550545614 1.25
      vertex 71.33626381975547 37.74947615479039 1.23459112535103
      vertex 74.42658739741682 39.5960676595229 1.23459112535103
    endloop
  endfacet
  facet normal 0.07526423544851081 -0.12595684576967695 -0.9891765099647811
    outer loop
      vertex 71.17692647518679 38.01613174779005 1.1885128972903374
      vertex 74.26725005284814 39.86272325252256 1.1885128972903374
      vertex 71.33626381975547 37.74947615479039 1.23459112535103
    endloop
  endfacet
  facet normal -0.07526423544851225 0.12595684576967936 -0.9891765099647808
    outer loop
      vertex 71.65803736402346 37.21097894630083 1.23459112535103
      vertex 74.74836094168481 39.057570451033335 1.23459112535103
      vertex 71.81737470859214 36.94432335330118 1.1885128972903374
    endloop
  endfacet
  facet normal 0.025168875158331508 -0.04212083079861991 -0.9987954562051724
    outer loop
      vertex 71.49715059188946 37.480227550545614 1.25
      vertex 74.42658739741682 39.5960676595229 1.23459112535103
      vertex 74.58747416955082 39.32681905527812 1.25
    endloop
  endfacet
  facet normal -0.025168875158331012 0.042120830798619086 -0.9987954562051724
    outer loop
      vertex 71.65803736402346 37.21097894630083 1.23459112535103
      vertex 74.58747416955082 39.32681905527812 1.25
      vertex 74.74836094168481 39.057570451033335 1.23459112535103
    endloop
  endfacet
  facet normal 0.07526423544851078 -0.1259568457696769 -0.9891765099647811
    outer loop
      vertex 71.33626381975547 37.74947615479039 1.23459112535103
      vertex 74.26725005284814 39.86272325252256 1.1885128972903374
      vertex 74.42658739741682 39.5960676595229 1.23459112535103
    endloop
  endfacet
  facet normal -0.07526423544851224 0.12595684576967936 -0.9891765099647808
    outer loop
      vertex 71.81737470859214 36.94432335330118 1.1885128972903374
      vertex 74.74836094168481 39.057570451033335 1.23459112535103
      vertex 74.90769828625349 38.79091485803369 1.1885128972903374
    endloop
  endfacet
  facet normal -0.3826834323650908 0.9238795325112864 0
    outer loop
      vertex 126.16208266523296 47.92847689600547 0
      vertex 126.16208266523296 47.92847689600547 2.5
      vertex 130.13799139689164 49.57535221541611 0
    endloop
  endfacet
  facet normal 0.9238795325112861 0.3826834323650914 0
    outer loop
      vertex 126.16208266523296 47.92847689600547 0
      vertex 123.10061520631223 55.31951315609576 0
      vertex 123.10061520631223 55.31951315609576 2.5
    endloop
  endfacet
  facet normal 0.38268343236508984 -0.9238795325112867 0
    outer loop
      vertex 123.10061520631223 55.31951315609576 0
      vertex 127.07652393915502 56.96638847599687 0
      vertex 127.07652393915502 56.96638847599687 2.5
    endloop
  endfacet
  facet normal 0.9238795325112861 0.3826834323650914 0
    outer loop
      vertex 123.10061520631223 55.31951315609576 2.5
      vertex 126.16208266523296 47.92847689600547 2.5
      vertex 126.16208266523296 47.92847689600547 0
    endloop
  endfacet
  facet normal -0.3826834323650908 0.9238795325112864 0
    outer loop
      vertex 130.13799139689164 49.57535221541611 2.5
      vertex 130.13799139689164 49.57535221541611 0
      vertex 126.16208266523296 47.92847689600547 2.5
    endloop
  endfacet
  facet normal 0.38268343236508984 -0.9238795325112867 0
    outer loop
      vertex 123.10061520631223 55.31951315609576 2.5
      vertex 123.10061520631223 55.31951315609576 0
      vertex 127.07652393915502 56.96638847599687 2.5
    endloop
  endfacet
endsolid OpenSCAD_Model
