solid OpenSCAD_Model
  facet normal 0 0 -1
    outer loop
      vertex 78.14580751955509 3.1386598497629166 0
      vertex 77.92296409606934 7.674742087721825 0
      vertex 80.07318179309368 4.616990610957146 0
    endloop
  endfacet
  facet normal 0 0 -1
    outer loop
      vertex 77.92296409606934 7.674742087721825 0
      vertex 76.7954874560237 15.275572210550308 0
      vertex 79.91333355009556 7.870776370167732 0
    endloop
  endfacet
  facet normal 0 0 -1
    outer loop
      vertex 76.7954874560237 15.275572210550308 0
      vertex 78.75705801695585 15.665752857923508 0
      vertex 79.91333355009556 7.870776370167732 0
    endloop
  endfacet
  facet normal 0 0 -1
    outer loop
      vertex 76.7954874560237 15.275572210550308 0
      vertex 74.9284282848239 22.72929023206234 0
      vertex 78.75705801695585 15.665752857923508 0
    endloop
  endfacet
  facet normal 0 0 -1
    outer loop
      vertex 74.9284282848239 22.72929023206234 0
      vertex 72.33976739645004 29.964112751185894 0
      vertex 76.84230896085501 23.309859581291676 0
    endloop
  endfacet
  facet normal 0 0 -1
    outer loop
      vertex 78.75705801695585 15.665752857923508 0
      vertex 74.9284282848239 22.72929023206234 0
      vertex 76.84230896085501 23.309859581291676 0
    endloop
  endfacet
  facet normal -0.9987954562824414 -0.04906767275457258 0
    outer loop
      vertex 78.14580751955509 3.1386598497629166 0
      vertex 77.92296409606934 7.674742087721825 19.5
      vertex 77.92296409606934 7.674742087721825 0
    endloop
  endfacet
  facet normal -0.9891765100088931 -0.1467304741579828 0
    outer loop
      vertex 77.92296409606934 7.674742087721825 0
      vertex 76.7954874560237 15.275572210550308 19.5
      vertex 76.7954874560237 15.275572210550308 0
    endloop
  endfacet
  facet normal -0.9700312531372421 -0.24298018013202594 0
    outer loop
      vertex 76.7954874560237 15.275572210550308 0
      vertex 74.9284282848239 22.72929023206234 19.5
      vertex 74.9284282848239 22.72929023206234 0
    endloop
  endfacet
  facet normal 0 0 -1
    outer loop
      vertex 65.1040706411004 43.501149244606495 0
      vertex 66.76700986921787 44.612289711833 0
      vertex 70.81827753037214 37.853157967329025 0
    endloop
  endfacet
  facet normal 0 0 -1
    outer loop
      vertex 65.1040706411004 43.501149244606495 0
      vertex 60.526718497276306 49.672994151711464 0
      vertex 66.76700986921787 44.612289711833 0
    endloop
  endfacet
  facet normal 0 0 -1
    outer loop
      vertex 66.76700986921787 44.612289711833 0
      vertex 60.526718497276306 49.672994151711464 0
      vertex 62.07273940742016 50.9417807161808 0
    endloop
  endfacet
  facet normal 0 0 -1
    outer loop
      vertex 72.33976739645004 29.964112751185894 0
      vertex 69.05443499982357 36.910364493727684 0
      vertex 74.1875264570117 30.729479618370533 0
    endloop
  endfacet
  facet normal 0 0 -1
    outer loop
      vertex 69.05443499982357 36.910364493727684 0
      vertex 70.81827753037214 37.853157967329025 0
      vertex 74.1875264570117 30.729479618370533 0
    endloop
  endfacet
  facet normal 0 0 -1
    outer loop
      vertex 76.84230896085501 23.309859581291676 0
      vertex 72.33976739645004 29.964112751185894 0
      vertex 74.1875264570117 30.729479618370533 0
    endloop
  endfacet
  facet normal 0 0 -1
    outer loop
      vertex 65.1040706411004 43.501149244606495 0
      vertex 70.81827753037214 37.853157967329025 0
      vertex 69.05443499982357 36.910364493727684 0
    endloop
  endfacet
  facet normal -0.8032075316697278 -0.5956993042374846 0
    outer loop
      vertex 65.1040706411004 43.501149244606495 0
      vertex 60.526718497276306 49.672994151711464 19.5
      vertex 60.526718497276306 49.672994151711464 0
    endloop
  endfacet
  facet normal -0.8577286097601745 -0.5141027445938002 0
    outer loop
      vertex 65.1040706411004 43.501149244606495 0
      vertex 69.05443499982357 36.910364493727684 0
      vertex 65.1040706411004 43.501149244606495 19.5
    endloop
  endfacet
  facet normal -0.9415440652516992 -0.33688985320027687 0
    outer loop
      vertex 74.9284282848239 22.72929023206234 0
      vertex 72.33976739645004 29.964112751185894 19.5
      vertex 72.33976739645004 29.964112751185894 0
    endloop
  endfacet
  facet normal -0.9039892932275391 -0.4275550932101903 0
    outer loop
      vertex 72.33976739645004 29.964112751185894 0
      vertex 69.05443499982357 36.910364493727684 19.5
      vertex 69.05443499982357 36.910364493727684 0
    endloop
  endfacet
  facet normal 0 0 -1
    outer loop
      vertex 77.92296409606934 7.674742087721825 0
      vertex 79.91333355009556 7.870776370167732 0
      vertex 80.07318179309368 4.616990610957146 0
    endloop
  endfacet
  facet normal 0 0 -1
    outer loop
      vertex 78.14580751955509 3.1386598497629166 0
      vertex 80.07318179309368 4.616990610957146 0
      vertex 139.30539846420288 8.032298736274242 0
    endloop
  endfacet
  facet normal 0.040131792551416606 -0.9991943951136887 0
    outer loop
      vertex 78.14580751955509 3.1386598497629166 0
      vertex 141.4209569171071 5.680052377283573 0
      vertex 78.14580751955509 3.1386598497629166 19.5
    endloop
  endfacet
  facet normal -0.9987954562824414 -0.04906767275457258 0
    outer loop
      vertex 78.14580751955509 3.1386598497629166 0
      vertex 78.14580751955509 3.1386598497629166 19.5
      vertex 77.92296409606934 7.674742087721825 19.5
    endloop
  endfacet
  facet normal -0.9891765100088931 -0.1467304741579828 0
    outer loop
      vertex 77.92296409606934 7.674742087721825 0
      vertex 77.92296409606934 7.674742087721825 19.5
      vertex 76.7954874560237 15.275572210550308 19.5
    endloop
  endfacet
  facet normal -0.9700312531372421 -0.24298018013202594 0
    outer loop
      vertex 76.7954874560237 15.275572210550308 0
      vertex 76.7954874560237 15.275572210550308 19.5
      vertex 74.9284282848239 22.72929023206234 19.5
    endloop
  endfacet
  facet normal -0.9415440652516992 -0.33688985320027687 0
    outer loop
      vertex 74.9284282848239 22.72929023206234 0
      vertex 74.9284282848239 22.72929023206234 19.5
      vertex 72.33976739645004 29.964112751185894 19.5
    endloop
  endfacet
  facet normal 0 0 1
    outer loop
      vertex 78.14580751955509 3.1386598497629166 19.5
      vertex 80.07318179309368 4.616990610957146 19.5
      vertex 77.92296409606934 7.674742087721825 19.5
    endloop
  endfacet
  facet normal 0 0 1
    outer loop
      vertex 77.92296409606934 7.674742087721825 19.5
      vertex 79.91333355009556 7.870776370167732 19.5
      vertex 78.75705801695585 15.665752857923508 19.5
    endloop
  endfacet
  facet normal 0 0 1
    outer loop
      vertex 77.92296409606934 7.674742087721825 19.5
      vertex 78.75705801695585 15.665752857923508 19.5
      vertex 76.7954874560237 15.275572210550308 19.5
    endloop
  endfacet
  facet normal 0 0 1
    outer loop
      vertex 76.7954874560237 15.275572210550308 19.5
      vertex 76.84230896085501 23.309859581291676 19.5
      vertex 74.9284282848239 22.72929023206234 19.5
    endloop
  endfacet
  facet normal 0 0 1
    outer loop
      vertex 76.7954874560237 15.275572210550308 19.5
      vertex 78.75705801695585 15.665752857923508 19.5
      vertex 76.84230896085501 23.309859581291676 19.5
    endloop
  endfacet
  facet normal 0 0 1
    outer loop
      vertex 74.9284282848239 22.72929023206234 19.5
      vertex 76.84230896085501 23.309859581291676 19.5
      vertex 74.1875264570117 30.729479618370533 19.5
    endloop
  endfacet
  facet normal -0.8577286097601745 -0.5141027445938002 0
    outer loop
      vertex 69.05443499982357 36.910364493727684 0
      vertex 69.05443499982357 36.910364493727684 19.5
      vertex 65.1040706411004 43.501149244606495 19.5
    endloop
  endfacet
  facet normal -0.8032075316697278 -0.5956993042374846 0
    outer loop
      vertex 65.1040706411004 43.501149244606495 0
      vertex 65.1040706411004 43.501149244606495 19.5
      vertex 60.526718497276306 49.672994151711464 19.5
    endloop
  endfacet
  facet normal -0.9039892932275391 -0.4275550932101903 0
    outer loop
      vertex 72.33976739645004 29.964112751185894 0
      vertex 72.33976739645004 29.964112751185894 19.5
      vertex 69.05443499982357 36.910364493727684 19.5
    endloop
  endfacet
  facet normal 0 0 1
    outer loop
      vertex 65.1040706411004 43.501149244606495 19.5
      vertex 62.07273940742016 50.9417807161808 19.5
      vertex 60.526718497276306 49.672994151711464 19.5
    endloop
  endfacet
  facet normal 0 0 1
    outer loop
      vertex 65.1040706411004 43.501149244606495 19.5
      vertex 69.05443499982357 36.910364493727684 19.5
      vertex 66.76700986921787 44.612289711833 19.5
    endloop
  endfacet
  facet normal 0 0 1
    outer loop
      vertex 65.1040706411004 43.501149244606495 19.5
      vertex 66.76700986921787 44.612289711833 19.5
      vertex 62.07273940742016 50.9417807161808 19.5
    endloop
  endfacet
  facet normal 0 0 1
    outer loop
      vertex 72.33976739645004 29.964112751185894 19.5
      vertex 70.81827753037214 37.853157967329025 19.5
      vertex 69.05443499982357 36.910364493727684 19.5
    endloop
  endfacet
  facet normal 0 0 1
    outer loop
      vertex 72.33976739645004 29.964112751185894 19.5
      vertex 74.1875264570117 30.729479618370533 19.5
      vertex 70.81827753037214 37.853157967329025 19.5
    endloop
  endfacet
  facet normal 0 0 1
    outer loop
      vertex 74.9284282848239 22.72929023206234 19.5
      vertex 74.1875264570117 30.729479618370533 19.5
      vertex 72.33976739645004 29.964112751185894 19.5
    endloop
  endfacet
  facet normal 0 0 1
    outer loop
      vertex 66.76700986921787 44.612289711833 19.5
      vertex 69.05443499982357 36.910364493727684 19.5
      vertex 70.81827753037214 37.853157967329025 19.5
    endloop
  endfacet
  facet normal 0 0 1
    outer loop
      vertex 77.92296409606934 7.674742087721825 19.5
      vertex 80.07318179309368 4.616990610957146 19.5
      vertex 79.91333355009556 7.870776370167732 19.5
    endloop
  endfacet
  facet normal 0 0 1
    outer loop
      vertex 78.14580751955509 3.1386598497629166 19.5
      vertex 141.4209569171071 5.680052377283573 19.5
      vertex 80.07318179309368 4.616990610957146 19.5
    endloop
  endfacet
  facet normal 0 0 -1
    outer loop
      vertex 57.476798087358475 53.03806275129318 0
      vertex 59.884995207190514 53.35558446496725 0
      vertex 60.526718497276306 49.672994151711464 0
    endloop
  endfacet
  facet normal 0 0 -1
    outer loop
      vertex 59.884995207190514 53.35558446496725 0
      vertex 62.07273940742016 50.9417807161808 0
      vertex 60.526718497276306 49.672994151711464 0
    endloop
  endfacet
  facet normal 0 0 -1
    outer loop
      vertex 57.476798087358475 53.03806275129318 0
      vertex 104.01612118631601 95.98331408202648 0
      vertex 59.884995207190514 53.35558446496725 0
    endloop
  endfacet
  facet normal -0.7409511241353197 -0.671558956192683 0
    outer loop
      vertex 57.476798087358475 53.03806275129318 0
      vertex 60.526718497276306 49.672994151711464 0
      vertex 57.476798087358475 53.03806275129318 19.5
    endloop
  endfacet
  facet normal 0 0 -1
    outer loop
      vertex 59.884995207190514 53.35558446496725 0
      vertex 104.01612118631601 95.98331408202648 0
      vertex 104.18348481506109 92.82409900426865 0
    endloop
  endfacet
  facet normal -0.6781596699454383 0.7349145950785672 0
    outer loop
      vertex 57.476798087358475 53.03806275129318 0
      vertex 104.01612118631601 95.98331408202648 19.5
      vertex 104.01612118631601 95.98331408202648 0
    endloop
  endfacet
  facet normal -0.7409511241353197 -0.671558956192683 0
    outer loop
      vertex 60.526718497276306 49.672994151711464 0
      vertex 60.526718497276306 49.672994151711464 19.5
      vertex 57.476798087358475 53.03806275129318 19.5
    endloop
  endfacet
  facet normal -0.6781596699454383 0.7349145950785672 0
    outer loop
      vertex 57.476798087358475 53.03806275129318 0
      vertex 57.476798087358475 53.03806275129318 19.5
      vertex 104.01612118631601 95.98331408202648 19.5
    endloop
  endfacet
  facet normal 0 0 1
    outer loop
      vertex 57.476798087358475 53.03806275129318 19.5
      vertex 60.526718497276306 49.672994151711464 19.5
      vertex 59.884995207190514 53.35558446496725 19.5
    endloop
  endfacet
  facet normal 0 0 1
    outer loop
      vertex 59.884995207190514 53.35558446496725 19.5
      vertex 60.526718497276306 49.672994151711464 19.5
      vertex 62.07273940742016 50.9417807161808 19.5
    endloop
  endfacet
  facet normal 0 0 1
    outer loop
      vertex 57.476798087358475 53.03806275129318 19.5
      vertex 59.884995207190514 53.35558446496725 19.5
      vertex 104.18348481506109 92.82409900426865 19.5
    endloop
  endfacet
  facet normal 0 0 1
    outer loop
      vertex 57.476798087358475 53.03806275129318 19.5
      vertex 104.18348481506109 92.82409900426865 19.5
      vertex 104.01612118631601 95.98331408202648 19.5
    endloop
  endfacet
  facet normal 0 0 -1
    outer loop
      vertex 78.14580751955509 3.1386598497629166 0
      vertex 139.30539846420288 8.032298736274242 0
      vertex 141.4209569171071 5.680052377283573 0
    endloop
  endfacet
  facet normal 0 0 -1
    outer loop
      vertex 139.30539846420288 8.032298736274242 0
      vertex 141.0176757723093 13.889028787612915 0
      vertex 141.4209569171071 5.680052377283573 0
    endloop
  endfacet
  facet normal 0 0 -1
    outer loop
      vertex 139.30539846420288 8.032298736274242 0
      vertex 139.02730631828308 13.692994505167007 0
      vertex 141.0176757723093 13.889028787612915 0
    endloop
  endfacet
  facet normal 0 0 -1
    outer loop
      vertex 139.02730631828308 13.692994505167007 0
      vertex 140.53087736457186 15.514753299633774 0
      vertex 141.0176757723093 13.889028787612915 0
    endloop
  endfacet
  facet normal 0 0 -1
    outer loop
      vertex 139.02730631828308 13.692994505167007 0
      vertex 138.7856544754857 15.322078899118878 0
      vertex 140.53087736457186 15.514753299633774 0
    endloop
  endfacet
  facet normal 0 0 -1
    outer loop
      vertex 141.0176757723093 13.889028787612915 0
      vertex 140.53087736457186 15.514753299633774 0
      vertex 140.77256434777962 15.541435785996942 0
    endloop
  endfacet
  facet normal 0 0 -1
    outer loop
      vertex 140.53087736457186 15.514753299633774 0
      vertex 137.01570367068052 27.254117988049984 0
      vertex 140.77256434777962 15.541435785996942 0
    endloop
  endfacet
  facet normal 0 0 -1
    outer loop
      vertex 140.77256434777962 15.541435785996942 0
      vertex 137.01570367068052 27.254117988049984 0
      vertex 139.71059386475406 22.700659235478593 0
    endloop
  endfacet
  facet normal 0 0 -1
    outer loop
      vertex 139.71059386475406 22.700659235478593 0
      vertex 137.01570367068052 27.254117988049984 0
      vertex 139.71059386383158 22.700659241697565 0
    endloop
  endfacet
  facet normal 0.9987954562413885 0.04906767359022171 0
    outer loop
      vertex 141.4209569171071 5.680052377283573 0
      vertex 141.0176757723093 13.889028787612915 0
      vertex 141.4209569171071 5.680052377283573 19.5
    endloop
  endfacet
  facet normal 0.9891765099118577 0.14673047481214202 0
    outer loop
      vertex 141.0176757723093 13.889028787612915 0
      vertex 140.77256434777962 15.541435785996942 0
      vertex 140.77256434777962 15.541435785996942 16
    endloop
  endfacet
  facet normal 0.040131792551416606 -0.9991943951136887 0
    outer loop
      vertex 78.14580751955509 3.1386598497629166 19.5
      vertex 141.4209569171071 5.680052377283573 0
      vertex 141.4209569171071 5.680052377283573 19.5
    endloop
  endfacet
  facet normal 0 0 1
    outer loop
      vertex 80.07318179309368 4.616990610957146 19.5
      vertex 141.4209569171071 5.680052377283573 19.5
      vertex 139.30539846420288 8.032298736274242 19.5
    endloop
  endfacet
  facet normal 0.9891765099118576 0.146730474812142 0
    outer loop
      vertex 141.0176757723093 13.889028787612915 0
      vertex 140.77256434777962 15.541435785996942 16
      vertex 141.0176757723093 13.889028787612915 19.5
    endloop
  endfacet
  facet normal 0.9987954562413885 0.04906767359022171 0
    outer loop
      vertex 141.0176757723093 13.889028787612915 0
      vertex 141.0176757723093 13.889028787612915 19.5
      vertex 141.4209569171071 5.680052377283573 19.5
    endloop
  endfacet
  facet normal 0 0 1
    outer loop
      vertex 139.30539846420288 8.032298736274242 19.5
      vertex 141.4209569171071 5.680052377283573 19.5
      vertex 141.0176757723093 13.889028787612915 19.5
    endloop
  endfacet
  facet normal 0 0 1
    outer loop
      vertex 139.30539846420288 8.032298736274242 19.5
      vertex 141.0176757723093 13.889028787612915 19.5
      vertex 139.02730631828308 13.692994505167007 19.5
    endloop
  endfacet
  facet normal 0 0 1
    outer loop
      vertex 138.97727423161268 27.644298627972603 19.5
      vertex 137.46022704511586 24.257384821621848 19.5
      vertex 137.68037619971153 22.77325977650796 19.5
    endloop
  endfacet
  facet normal 0.9891765099118582 0.14673047481213772 -2.0740434741980987e-15
    outer loop
      vertex 141.0176757723093 13.889028787612915 19.5
      vertex 140.77256434777962 15.541435785996942 16
      vertex 138.97727423161268 27.644298627972603 16
    endloop
  endfacet
  facet normal 0 0 1
    outer loop
      vertex 139.02730631828308 13.692994505167007 19.5
      vertex 141.0176757723093 13.889028787612915 19.5
      vertex 138.97727423161268 27.644298627972603 19.5
    endloop
  endfacet
  facet normal 0.9891765099118582 0.14673047481213825 0
    outer loop
      vertex 141.0176757723093 13.889028787612915 19.5
      vertex 138.97727423161268 27.644298627972603 16
      vertex 138.97727423161268 27.644298627972603 19.5
    endloop
  endfacet
  facet normal 0 0 1
    outer loop
      vertex 139.02730631828308 13.692994505167007 19.5
      vertex 138.97727423161268 27.644298627972603 19.5
      vertex 137.68037619971153 22.77325977650796 19.5
    endloop
  endfacet
  facet normal 0 0 1
    outer loop
      vertex 133.6845649033785 40.55276941508055 19.5
      vertex 130.91372975707054 54.22624236345291 19.5
      vertex 129.0659706890583 53.46087550371885 19.5
    endloop
  endfacet
  facet normal 0.9700312531944757 0.2429801799035363 0
    outer loop
      vertex 138.97727423161268 27.644298627972603 16
      vertex 135.59844557195902 41.13333876430988 16
      vertex 138.97727423161268 27.644298627972603 19.5
    endloop
  endfacet
  facet normal 0 0 1
    outer loop
      vertex 137.01570367068052 27.254117988049984 19.5
      vertex 137.46022704511586 24.257384821621848 19.5
      vertex 138.97727423161268 27.644298627972603 19.5
    endloop
  endfacet
  facet normal 0 0 1
    outer loop
      vertex 137.01570367068052 27.254117988049984 19.5
      vertex 138.97727423161268 27.644298627972603 19.5
      vertex 135.59844557195902 41.13333876430988 19.5
    endloop
  endfacet
  facet normal 0 0 1
    outer loop
      vertex 137.01570367068052 27.254117988049984 19.5
      vertex 135.59844557195902 41.13333876430988 19.5
      vertex 133.6845649033785 40.55276941508055 19.5
    endloop
  endfacet
  facet normal 0.9700312531944757 0.2429801799035363 0
    outer loop
      vertex 138.97727423161268 27.644298627972603 19.5
      vertex 135.59844557195902 41.13333876430988 16
      vertex 135.59844557195902 41.13333876430988 19.5
    endloop
  endfacet
  facet normal 0.9415440652173371 0.33688985329631177 0
    outer loop
      vertex 135.59844557195902 41.13333876430988 16
      vertex 130.91372975707054 54.22624236345291 16
      vertex 135.59844557195902 41.13333876430988 19.5
    endloop
  endfacet
  facet normal 0 0 1
    outer loop
      vertex 133.6845649033785 40.55276941508055 19.5
      vertex 135.59844557195902 41.13333876430988 19.5
      vertex 130.91372975707054 54.22624236345291 19.5
    endloop
  endfacet
  facet normal 0 0 -1
    outer loop
      vertex 104.18348481506109 92.82409900426865 0
      vertex 104.01612118631601 95.98331408202648 0
      vertex 109.53558123856783 89.89352836459875 0
    endloop
  endfacet
  facet normal 0 0 -1
    outer loop
      vertex 107.98956033587456 88.62474180012941 0
      vertex 109.15570116915748 87.45020684881584 0
      vertex 108.97062330349802 87.30193151855548 0
    endloop
  endfacet
  facet normal 0 0 -1
    outer loop
      vertex 107.98956033587456 88.62474180012941 0
      vertex 109.53558123856783 89.89352836459875 0
      vertex 109.15570116915748 87.45020684881584 0
    endloop
  endfacet
  facet normal 0 0 -1
    outer loop
      vertex 109.15570116915748 87.45020684881584 0
      vertex 109.53558123856783 89.89352836459875 0
      vertex 110.53068948840944 88.55178021316586 0
    endloop
  endfacet
  facet normal 0.8032075313741215 0.5956993046360637 0
    outer loop
      vertex 109.53558123856783 89.89352836459875 0
      vertex 110.53068948840944 88.55178021316586 1.5
      vertex 110.53068948840944 88.55178021316586 0
    endloop
  endfacet
  facet normal 0 0 -1
    outer loop
      vertex 104.18348481506109 92.82409900426865 0
      vertex 109.53558123856783 89.89352836459875 0
      vertex 107.98956033587456 88.62474180012941 0
    endloop
  endfacet
  facet normal 0 0 -1
    outer loop
      vertex 110.42589952805163 86.17086534473496 0
      vertex 114.84209840806953 82.73851823996242 0
      vertex 115.19319518812378 81.36925372443271 0
    endloop
  endfacet
  facet normal 0 0 -1
    outer loop
      vertex 115.19319518812378 81.36925372443271 0
      vertex 114.84209840806953 82.73851823996242 0
      vertex 116.60768766845575 80.35789670789285 0
    endloop
  endfacet
  facet normal 0.8032075313741214 0.5956993046360635 -1.1917148249249387e-16
    outer loop
      vertex 109.53558123856783 89.89352836459875 0
      vertex 110.53068948924053 88.55178021204526 16
      vertex 110.53068948840944 88.55178021316586 1.5
    endloop
  endfacet
  facet normal 0.8032068190826939 0.595700265048674 0
    outer loop
      vertex 110.53068948840944 88.55178021316586 1.5
      vertex 110.53068948924053 88.55178021204526 16
      vertex 110.53068948924053 88.55178021204526 1.5
    endloop
  endfacet
  facet normal 0.7409511249113053 0.6715589553365148 0
    outer loop
      vertex 104.01612118631601 95.98331408202648 0
      vertex 109.53558123856783 89.89352836459875 19.5
      vertex 109.53558123856783 89.89352836459875 0
    endloop
  endfacet
  facet normal -1.7952263090761426e-15 -1.1902417608634744e-15 -1
    outer loop
      vertex 128.65532318606097 57.63256789006317 0
      vertex 128.74491764798753 54.13968512662297 3.9965325956486486e-15
      vertex 123.20440062880516 65.85412413626909 0
    endloop
  endfacet
  facet normal -1.5719942530564065e-14 -1.547418781060848e-15 -1
    outer loop
      vertex 128.65532318606097 57.63256789006317 0
      vertex 129.0659706890583 53.46087550371885 0
      vertex 128.74491764798753 54.13968512662297 3.9965325956486486e-15
    endloop
  endfacet
  facet normal 0 0 1
    outer loop
      vertex 117.81924406439066 78.72430201619864 19.5
      vertex 123.20440062880516 65.85412413626909 19.5
      vertex 124.96824315935373 66.79691760987043 19.5
    endloop
  endfacet
  facet normal 0.8032075313741208 0.5956993046360645 0
    outer loop
      vertex 109.53558123856783 89.89352836459875 0
      vertex 109.53558123856783 89.89352836459875 19.5
      vertex 110.53068948924053 88.55178021204526 16
    endloop
  endfacet
  facet normal 0.7409511249113053 0.6715589553365148 0
    outer loop
      vertex 104.01612118631601 95.98331408202648 0
      vertex 104.01612118631601 95.98331408202648 19.5
      vertex 109.53558123856783 89.89352836459875 19.5
    endloop
  endfacet
  facet normal 0 0 1
    outer loop
      vertex 104.18348481506109 92.82409900426865 19.5
      vertex 109.53558123856783 89.89352836459875 19.5
      vertex 104.01612118631601 95.98331408202648 19.5
    endloop
  endfacet
  facet normal 0 0 1
    outer loop
      vertex 107.98956033587456 88.62474180012941 19.5
      vertex 113.45785406564906 81.25160123002453 19.5
      vertex 109.53558123856783 89.89352836459875 19.5
    endloop
  endfacet
  facet normal 0 0 1
    outer loop
      vertex 104.18348481506109 92.82409900426865 19.5
      vertex 107.98956033587456 88.62474180012941 19.5
      vertex 109.53558123856783 89.89352836459875 19.5
    endloop
  endfacet
  facet normal 0.8032075313741222 0.5956993046360625 0
    outer loop
      vertex 110.53068948924053 88.55178021204526 16
      vertex 117.81924406439066 78.72430201619864 19.5
      vertex 117.81924406439066 78.72430201619864 16
    endloop
  endfacet
  facet normal 0 0 1
    outer loop
      vertex 113.45785406564906 81.25160123002453 19.5
      vertex 114.35161998922122 80.04649738650095 19.5
      vertex 109.53558123856783 89.89352836459875 19.5
    endloop
  endfacet
  facet normal 0 0 1
    outer loop
      vertex 109.53558123856783 89.89352836459875 19.5
      vertex 114.35161998922122 80.04649738650095 19.5
      vertex 116.1563048362732 77.61316155642271 19.5
    endloop
  endfacet
  facet normal 0 0 1
    outer loop
      vertex 109.53558123856783 89.89352836459875 19.5
      vertex 116.1563048362732 77.61316155642271 19.5
      vertex 117.81924406439066 78.72430201619864 19.5
    endloop
  endfacet
  facet normal 0 0 1
    outer loop
      vertex 116.1563048362732 77.61316155642271 19.5
      vertex 123.20440062880516 65.85412413626909 19.5
      vertex 117.81924406439066 78.72430201619864 19.5
    endloop
  endfacet
  facet normal 0.8577286099161602 0.5141027443335539 0
    outer loop
      vertex 117.81924406439066 78.72430201619864 16
      vertex 117.81924406439066 78.72430201619864 19.5
      vertex 124.96824315935373 66.79691760987043 19.5
    endloop
  endfacet
  facet normal 0.803207531374122 0.5956993046360627 1.0219387787900534e-15
    outer loop
      vertex 110.53068948924053 88.55178021204526 16
      vertex 109.53558123856783 89.89352836459875 19.5
      vertex 117.81924406439066 78.72430201619864 19.5
    endloop
  endfacet
  facet normal 0.9415440652173371 0.33688985329631177 0
    outer loop
      vertex 135.59844557195902 41.13333876430988 19.5
      vertex 130.91372975707054 54.22624236345291 16
      vertex 130.91372975707054 54.22624236345291 19.5
    endloop
  endfacet
  facet normal 0.9039892932070388 0.4275550932535343 0
    outer loop
      vertex 130.91372975707054 54.22624236345291 16
      vertex 124.96824315935373 66.79691760987043 16
      vertex 130.91372975707054 54.22624236345291 19.5
    endloop
  endfacet
  facet normal 0 0 1
    outer loop
      vertex 124.96824315935373 66.79691760987043 19.5
      vertex 128.74491764798753 54.13968512662297 19.5
      vertex 129.0659706890583 53.46087550371885 19.5
    endloop
  endfacet
  facet normal 0 0 1
    outer loop
      vertex 130.91372975707054 54.22624236345291 19.5
      vertex 124.96824315935373 66.79691760987043 19.5
      vertex 129.0659706890583 53.46087550371885 19.5
    endloop
  endfacet
  facet normal 0.9039892932070388 0.4275550932535343 0
    outer loop
      vertex 130.91372975707054 54.22624236345291 19.5
      vertex 124.96824315935373 66.79691760987043 16
      vertex 124.96824315935373 66.79691760987043 19.5
    endloop
  endfacet
  facet normal 0 0 1
    outer loop
      vertex 123.20440062880516 65.85412413626909 19.5
      vertex 128.74491764798753 54.13968512662297 19.5
      vertex 124.96824315935373 66.79691760987043 19.5
    endloop
  endfacet
  facet normal 0.8577286099161602 0.5141027443335539 0
    outer loop
      vertex 117.81924406439066 78.72430201619864 16
      vertex 124.96824315935373 66.79691760987043 19.5
      vertex 124.96824315935373 66.79691760987043 16
    endloop
  endfacet
  facet normal 0.9700312532069139 0.24298017985388098 0
    outer loop
      vertex 78.75705801695585 15.665752857923508 0
      vertex 76.84230896085501 23.309859581291676 0
      vertex 76.84230896085501 23.309859581291676 19.5
    endloop
  endfacet
  facet normal 0.8577286099005935 0.5141027443595255 0
    outer loop
      vertex 66.76700986921787 44.612289711833 0
      vertex 66.76700986921787 44.612289711833 19.5
      vertex 70.81827753037214 37.853157967329025 0
    endloop
  endfacet
  facet normal 0.8032075314321174 0.595699304557865 0
    outer loop
      vertex 66.76700986921787 44.612289711833 0
      vertex 62.07273940742016 50.9417807161808 0
      vertex 62.07273940742016 50.9417807161808 19.5
    endloop
  endfacet
  facet normal 0.903989293476458 0.42755509268389547 0
    outer loop
      vertex 70.81827753037214 37.853157967329025 0
      vertex 70.81827753037214 37.853157967329025 19.5
      vertex 74.1875264570117 30.729479618370533 0
    endloop
  endfacet
  facet normal 0.9415440649979979 0.3368898539093242 0
    outer loop
      vertex 76.84230896085501 23.309859581291676 0
      vertex 74.1875264570117 30.729479618370533 0
      vertex 74.1875264570117 30.729479618370533 19.5
    endloop
  endfacet
  facet normal 0.9987954562228737 0.049067673967099136 0
    outer loop
      vertex 80.07318179309368 4.616990610957146 0
      vertex 79.91333355009556 7.870776370167732 0
      vertex 79.91333355009556 7.870776370167732 19.5
    endloop
  endfacet
  facet normal 0.9891765100017974 0.14673047420581736 0
    outer loop
      vertex 78.75705801695585 15.665752857923508 0
      vertex 78.75705801695585 15.665752857923508 19.5
      vertex 79.91333355009556 7.870776370167732 0
    endloop
  endfacet
  facet normal -0.05756402697294559 0.998341816613257 0
    outer loop
      vertex 80.07318179309368 4.616990610957146 0
      vertex 80.07318179309368 4.616990610957146 19.5
      vertex 139.30539846420288 8.032298736274242 0
    endloop
  endfacet
  facet normal 0.9700312532069139 0.24298017985388098 0
    outer loop
      vertex 78.75705801695585 15.665752857923508 0
      vertex 76.84230896085501 23.309859581291676 19.5
      vertex 78.75705801695585 15.665752857923508 19.5
    endloop
  endfacet
  facet normal 0.9415440649979979 0.3368898539093242 0
    outer loop
      vertex 76.84230896085501 23.309859581291676 0
      vertex 74.1875264570117 30.729479618370533 19.5
      vertex 76.84230896085501 23.309859581291676 19.5
    endloop
  endfacet
  facet normal 0.8032075314321174 0.595699304557865 0
    outer loop
      vertex 66.76700986921787 44.612289711833 0
      vertex 62.07273940742016 50.9417807161808 19.5
      vertex 66.76700986921787 44.612289711833 19.5
    endloop
  endfacet
  facet normal 0.903989293476458 0.42755509268389547 0
    outer loop
      vertex 74.1875264570117 30.729479618370533 0
      vertex 70.81827753037214 37.853157967329025 19.5
      vertex 74.1875264570117 30.729479618370533 19.5
    endloop
  endfacet
  facet normal 0.8577286099005935 0.5141027443595255 0
    outer loop
      vertex 70.81827753037214 37.853157967329025 0
      vertex 66.76700986921787 44.612289711833 19.5
      vertex 70.81827753037214 37.853157967329025 19.5
    endloop
  endfacet
  facet normal 0.9987954562228737 0.049067673967099136 0
    outer loop
      vertex 80.07318179309368 4.616990610957146 0
      vertex 79.91333355009556 7.870776370167732 19.5
      vertex 80.07318179309368 4.616990610957146 19.5
    endloop
  endfacet
  facet normal 0.9891765100017974 0.14673047420581736 0
    outer loop
      vertex 79.91333355009556 7.870776370167732 0
      vertex 78.75705801695585 15.665752857923508 19.5
      vertex 79.91333355009556 7.870776370167732 19.5
    endloop
  endfacet
  facet normal 0.7409511244462541 0.6715589558496199 0
    outer loop
      vertex 59.884995207190514 53.35558446496725 0
      vertex 59.884995207190514 53.35558446496725 19.5
      vertex 62.07273940742016 50.9417807161808 0
    endloop
  endfacet
  facet normal 0.6652303546623176 -0.7466381822783023 0
    outer loop
      vertex 59.884995207190514 53.35558446496725 0
      vertex 104.18348481506109 92.82409900426865 0
      vertex 104.18348481506109 92.82409900426865 19.5
    endloop
  endfacet
  facet normal 0.7409511244462541 0.6715589558496199 0
    outer loop
      vertex 62.07273940742016 50.9417807161808 0
      vertex 59.884995207190514 53.35558446496725 19.5
      vertex 62.07273940742016 50.9417807161808 19.5
    endloop
  endfacet
  facet normal 0.6652303546623176 -0.7466381822783023 0
    outer loop
      vertex 59.884995207190514 53.35558446496725 0
      vertex 104.18348481506109 92.82409900426865 19.5
      vertex 59.884995207190514 53.35558446496725 19.5
    endloop
  endfacet
  facet normal -0.9987954562458946 -0.04906767349849925 0
    outer loop
      vertex 139.30539846420288 8.032298736274242 0
      vertex 139.30539846420288 8.032298736274242 19.5
      vertex 139.02730631828308 13.692994505167007 0
    endloop
  endfacet
  facet normal -0.9891765099262486 -0.14673047471512524 0
    outer loop
      vertex 139.02730631828308 13.692994505167007 0
      vertex 139.02730631828308 13.692994505167007 19.5
      vertex 138.7856544754857 15.322078899118878 0
    endloop
  endfacet
  facet normal -0.9891765099262488 -0.14673047471512526 0
    outer loop
      vertex 138.7856544754857 15.322078899118878 0
      vertex 139.02730631828308 13.692994505167007 19.5
      vertex 138.7856544754857 15.322078899118878 1.5
    endloop
  endfacet
  facet normal -0.9891765099262477 -0.14673047471513256 0
    outer loop
      vertex 137.01570367068052 27.254117988049984 1.5
      vertex 137.46022704511586 24.257384821621848 1.5
      vertex 137.46022704511586 24.257384821621848 19.5
    endloop
  endfacet
  facet normal -0.9891765099262481 -0.1467304747151292 -3.6682964646421267e-16
    outer loop
      vertex 138.7856544754857 15.322078899118878 1.5
      vertex 139.02730631828308 13.692994505167007 19.5
      vertex 137.68037619971153 22.77325977650796 1.5
    endloop
  endfacet
  facet normal -0.9415440650795857 -0.3368898536813018 0
    outer loop
      vertex 133.6845649033785 40.55276941508055 1.5
      vertex 129.0659706890583 53.46087550371885 19.5
      vertex 129.0659706890583 53.46087550371885 1.5
    endloop
  endfacet
  facet normal -0.9700312532512548 -0.24298017967686134 0
    outer loop
      vertex 137.01570367068052 27.254117988049984 1.5
      vertex 133.6845649033785 40.55276941508055 19.5
      vertex 133.6845649033785 40.55276941508055 1.5
    endloop
  endfacet
  facet normal -0.05756402697294559 0.998341816613257 0
    outer loop
      vertex 80.07318179309368 4.616990610957146 19.5
      vertex 139.30539846420288 8.032298736274242 19.5
      vertex 139.30539846420288 8.032298736274242 0
    endloop
  endfacet
  facet normal -0.9987954562458946 -0.04906767349849925 0
    outer loop
      vertex 139.02730631828308 13.692994505167007 0
      vertex 139.30539846420288 8.032298736274242 19.5
      vertex 139.02730631828308 13.692994505167007 19.5
    endloop
  endfacet
  facet normal -0.9891765099262482 -0.1467304747151285 0
    outer loop
      vertex 139.02730631828308 13.692994505167007 19.5
      vertex 137.68037619971153 22.77325977650796 19.5
      vertex 137.68037619971153 22.77325977650796 1.5
    endloop
  endfacet
  facet normal -0.9891765099262477 -0.14673047471513256 0
    outer loop
      vertex 137.01570367068052 27.254117988049984 1.5
      vertex 137.46022704511586 24.257384821621848 19.5
      vertex 137.01570367068052 27.254117988049984 19.5
    endloop
  endfacet
  facet normal -0.9415440650795857 -0.3368898536813018 0
    outer loop
      vertex 133.6845649033785 40.55276941508055 1.5
      vertex 133.6845649033785 40.55276941508055 19.5
      vertex 129.0659706890583 53.46087550371885 19.5
    endloop
  endfacet
  facet normal -0.9700312532512548 -0.24298017967686134 0
    outer loop
      vertex 137.01570367068052 27.254117988049984 1.5
      vertex 137.01570367068052 27.254117988049984 19.5
      vertex 133.6845649033785 40.55276941508055 19.5
    endloop
  endfacet
  facet normal -0.8577286099813177 -0.5141027442248451 0
    outer loop
      vertex 116.1563048362732 77.61316155642271 0
      vertex 123.20440062880516 65.85412413626909 0
      vertex 123.20440062880516 65.85412413626909 1.5
    endloop
  endfacet
  facet normal -0.8577286099813178 -0.5141027442248451 0
    outer loop
      vertex 116.1563048362732 77.61316155642271 0
      vertex 123.20440062880516 65.85412413626909 1.5
      vertex 123.20440062880516 65.85412413626909 19.5
    endloop
  endfacet
  facet normal -0.8032075315736471 -0.5956993043670346 0
    outer loop
      vertex 107.98956033587456 88.62474180012941 0
      vertex 108.97062330349802 87.30193151855548 0
      vertex 108.97062330349802 87.30193151855548 1.5
    endloop
  endfacet
  facet normal -0.7409511247279372 -0.6715589555388305 0
    outer loop
      vertex 104.18348481506109 92.82409900426865 0
      vertex 107.98956033587456 88.62474180012941 0
      vertex 107.98956033587456 88.62474180012941 19.5
    endloop
  endfacet
  facet normal -0.8032075315736467 -0.595699304367035 -7.262170917141273e-16
    outer loop
      vertex 107.98956033587456 88.62474180012941 0
      vertex 108.97062330349802 87.30193151855548 1.5
      vertex 113.45785406564906 81.25160123002453 19.5
    endloop
  endfacet
  facet normal -0.8577286099813177 -0.5141027442248451 0
    outer loop
      vertex 116.1563048362732 77.61316155642271 0
      vertex 123.20440062880516 65.85412413626909 19.5
      vertex 116.1563048362732 77.61316155642271 1.5
    endloop
  endfacet
  facet normal -0.803207531573648 -0.5956993043670332 0
    outer loop
      vertex 116.1563048362732 77.61316155642271 1.5
      vertex 116.1563048362732 77.61316155642271 19.5
      vertex 114.35161998922122 80.04649738650095 1.5
    endloop
  endfacet
  facet normal -0.8032075315736477 -0.5956993043670336 0
    outer loop
      vertex 108.97062330349802 87.30193151855548 1.5
      vertex 113.45785406564906 81.25160123002453 1.5
      vertex 113.45785406564906 81.25160123002453 19.5
    endloop
  endfacet
  facet normal -0.9039892931743696 -0.4275550933226074 0
    outer loop
      vertex 123.20440062880516 65.85412413626909 1.5
      vertex 128.74491764798753 54.13968512662297 1.5
      vertex 128.74491764798753 54.13968512662297 19.5
    endloop
  endfacet
  facet normal -0.7409511247279372 -0.6715589555388305 0
    outer loop
      vertex 104.18348481506109 92.82409900426865 0
      vertex 107.98956033587456 88.62474180012941 19.5
      vertex 104.18348481506109 92.82409900426865 19.5
    endloop
  endfacet
  facet normal -0.8032075315736477 -0.5956993043670338 0
    outer loop
      vertex 107.98956033587456 88.62474180012941 0
      vertex 113.45785406564906 81.25160123002453 19.5
      vertex 107.98956033587456 88.62474180012941 19.5
    endloop
  endfacet
  facet normal -0.803207531573648 -0.5956993043670332 0
    outer loop
      vertex 116.1563048362732 77.61316155642271 19.5
      vertex 114.35161998922122 80.04649738650095 19.5
      vertex 114.35161998922122 80.04649738650095 1.5
    endloop
  endfacet
  facet normal -0.8577286099813178 -0.5141027442248451 0
    outer loop
      vertex 116.1563048362732 77.61316155642271 1.5
      vertex 123.20440062880516 65.85412413626909 19.5
      vertex 116.1563048362732 77.61316155642271 19.5
    endloop
  endfacet
  facet normal -0.9039892931743696 -0.4275550933226074 0
    outer loop
      vertex 123.20440062880516 65.85412413626909 1.5
      vertex 128.74491764798753 54.13968512662297 19.5
      vertex 123.20440062880516 65.85412413626909 19.5
    endloop
  endfacet
  facet normal -0.9857034690888543 -0.16848937956499796 0
    outer loop
      vertex 79.27835560250868 12.790419577253067 0
      vertex 79.02562153316119 14.268974780886348 19.5
      vertex 79.02562153316119 14.268974780886348 0
    endloop
  endfacet
  facet normal -0.16848937956500262 0.9857034690888535 0
    outer loop
      vertex 79.02562153316119 14.268974780886348 0
      vertex 79.02562153316119 14.268974780886348 19.5
      vertex 137.46022704383097 24.257384821402223 1.5
    endloop
  endfacet
  facet normal -0.9857034690888543 -0.16848937956499796 0
    outer loop
      vertex 79.27835560250868 12.790419577253067 0
      vertex 79.27835560250868 12.790419577253067 19.5
      vertex 79.02562153316119 14.268974780886348 19.5
    endloop
  endfacet
  facet normal 0.16848937956500257 -0.9857034690888534 0
    outer loop
      vertex 79.27835560250868 12.790419577253067 0
      vertex 137.68037619971153 22.77325977650796 19.5
      vertex 79.27835560250868 12.790419577253067 19.5
    endloop
  endfacet
  facet normal 0.1684893795650026 -0.9857034690888535 0
    outer loop
      vertex 79.27835560250868 12.790419577253067 0
      vertex 137.6803761977903 22.77325977617956 0
      vertex 137.6803761977903 22.77325977617956 1.5
    endloop
  endfacet
  facet normal 0 0 -1
    outer loop
      vertex 79.02562153316119 14.268974780886348 0
      vertex 137.46022704383097 24.257384821402223 0
      vertex 137.46022704511586 24.257384821621848 0
    endloop
  endfacet
  facet normal -0.16848937956500262 0.9857034690888536 0
    outer loop
      vertex 79.02562153316119 14.268974780886348 0
      vertex 137.46022704383097 24.257384821402223 1.5
      vertex 137.46022704383097 24.257384821402223 0
    endloop
  endfacet
  facet normal 0.16848937956500265 -0.9857034690888536 -1.065997271917252e-16
    outer loop
      vertex 79.27835560250868 12.790419577253067 0
      vertex 137.6803761977903 22.77325977617956 1.5
      vertex 137.68037619971153 22.77325977650796 19.5
    endloop
  endfacet
  facet normal 0.1684884329653738 -0.9857036308936236 0
    outer loop
      vertex 137.6803761977903 22.77325977617956 1.5
      vertex 137.68037619971153 22.77325977650796 1.5
      vertex 137.68037619971153 22.77325977650796 19.5
    endloop
  endfacet
  facet normal -0.1684857790692969 0.9857040845260874 0
    outer loop
      vertex 137.46022704383097 24.257384821402223 1.5
      vertex 137.46022704511586 24.257384821621848 19.5
      vertex 137.46022704511586 24.257384821621848 1.5
    endloop
  endfacet
  facet normal -0.1684893795650025 0.9857034690888534 3.196208518056213e-16
    outer loop
      vertex 79.02562153316119 14.268974780886348 19.5
      vertex 137.46022704511586 24.257384821621848 19.5
      vertex 137.46022704383097 24.257384821402223 1.5
    endloop
  endfacet
  facet normal -0.9238795325112872 -0.3826834323650885 0
    outer loop
      vertex 73.90051388638251 31.42238926830018 0
      vertex 74.47453903493015 30.036569969533247 0
      vertex 73.90051388638251 31.42238926830018 19.5
    endloop
  endfacet
  facet normal -0.3826834323650898 0.9238795325112866 0
    outer loop
      vertex 73.90051388638251 31.42238926830018 0
      vertex 73.90051388638251 31.42238926830018 19.5
      vertex 128.74491764798753 54.13968512662297 3.9965325956486486e-15
    endloop
  endfacet
  facet normal -0.9238795325112872 -0.3826834323650885 0
    outer loop
      vertex 74.47453903493015 30.036569969533247 0
      vertex 74.47453903493015 30.036569969533247 19.5
      vertex 73.90051388638251 31.42238926830018 19.5
    endloop
  endfacet
  facet normal 0.3826834323650898 -0.9238795325112867 0
    outer loop
      vertex 74.47453903493015 30.036569969533247 0
      vertex 129.3189427963753 52.75386582778982 19.5
      vertex 74.47453903493015 30.036569969533247 19.5
    endloop
  endfacet
  facet normal 0.3826834323650898 -0.9238795325112867 0
    outer loop
      vertex 74.47453903493015 30.036569969533247 0
      vertex 129.3189427963753 52.75386582778982 0
      vertex 129.3189427963753 52.75386582778982 19.5
    endloop
  endfacet
  facet normal -0.38268343236509006 0.9238795325112867 0
    outer loop
      vertex 73.90051388638251 31.42238926830018 19.5
      vertex 128.74491764798753 54.13968512662297 1.5
      vertex 128.74491764798753 54.13968512662297 3.9965325956486486e-15
    endloop
  endfacet
  facet normal -0.3826834323650898 0.9238795325112866 0
    outer loop
      vertex 73.90051388638251 31.42238926830018 19.5
      vertex 128.74491764798753 54.13968512662297 19.5
      vertex 128.74491764798753 54.13968512662297 1.5
    endloop
  endfacet
  facet normal -0.8161375900801571 -0.5778576243835096 0
    outer loop
      vertex 65.9692417017245 45.789864045435365 0
      vertex 65.10245526514923 47.014070430555606 19.5
      vertex 65.10245526514923 47.014070430555606 0
    endloop
  endfacet
  facet normal -0.8161375900801571 -0.5778576243835096 0
    outer loop
      vertex 65.9692417017245 45.789864045435365 0
      vertex 65.9692417017245 45.789864045435365 19.5
      vertex 65.10245526514923 47.014070430555606 19.5
    endloop
  endfacet
  facet normal -0.5778576243835054 0.8161375900801603 0
    outer loop
      vertex 65.10245526514923 47.014070430555606 0
      vertex 113.45785406407164 81.25160122890766 1.5
      vertex 113.45785406407164 81.25160122890766 0
    endloop
  endfacet
  facet normal 0.5778576243835052 -0.8161375900801604 0
    outer loop
      vertex 65.9692417017245 45.789864045435365 0
      vertex 114.35161998816626 80.046497385754 0
      vertex 114.35161998816626 80.046497385754 1.5
    endloop
  endfacet
  facet normal -0.5778576243835053 0.8161375900801602 0
    outer loop
      vertex 65.10245526514923 47.014070430555606 0
      vertex 65.10245526514923 47.014070430555606 19.5
      vertex 113.45785406407164 81.25160122890766 1.5
    endloop
  endfacet
  facet normal 0.5778576243835052 -0.8161375900801604 0
    outer loop
      vertex 65.9692417017245 45.789864045435365 0
      vertex 114.35161998816626 80.046497385754 1.5
      vertex 114.35161998922122 80.04649738650095 19.5
    endloop
  endfacet
  facet normal 0.5778576243835052 -0.8161375900801604 0
    outer loop
      vertex 65.9692417017245 45.789864045435365 0
      vertex 114.35161998922122 80.04649738650095 19.5
      vertex 65.9692417017245 45.789864045435365 19.5
    endloop
  endfacet
  facet normal -0.5778576243835053 0.8161375900801602 2.1319945437220846e-16
    outer loop
      vertex 65.10245526514923 47.014070430555606 19.5
      vertex 113.45785406564906 81.25160123002453 19.5
      vertex 113.45785406407164 81.25160122890766 1.5
    endloop
  endfacet
  facet normal -0.577857189052384 0.8161378983116012 0
    outer loop
      vertex 113.45785406407164 81.25160122890766 1.5
      vertex 113.45785406564906 81.25160123002453 19.5
      vertex 113.45785406564906 81.25160123002453 1.5
    endloop
  endfacet
  facet normal 0.5778574934397339 -0.8161376827935026 0
    outer loop
      vertex 114.35161998816626 80.046497385754 1.5
      vertex 114.35161998922122 80.04649738650095 1.5
      vertex 114.35161998922122 80.04649738650095 19.5
    endloop
  endfacet
  facet normal 0 0 -1
    outer loop
      vertex 79.27835560250868 12.790419577253067 0
      vertex 79.02562153316119 14.268974780886348 0
      vertex 137.46022704511586 24.257384821621848 0
    endloop
  endfacet
  facet normal 0 0 -1
    outer loop
      vertex 73.90051388638251 31.42238926830018 0
      vertex 129.0659706890583 53.46087550371885 0
      vertex 74.47453903493015 30.036569969533247 0
    endloop
  endfacet
  facet normal 0 0 1
    outer loop
      vertex 79.27835560250868 12.790419577253067 19.5
      vertex 137.68037619971153 22.77325977650796 19.5
      vertex 79.02562153316119 14.268974780886348 19.5
    endloop
  endfacet
  facet normal 0 0 1
    outer loop
      vertex 73.90051388638251 31.42238926830018 19.5
      vertex 74.47453903493015 30.036569969533247 19.5
      vertex 129.0659706890583 53.46087550371885 19.5
    endloop
  endfacet
  facet normal 0 0 -1
    outer loop
      vertex 65.9692417017245 45.789864045435365 0
      vertex 65.10245526514923 47.014070430555606 0
      vertex 113.45785406407164 81.25160122890766 0
    endloop
  endfacet
  facet normal 0 0 -1
    outer loop
      vertex 65.9692417017245 45.789864045435365 0
      vertex 113.45785406407164 81.25160122890766 0
      vertex 114.35161998816626 80.046497385754 0
    endloop
  endfacet
  facet normal 0 0 1
    outer loop
      vertex 65.9692417017245 45.789864045435365 19.5
      vertex 114.35161998922122 80.04649738650095 19.5
      vertex 65.10245526514923 47.014070430555606 19.5
    endloop
  endfacet
  facet normal 0 0 1
    outer loop
      vertex 65.10245526514923 47.014070430555606 19.5
      vertex 114.35161998922122 80.04649738650095 19.5
      vertex 113.45785406564906 81.25160123002453 19.5
    endloop
  endfacet
  facet normal 0 0 -1
    outer loop
      vertex 79.27835560250868 12.790419577253067 0
      vertex 137.46022704511586 24.257384821621848 0
      vertex 137.6803761977903 22.77325977617956 0
    endloop
  endfacet
  facet normal -1.978276012680444e-15 4.951905441940146e-15 -1
    outer loop
      vertex 73.90051388638251 31.42238926830018 0
      vertex 128.74491764798753 54.13968512662297 3.9965325956486486e-15
      vertex 129.0659706890583 53.46087550371885 0
    endloop
  endfacet
  facet normal 0 0 -1
    outer loop
      vertex 74.47453903493015 30.036569969533247 0
      vertex 129.0659706890583 53.46087550371885 0
      vertex 129.3189427963753 52.75386582778982 0
    endloop
  endfacet
  facet normal 0 0 1
    outer loop
      vertex 79.02562153316119 14.268974780886348 19.5
      vertex 137.68037619971153 22.77325977650796 19.5
      vertex 137.46022704511586 24.257384821621848 19.5
    endloop
  endfacet
  facet normal 0 0 1
    outer loop
      vertex 73.90051388638251 31.42238926830018 19.5
      vertex 129.0659706890583 53.46087550371885 19.5
      vertex 128.74491764798753 54.13968512662297 19.5
    endloop
  endfacet
  facet normal 0 0 1
    outer loop
      vertex 74.47453903493015 30.036569969533247 19.5
      vertex 129.3189427963753 52.75386582778982 19.5
      vertex 129.0659706890583 53.46087550371885 19.5
    endloop
  endfacet
  facet normal 0.9415440650795891 0.3368898536812924 0
    outer loop
      vertex 129.3189427963753 52.75386582778982 0
      vertex 129.0659706890583 53.46087550371885 0
      vertex 129.0659706890583 53.46087550371885 1.5
    endloop
  endfacet
  facet normal 0.941544065079589 0.3368898536812924 0
    outer loop
      vertex 129.3189427963753 52.75386582778982 0
      vertex 129.0659706890583 53.46087550371885 1.5
      vertex 129.0659706890583 53.46087550371885 19.5
    endloop
  endfacet
  facet normal 0.941544065079589 0.3368898536812924 0
    outer loop
      vertex 129.3189427963753 52.75386582778982 0
      vertex 129.0659706890583 53.46087550371885 19.5
      vertex 129.3189427963753 52.75386582778982 19.5
    endloop
  endfacet
  facet normal 0 0 -1
    outer loop
      vertex 140.77256434777962 15.541435785996942 0
      vertex 139.71059386475406 22.700659235478593 0
      vertex 143.75292914360762 15.870471127331257 0
    endloop
  endfacet
  facet normal 0.10973431260959271 -0.9939609552875306 0
    outer loop
      vertex 140.77256434777962 15.541435785996942 0
      vertex 143.75292914360762 15.870471127331257 0
      vertex 140.77256434777962 15.541435785996942 16
    endloop
  endfacet
  facet normal 0.10973431260959271 -0.9939609552875306 0
    outer loop
      vertex 143.75292914360762 15.870471127331257 0
      vertex 143.75292914360762 15.870471127331257 1.5
      vertex 140.77256434777962 15.541435785996942 16
    endloop
  endfacet
  facet normal 0.9891765100378123 0.14673047396302472 0
    outer loop
      vertex 143.75292914360762 15.870471127331257 1.5
      vertex 141.91963007301092 28.229569599032402 1.5
      vertex 143.75292914360762 15.870471127331257 16
    endloop
  endfacet
  facet normal 0 0 -1
    outer loop
      vertex 138.4692665785551 42.00419279932976 0
      vertex 133.6850631031789 49.74325534146811 0
      vertex 133.68536835163832 55.37429266422987 0
    endloop
  endfacet
  facet normal 0.9415440651671838 0.3368898534364813 0
    outer loop
      vertex 138.4692665785551 42.00419279932976 0
      vertex 133.68536835163832 55.37429266422987 0
      vertex 138.4692665785551 42.00419279932976 1.5
    endloop
  endfacet
  facet normal 0.9700312531740833 0.24298017998494736 0
    outer loop
      vertex 141.91963007301092 28.229569599032402 1.5
      vertex 138.4692665785551 42.00419279932976 1.5
      vertex 141.91963007301092 28.229569599032402 16
    endloop
  endfacet
  facet normal 0.9415440651671839 0.3368898534364813 0
    outer loop
      vertex 138.4692665785551 42.00419279932976 1.5
      vertex 133.68536835163832 55.37429266422987 0
      vertex 138.4692665785551 42.00419279932976 16
    endloop
  endfacet
  facet normal 0.10973431260959271 -0.9939609552875305 0
    outer loop
      vertex 143.75292914360762 15.870471127331257 1.5
      vertex 143.75292914360762 15.870471127331257 16
      vertex 140.77256434777962 15.541435785996942 16
    endloop
  endfacet
  facet normal 0.9891765100378123 0.14673047396302472 0
    outer loop
      vertex 141.91963007301092 28.229569599032402 1.5
      vertex 141.91963007301092 28.229569599032402 16
      vertex 143.75292914360762 15.870471127331257 16
    endloop
  endfacet
  facet normal 0 0 1
    outer loop
      vertex 140.77256434777962 15.541435785996942 16
      vertex 143.75292914360762 15.870471127331257 16
      vertex 138.97727423161268 27.644298627972603 16
    endloop
  endfacet
  facet normal 0 0 1
    outer loop
      vertex 143.75292914360762 15.870471127331257 16
      vertex 141.91963007301092 28.229569599032402 16
      vertex 138.97727423161268 27.644298627972603 16
    endloop
  endfacet
  facet normal 0.9700312531740833 0.24298017998494736 0
    outer loop
      vertex 138.4692665785551 42.00419279932976 1.5
      vertex 138.4692665785551 42.00419279932976 16
      vertex 141.91963007301092 28.229569599032402 16
    endloop
  endfacet
  facet normal 0 0 1
    outer loop
      vertex 138.97727423161268 27.644298627972603 16
      vertex 141.91963007301092 28.229569599032402 16
      vertex 135.59844557195902 41.13333876430988 16
    endloop
  endfacet
  facet normal 0 0 1
    outer loop
      vertex 141.91963007301092 28.229569599032402 16
      vertex 138.4692665785551 42.00419279932976 16
      vertex 135.59844557195902 41.13333876430988 16
    endloop
  endfacet
  facet normal 0 0 1
    outer loop
      vertex 135.59844557195902 41.13333876430988 16
      vertex 138.4692665785551 42.00419279932976 16
      vertex 130.91372975707054 54.22624236345291 16
    endloop
  endfacet
  facet normal 0 0 -1
    outer loop
      vertex 116.60768766845575 80.35789670789285 0
      vertex 114.84209840806953 82.73851823996242 0
      vertex 117.81924406209718 78.72430202162231 0
    endloop
  endfacet
  facet normal 0 0 -1
    outer loop
      vertex 114.84209840806953 82.73851823996242 0
      vertex 112.87078876793385 90.42655325680971 0
      vertex 117.81924406209718 78.72430202162231 0
    endloop
  endfacet
  facet normal 0 0 -1
    outer loop
      vertex 117.81924406209718 78.72430202162231 0
      vertex 112.87078876793385 90.42655325680971 0
      vertex 120.31365290284157 80.39101272076368 0
    endloop
  endfacet
  facet normal 0.8032075309363189 0.595699305226372 0
    outer loop
      vertex 120.31365290284157 80.39101272076368 1.5
      vertex 112.87078876793385 90.42655325680971 1.5
      vertex 120.31365290284157 80.39101272076368 16
    endloop
  endfacet
  facet normal -0.6252426568283989 0.7804304069436078 0
    outer loop
      vertex 110.53068948924053 88.55178021204526 1.5
      vertex 112.87078876793385 90.42655325680971 16
      vertex 112.87078876793385 90.42655325680971 1.5
    endloop
  endfacet
  facet normal 0.9039892932118745 0.42755509324330987 0
    outer loop
      vertex 127.6140069514513 68.21110782027245 1.5
      vertex 133.68536835163832 55.37429266422987 16
      vertex 133.68536835163832 55.37429266422987 1.5
    endloop
  endfacet
  facet normal 0.8577286100991497 0.5141027440282543 0
    outer loop
      vertex 120.31365290284157 80.39101272076368 1.5
      vertex 127.6140069514513 68.21110782027245 16
      vertex 127.6140069514513 68.21110782027245 1.5
    endloop
  endfacet
  facet normal 0.9415440651671838 0.3368898534364813 0
    outer loop
      vertex 138.4692665785551 42.00419279932976 16
      vertex 133.68536835163832 55.37429266422987 0
      vertex 133.68536835163832 55.37429266422987 1.5
    endloop
  endfacet
  facet normal -0.6252426568283989 0.7804304069436078 0
    outer loop
      vertex 110.53068948924053 88.55178021204526 1.5
      vertex 110.53068948924053 88.55178021204526 16
      vertex 112.87078876793385 90.42655325680971 16
    endloop
  endfacet
  facet normal 0.8032075309363189 0.595699305226372 0
    outer loop
      vertex 112.87078876793385 90.42655325680971 1.5
      vertex 112.87078876793385 90.42655325680971 16
      vertex 120.31365290284157 80.39101272076368 16
    endloop
  endfacet
  facet normal 0 0 1
    outer loop
      vertex 117.81924406439066 78.72430201619864 16
      vertex 127.6140069514513 68.21110782027245 16
      vertex 120.31365290284157 80.39101272076368 16
    endloop
  endfacet
  facet normal 0 0 1
    outer loop
      vertex 117.81924406439066 78.72430201619864 16
      vertex 120.31365290284157 80.39101272076368 16
      vertex 112.87078876793385 90.42655325680971 16
    endloop
  endfacet
  facet normal 0 0 1
    outer loop
      vertex 110.53068948924053 88.55178021204526 16
      vertex 117.81924406439066 78.72430201619864 16
      vertex 112.87078876793385 90.42655325680971 16
    endloop
  endfacet
  facet normal 0.9039892932118745 0.42755509324330987 0
    outer loop
      vertex 127.6140069514513 68.21110782027245 1.5
      vertex 127.6140069514513 68.21110782027245 16
      vertex 133.68536835163832 55.37429266422987 16
    endloop
  endfacet
  facet normal 0.9415440651671839 0.3368898534364813 0
    outer loop
      vertex 138.4692665785551 42.00419279932976 16
      vertex 133.68536835163832 55.37429266422987 1.5
      vertex 133.68536835163832 55.37429266422987 16
    endloop
  endfacet
  facet normal 0 0 1
    outer loop
      vertex 130.91372975707054 54.22624236345291 16
      vertex 133.68536835163832 55.37429266422987 16
      vertex 124.96824315935373 66.79691760987043 16
    endloop
  endfacet
  facet normal 0 0 1
    outer loop
      vertex 117.81924406439066 78.72430201619864 16
      vertex 124.96824315935373 66.79691760987043 16
      vertex 127.6140069514513 68.21110782027245 16
    endloop
  endfacet
  facet normal 0 0 1
    outer loop
      vertex 124.96824315935373 66.79691760987043 16
      vertex 133.68536835163832 55.37429266422987 16
      vertex 127.6140069514513 68.21110782027245 16
    endloop
  endfacet
  facet normal 0 0 1
    outer loop
      vertex 138.4692665785551 42.00419279932976 16
      vertex 133.68536835163832 55.37429266422987 16
      vertex 130.91372975707054 54.22624236345291 16
    endloop
  endfacet
  facet normal 0.8577286100991497 0.5141027440282543 0
    outer loop
      vertex 120.31365290284157 80.39101272076368 1.5
      vertex 120.31365290284157 80.39101272076368 16
      vertex 127.6140069514513 68.21110782027245 16
    endloop
  endfacet
  facet normal -0.9891765099893666 -0.14673047428961938 0
    outer loop
      vertex 138.78565447032452 15.32207889854908 1.5
      vertex 137.6803761977903 22.77325977617956 1.5
      vertex 137.6803761977903 22.77325977617956 0
    endloop
  endfacet
  facet normal 0 0 1
    outer loop
      vertex 138.78565447032452 15.32207889854908 1.5
      vertex 137.68037619971153 22.77325977650796 1.5
      vertex 137.6803761977903 22.77325977617956 1.5
    endloop
  endfacet
  facet normal 0 0 -1
    outer loop
      vertex 138.7856544754857 15.322078899118878 0
      vertex 137.6803761977903 22.77325977617956 0
      vertex 137.46022704511586 24.257384821621848 0
    endloop
  endfacet
  facet normal 0 0 -1
    outer loop
      vertex 140.53087736457186 15.514753299633774 0
      vertex 137.46022704511586 24.257384821621848 0
      vertex 137.01570367068052 27.254117988049984 0
    endloop
  endfacet
  facet normal 0 0 -1
    outer loop
      vertex 137.01570367068052 27.254117988049984 0
      vertex 137.46022704511586 24.257384821621848 0
      vertex 137.46022704383097 24.257384821402223 0
    endloop
  endfacet
  facet normal -0.9891765099893666 -0.14673047428961936 0
    outer loop
      vertex 137.01570367068052 27.254117988049984 0
      vertex 137.46022704383097 24.257384821402223 0
      vertex 137.46022704383097 24.257384821402223 1.5
    endloop
  endfacet
  facet normal -0.9891765099893666 -0.14673047428961936 0
    outer loop
      vertex 137.01570367068052 27.254117988049984 0
      vertex 137.46022704383097 24.257384821402223 1.5
      vertex 137.01570367068052 27.254117988049984 1.5
    endloop
  endfacet
  facet normal 0 0 1
    outer loop
      vertex 137.01570367068052 27.254117988049984 1.5
      vertex 137.46022704383097 24.257384821402223 1.5
      vertex 137.46022704511586 24.257384821621848 1.5
    endloop
  endfacet
  facet normal 0.10973401992047147 -0.9939609876006671 0
    outer loop
      vertex 138.78565447032452 15.32207889854908 0
      vertex 138.7856544754857 15.322078899118878 0
      vertex 138.78565447032452 15.32207889854908 1.5
    endloop
  endfacet
  facet normal 0.10973401992047147 -0.9939609876006671 0
    outer loop
      vertex 138.7856544754857 15.322078899118878 0
      vertex 138.7856544754857 15.322078899118878 1.5
      vertex 138.78565447032452 15.32207889854908 1.5
    endloop
  endfacet
  facet normal 0 0 -1
    outer loop
      vertex 138.78565447032452 15.32207889854908 0
      vertex 137.6803761977903 22.77325977617956 0
      vertex 138.7856544754857 15.322078899118878 0
    endloop
  endfacet
  facet normal 0 0 -1
    outer loop
      vertex 138.7856544754857 15.322078899118878 0
      vertex 137.46022704511586 24.257384821621848 0
      vertex 140.53087736457186 15.514753299633774 0
    endloop
  endfacet
  facet normal -0.9891765099893666 -0.14673047428961938 0
    outer loop
      vertex 138.78565447032452 15.32207889854908 0
      vertex 138.78565447032452 15.32207889854908 1.5
      vertex 137.6803761977903 22.77325977617956 0
    endloop
  endfacet
  facet normal 0.9891765100378123 0.14673047396302472 0
    outer loop
      vertex 143.75292914360762 15.870471127331257 0
      vertex 141.91963007301092 28.229569599032402 0
      vertex 143.75292914360762 15.870471127331257 1.5
    endloop
  endfacet
  facet normal 0 0 1
    outer loop
      vertex 138.78565447032452 15.32207889854908 1.5
      vertex 138.7856544754857 15.322078899118878 1.5
      vertex 137.68037619971153 22.77325977650796 1.5
    endloop
  endfacet
  facet normal 0 0 -1
    outer loop
      vertex 139.71059386383158 22.700659241697565 0
      vertex 137.01570367068052 27.254117988049984 0
      vertex 141.91963007301092 28.229569599032402 0
    endloop
  endfacet
  facet normal 0 0 -1
    outer loop
      vertex 139.71059386475406 22.700659235478593 0
      vertex 139.71059386383158 22.700659241697565 0
      vertex 141.91963007301092 28.229569599032402 0
    endloop
  endfacet
  facet normal 0 0 -1
    outer loop
      vertex 143.75292914360762 15.870471127331257 0
      vertex 139.71059386475406 22.700659235478593 0
      vertex 141.91963007301092 28.229569599032402 0
    endloop
  endfacet
  facet normal 0.9891765100378123 0.14673047396302472 0
    outer loop
      vertex 143.75292914360762 15.870471127331257 1.5
      vertex 141.91963007301092 28.229569599032402 0
      vertex 141.91963007301092 28.229569599032402 1.5
    endloop
  endfacet
  facet normal -0.9415440650795857 -0.33688985368130187 0
    outer loop
      vertex 133.6845649033785 40.55276941508055 0
      vertex 133.6845649033785 40.55276941508055 1.5
      vertex 129.0659706890583 53.46087550371885 1.5
    endloop
  endfacet
  facet normal -0.9415440650795857 -0.33688985368130187 0
    outer loop
      vertex 133.6845649033785 40.55276941508055 0
      vertex 129.0659706890583 53.46087550371885 1.5
      vertex 129.0659706890583 53.46087550371885 0
    endloop
  endfacet
  facet normal 0 0 -1
    outer loop
      vertex 133.6845649033785 40.55276941508055 0
      vertex 129.0659706890583 53.46087550371885 0
      vertex 133.6850631031789 49.74325534146811 0
    endloop
  endfacet
  facet normal 0 0 -1
    outer loop
      vertex 137.01570367068052 27.254117988049984 0
      vertex 133.6845649033785 40.55276941508055 0
      vertex 141.91963007301092 28.229569599032402 0
    endloop
  endfacet
  facet normal -0.9700312532512548 -0.2429801796768613 0
    outer loop
      vertex 137.01570367068052 27.254117988049984 0
      vertex 137.01570367068052 27.254117988049984 1.5
      vertex 133.6845649033785 40.55276941508055 1.5
    endloop
  endfacet
  facet normal -0.9700312532512548 -0.2429801796768613 0
    outer loop
      vertex 137.01570367068052 27.254117988049984 0
      vertex 133.6845649033785 40.55276941508055 1.5
      vertex 133.6845649033785 40.55276941508055 0
    endloop
  endfacet
  facet normal 0 0 -1
    outer loop
      vertex 141.91963007301092 28.229569599032402 0
      vertex 133.6845649033785 40.55276941508055 0
      vertex 138.4692665785551 42.00419279932976 0
    endloop
  endfacet
  facet normal 0.9700312531740833 0.24298017998494736 0
    outer loop
      vertex 141.91963007301092 28.229569599032402 0
      vertex 138.4692665785551 42.00419279932976 0
      vertex 141.91963007301092 28.229569599032402 1.5
    endloop
  endfacet
  facet normal 0.9700312531740833 0.24298017998494736 0
    outer loop
      vertex 141.91963007301092 28.229569599032402 1.5
      vertex 138.4692665785551 42.00419279932976 0
      vertex 138.4692665785551 42.00419279932976 1.5
    endloop
  endfacet
  facet normal 0 0 -1
    outer loop
      vertex 133.6845649033785 40.55276941508055 0
      vertex 133.6850631031789 49.74325534146811 0
      vertex 138.4692665785551 42.00419279932976 0
    endloop
  endfacet
  facet normal 0 0 -1
    outer loop
      vertex 110.42589952805163 86.17086534473496 0
      vertex 108.97062329947948 87.30193151533604 0
      vertex 108.97062330349802 87.30193151855548 0
    endloop
  endfacet
  facet normal 0 0 -1
    outer loop
      vertex 110.42589952805163 86.17086534473496 0
      vertex 108.97062330349802 87.30193151855548 0
      vertex 109.15570116915748 87.45020684881584 0
    endloop
  endfacet
  facet normal -0.8032075313195411 -0.5956993047096567 0
    outer loop
      vertex 108.97062329947948 87.30193151533604 0
      vertex 113.45785406407164 81.25160122890766 1.5
      vertex 108.97062329947948 87.30193151533604 1.5
    endloop
  endfacet
  facet normal 0 0 -1
    outer loop
      vertex 110.42589952805163 86.17086534473496 0
      vertex 109.15570116915748 87.45020684881584 0
      vertex 110.53068948840944 88.55178021316586 0
    endloop
  endfacet
  facet normal -0.6252414820513407 0.7804313481160551 0
    outer loop
      vertex 108.97062329947948 87.30193151533604 0
      vertex 108.97062330349802 87.30193151855548 1.5
      vertex 108.97062330349802 87.30193151855548 0
    endloop
  endfacet
  facet normal 0 0 -1
    outer loop
      vertex 110.42589952805163 86.17086534473496 0
      vertex 110.53068948840944 88.55178021316586 0
      vertex 112.87078876793385 90.42655325680971 0
    endloop
  endfacet
  facet normal -0.6252414820513407 0.7804313481160551 0
    outer loop
      vertex 108.97062329947948 87.30193151533604 0
      vertex 108.97062329947948 87.30193151533604 1.5
      vertex 108.97062330349802 87.30193151855548 1.5
    endloop
  endfacet
  facet normal -0.6252426564655263 0.7804304072343232 0
    outer loop
      vertex 110.53068948840944 88.55178021316586 0
      vertex 110.53068948840944 88.55178021316586 1.5
      vertex 112.87078876793385 90.42655325680971 1.5
    endloop
  endfacet
  facet normal 0 0 1
    outer loop
      vertex 108.97062329947948 87.30193151533604 1.5
      vertex 113.45785406564906 81.25160123002453 1.5
      vertex 108.97062330349802 87.30193151855548 1.5
    endloop
  endfacet
  facet normal 0 0 1
    outer loop
      vertex 110.53068948840944 88.55178021316586 1.5
      vertex 110.53068948924053 88.55178021204526 1.5
      vertex 112.87078876793385 90.42655325680971 1.5
    endloop
  endfacet
  facet normal -0.8032075313195398 -0.5956993047096586 0
    outer loop
      vertex 116.1563048362732 77.61316155642271 0
      vertex 116.1563048362732 77.61316155642271 1.5
      vertex 114.35161998816626 80.046497385754 0
    endloop
  endfacet
  facet normal 0 0 -1
    outer loop
      vertex 108.97062329947948 87.30193151533604 0
      vertex 115.19319518812378 81.36925372443271 0
      vertex 113.45785406407164 81.25160122890766 0
    endloop
  endfacet
  facet normal -0.8032075313195411 -0.5956993047096567 0
    outer loop
      vertex 108.97062329947948 87.30193151533604 0
      vertex 113.45785406407164 81.25160122890766 0
      vertex 113.45785406407164 81.25160122890766 1.5
    endloop
  endfacet
  facet normal 0 0 -1
    outer loop
      vertex 116.1563048362732 77.61316155642271 0
      vertex 114.35161998816626 80.046497385754 0
      vertex 115.19319518812378 81.36925372443271 0
    endloop
  endfacet
  facet normal 0 0 -1
    outer loop
      vertex 115.19319518812378 81.36925372443271 0
      vertex 114.35161998816626 80.046497385754 0
      vertex 113.45785406407164 81.25160122890766 0
    endloop
  endfacet
  facet normal 0 0 -1
    outer loop
      vertex 116.1563048362732 77.61316155642271 0
      vertex 115.19319518812378 81.36925372443271 0
      vertex 116.60768766845575 80.35789670789285 0
    endloop
  endfacet
  facet normal -0.8032075313195398 -0.5956993047096586 0
    outer loop
      vertex 116.1563048362732 77.61316155642271 1.5
      vertex 114.35161998816626 80.046497385754 1.5
      vertex 114.35161998816626 80.046497385754 0
    endloop
  endfacet
  facet normal 0 0 1
    outer loop
      vertex 108.97062329947948 87.30193151533604 1.5
      vertex 113.45785406407164 81.25160122890766 1.5
      vertex 113.45785406564906 81.25160123002453 1.5
    endloop
  endfacet
  facet normal 0 0 1
    outer loop
      vertex 116.1563048362732 77.61316155642271 1.5
      vertex 114.35161998922122 80.04649738650095 1.5
      vertex 114.35161998816626 80.046497385754 1.5
    endloop
  endfacet
  facet normal 0 0 -1
    outer loop
      vertex 116.1563048362732 77.61316155642271 0
      vertex 117.81924406209718 78.72430202162231 0
      vertex 123.20440062880516 65.85412413626909 0
    endloop
  endfacet
  facet normal 0 0 -1
    outer loop
      vertex 117.81924406209718 78.72430202162231 0
      vertex 120.31365290284157 80.39101272076368 0
      vertex 123.20440062880516 65.85412413626909 0
    endloop
  endfacet
  facet normal 0 0 -1
    outer loop
      vertex 116.1563048362732 77.61316155642271 0
      vertex 116.60768766845575 80.35789670789285 0
      vertex 117.81924406209718 78.72430202162231 0
    endloop
  endfacet
  facet normal 0.8032075309363189 0.5956993052263722 0
    outer loop
      vertex 120.31365290284157 80.39101272076368 0
      vertex 112.87078876793385 90.42655325680971 0
      vertex 120.31365290284157 80.39101272076368 1.5
    endloop
  endfacet
  facet normal 0 0 -1
    outer loop
      vertex 110.42589952805163 86.17086534473496 0
      vertex 115.19319518812378 81.36925372443271 0
      vertex 108.97062329947948 87.30193151533604 0
    endloop
  endfacet
  facet normal 0 0 -1
    outer loop
      vertex 110.42589952805163 86.17086534473496 0
      vertex 112.87078876793385 90.42655325680971 0
      vertex 114.84209840806953 82.73851823996242 0
    endloop
  endfacet
  facet normal -0.6252426564655263 0.7804304072343232 0
    outer loop
      vertex 110.53068948840944 88.55178021316586 0
      vertex 112.87078876793385 90.42655325680971 1.5
      vertex 112.87078876793385 90.42655325680971 0
    endloop
  endfacet
  facet normal 0.8032075309363189 0.5956993052263722 0
    outer loop
      vertex 120.31365290284157 80.39101272076368 1.5
      vertex 112.87078876793385 90.42655325680971 0
      vertex 112.87078876793385 90.42655325680971 1.5
    endloop
  endfacet
  facet normal -0.9039892931743696 -0.4275550933226074 0
    outer loop
      vertex 123.20440062880516 65.85412413626909 0
      vertex 128.74491764798753 54.13968512662297 3.9965325956486486e-15
      vertex 128.74491764798753 54.13968512662297 1.5
    endloop
  endfacet
  facet normal 0 0 -1
    outer loop
      vertex 133.6850631031789 49.74325534146811 0
      vertex 129.0659706890583 53.46087550371885 0
      vertex 133.68536835163832 55.37429266422987 0
    endloop
  endfacet
  facet normal 0 0 -1
    outer loop
      vertex 128.65532318606097 57.63256789006317 0
      vertex 127.6140069514513 68.21110782027245 0
      vertex 133.68536835163832 55.37429266422987 0
    endloop
  endfacet
  facet normal 0 0 -1
    outer loop
      vertex 128.65532318606097 57.63256789006317 0
      vertex 133.68536835163832 55.37429266422987 0
      vertex 129.0659706890583 53.46087550371885 0
    endloop
  endfacet
  facet normal 0.9039892932118745 0.42755509324330987 0
    outer loop
      vertex 127.6140069514513 68.21110782027245 0
      vertex 133.68536835163832 55.37429266422987 1.5
      vertex 133.68536835163832 55.37429266422987 0
    endloop
  endfacet
  facet normal 0 0 -1
    outer loop
      vertex 128.65532318606097 57.63256789006317 0
      vertex 123.20440062880516 65.85412413626909 0
      vertex 127.6140069514513 68.21110782027245 0
    endloop
  endfacet
  facet normal -0.9039892931743696 -0.4275550933226074 0
    outer loop
      vertex 123.20440062880516 65.85412413626909 0
      vertex 128.74491764798753 54.13968512662297 1.5
      vertex 123.20440062880516 65.85412413626909 1.5
    endloop
  endfacet
  facet normal 0 0 -1
    outer loop
      vertex 120.31365290284157 80.39101272076368 0
      vertex 127.6140069514513 68.21110782027245 0
      vertex 123.20440062880516 65.85412413626909 0
    endloop
  endfacet
  facet normal 0.8577286100991497 0.5141027440282543 0
    outer loop
      vertex 120.31365290284157 80.39101272076368 0
      vertex 127.6140069514513 68.21110782027245 1.5
      vertex 127.6140069514513 68.21110782027245 0
    endloop
  endfacet
  facet normal 0.9039892932118745 0.42755509324330987 0
    outer loop
      vertex 127.6140069514513 68.21110782027245 0
      vertex 127.6140069514513 68.21110782027245 1.5
      vertex 133.68536835163832 55.37429266422987 1.5
    endloop
  endfacet
  facet normal 0.8577286100991497 0.5141027440282543 0
    outer loop
      vertex 120.31365290284157 80.39101272076368 0
      vertex 120.31365290284157 80.39101272076368 1.5
      vertex 127.6140069514513 68.21110782027245 1.5
    endloop
  endfacet
endsolid OpenSCAD_Model
